<?xml version="1.0" standalone="no"?>
<!DOCTYPE svg PUBLIC "-//W3C//DTD SVG 1.1//EN" "http://www.w3.org/Graphics/SVG/1.1/DTD/svg11.dtd" >
<svg xmlns="http://www.w3.org/2000/svg">
<metadata></metadata>
<defs>
<font id="studioregular" horiz-adv-x="1441" >
<font-face units-per-em="2048" ascent="1479" descent="-569" />
<missing-glyph horiz-adv-x="778" />
<glyph unicode="&#xfb01;" horiz-adv-x="1660" d="M49 53q0 24 15 41t38 17h213v774h-213q-23 0 -38 16t-15 39t15 39t38 16h213v60q0 127 34 224t88 154.5t130.5 93.5t151 49t160.5 13q65 0 128 -8t129.5 -30t116 -56t81.5 -90t32 -127v-14q-1 -47 -36.5 -81t-82.5 -34q-51 0 -85 35t-34 86q0 47 33 82.5t80 38.5l-10 12 q-55 35 -152 59.5t-200 24.5q-67 0 -122.5 -8t-120 -35t-109 -72t-74 -126.5t-29.5 -190.5v-60h846q22 0 37.5 -15.5t15.5 -37.5v-831h262q23 0 38 -17t15 -41q0 -22 -15 -37.5t-38 -15.5h-641q-23 0 -38 15.5t-15 37.5q0 24 15 41t38 17h268v774h-788v-774h307q23 0 39 -17 t16 -41q0 -22 -16 -37.5t-39 -15.5h-629q-23 0 -38 15.5t-15 37.5z" />
<glyph unicode="&#xfb02;" horiz-adv-x="1693" d="M49 53q0 24 15 41t38 17h213v774h-213q-23 0 -38 16t-15 39t15 39t38 16h213v60q0 127 28 224t72.5 154.5t107 93.5t123 49t130.5 13q99 0 181.5 -21t169.5 -42t196 -21q21 0 37 -16t16 -37v-1341h262q23 0 38.5 -17t15.5 -41q0 -22 -15.5 -37.5t-38.5 -15.5h-630 q-23 0 -38.5 15.5t-15.5 37.5q0 24 15.5 41t38.5 17h260v1284q-68 0 -242 46t-250 46q-36 0 -67.5 -4t-68.5 -15.5t-66.5 -30.5t-58.5 -52t-48 -77.5t-31 -109t-12 -143.5v-60h362q23 0 39.5 -16t16.5 -39t-16.5 -39t-39.5 -16h-362v-774h307q23 0 39 -17t16 -41 q0 -22 -16 -37.5t-39 -15.5h-629q-23 0 -38 15.5t-15 37.5z" />
<glyph horiz-adv-x="0" />
<glyph horiz-adv-x="682" />
<glyph unicode=" "  horiz-adv-x="778" />
<glyph unicode="&#x09;" horiz-adv-x="778" />
<glyph unicode="&#xa0;" horiz-adv-x="778" />
<glyph unicode="!" horiz-adv-x="485" d="M102 115q0 60 41.5 100.5t100.5 40.5q58 0 98.5 -41t40.5 -100q0 -57 -41 -97.5t-98 -40.5q-59 0 -100.5 40.5t-41.5 97.5zM127 1362q0 48 34 81.5t83 33.5q47 0 80.5 -34t33.5 -81l-92 -963h-47z" />
<glyph unicode="&#x22;" horiz-adv-x="759" d="M66 1458q0 57 40 95t97 38q56 0 95.5 -38.5t39.5 -94.5q0 -27 -12 -55l-15 -23l-170 -290l-30 14l63 221q-47 11 -77.5 47.5t-30.5 85.5zM422 1458q0 56 39.5 94.5t95.5 38.5q57 0 97 -38t40 -95q0 -30 -14 -55l-12 -23l-172 -290l-31 14l65 221q-47 11 -77.5 47.5 t-30.5 85.5z" />
<glyph unicode="#" horiz-adv-x="1386" d="M51 469q0 23 15.5 38t37.5 15h293l58 361h-271q-23 0 -38 16t-15 37q0 24 15 40.5t38 16.5h291l55 320q1 23 19.5 36.5t42.5 10.5q23 -5 36 -24t9 -42l-51 -301h325l54 320q4 23 21.5 36.5t39.5 10.5q23 -4 36.5 -23.5t10.5 -42.5l-51 -301h262q23 0 40 -17t17 -40 q0 -21 -17 -37t-40 -16h-280l-62 -361h266q22 0 38 -15t16 -38t-16 -40t-38 -17h-284l-66 -389q-3 -21 -18 -33.5t-37 -12.5h-6q-23 3 -36.5 21.5t-10.5 42.5l63 371h-324l-67 -389q-1 -21 -16 -33.5t-37 -12.5h-9q-23 3 -36.5 22t-8.5 42l64 371h-275q-22 0 -37.5 17 t-15.5 40zM506 522h325l60 361h-324z" />
<glyph unicode="$" horiz-adv-x="1157" d="M76 348q0 50 36 85.5t85 35.5q50 0 82 -36t32 -87q0 -42 -23.5 -73t-62.5 -40q50 -56 142 -95t184 -48v545q-92 13 -161.5 34t-133.5 59.5t-98.5 102.5t-34.5 152q0 152 112.5 243t315.5 103v201q0 23 16 40t39 17q22 0 37.5 -17t15.5 -40v-201q168 -12 278.5 -84.5 t117.5 -177.5v-14q0 -50 -33 -83.5t-82 -33.5q-51 0 -86 35.5t-35 85.5q0 32 16 59.5t44 42.5q-83 47 -220 60v-490q67 -8 122 -22t112.5 -42t96.5 -68t64 -103t25 -144q0 -169 -109 -266t-311 -107v-274q0 -23 -15.5 -38t-37.5 -15q-23 0 -39 15t-16 38v277 q-61 6 -124.5 24t-127 50t-112.5 73.5t-80 99t-31 121.5zM233 983q0 -102 73 -157t245 -81v474q-59 -4 -109.5 -16.5t-100.5 -38t-79 -72t-29 -109.5zM659 86q312 15 312 264q0 54 -13 94t-46.5 76t-96 60t-156.5 38v-532z" />
<glyph unicode="%" horiz-adv-x="1382" d="M76 1049q0 114 80 195t194 81t194.5 -81t80.5 -195q0 -113 -80.5 -193t-194.5 -80t-194 80t-80 193zM107 27q-1 22 14 39l1065 1273q12 17 35.5 19t40.5 -12q17 -15 19 -37t-13 -39l-1065 -1272q-15 -21 -41 -21q-21 0 -37 13q-17 15 -18 37zM184 1049q0 -67 49 -117.5 t117 -50.5t117 50.5t49 117.5q0 70 -49 122t-117 52t-117 -52t-49 -122zM756 248q0 115 81 195.5t195 80.5q113 0 193 -80.5t80 -195.5q0 -114 -80 -194.5t-193 -80.5q-114 0 -195 80.5t-81 194.5zM864 248q0 -68 49.5 -117t118.5 -49q66 0 115 49.5t49 116.5 q0 69 -49 121.5t-115 52.5q-68 0 -118 -52t-50 -122z" />
<glyph unicode="&#x26;" horiz-adv-x="1529" d="M63 391q0 114 59.5 211t162.5 154q18 8 61.5 31t65.5 34l-105 113q-92 95 -92 223q0 137 100 229q97 91 242 91q143 0 238.5 -92t95.5 -230q0 -81 -34.5 -148.5t-96.5 -107.5q-70 -49 -172 -102l317 -336q81 166 185 424h-117q-24 0 -41 16t-17 39t17 38t41 15h370 q23 0 38.5 -15t15.5 -38t-15.5 -39t-38.5 -16h-137q-129 -323 -221 -508l254 -266h174q23 0 38 -17t15 -41q0 -22 -15 -37.5t-38 -15.5h-371q-23 0 -40 15.5t-17 37.5q0 23 17 40.5t40 17.5h45l-155 163q-48 -84 -72 -116q-66 -84 -162 -132.5t-198 -48.5q-181 0 -309 121.5 t-128 292.5zM172 391q0 -126 96.5 -217.5t231.5 -91.5q85 0 156.5 42t115.5 101q18 22 80 131l-363 389q-101 -60 -153 -88q-75 -40 -119.5 -111.5t-44.5 -154.5zM326 1157q0 -86 57 -149l127 -136q41 23 188 115q82 59 82 168q2 93 -61.5 156t-161.5 63h-2q-92 0 -164 -65 q-65 -62 -65 -152z" />
<glyph unicode="'" horiz-adv-x="450" d="M86 1458q0 57 40 95t97 38q56 0 94.5 -38t38.5 -95q0 -32 -10 -55l-14 -23l-170 -290l-31 14l64 221q-47 11 -78 47.5t-31 85.5z" />
<glyph unicode="(" horiz-adv-x="735" d="M72 614q0 309 142.5 570t399.5 413q17 11 37.5 6.5t32.5 -24.5q10 -17 4.5 -37.5t-22.5 -32.5q-229 -135 -349 -372t-120 -523q0 -186 50.5 -352.5t157 -307t259.5 -230.5q17 -12 21.5 -32.5t-5.5 -39.5q-14 -23 -45 -23q-11 0 -27 4q-254 154 -395 414.5t-141 566.5z " />
<glyph unicode=")" horiz-adv-x="737" d="M49.5 1541.5q-5.5 20.5 3.5 37.5q12 20 32.5 24.5t37.5 -6.5q258 -153 400.5 -414t142.5 -569q0 -306 -142 -566.5t-397 -414.5q-12 -4 -25 -4q-34 0 -43 23q-12 19 -7.5 39.5t22.5 32.5q153 90 259.5 230.5t157 307t50.5 352.5q0 285 -120.5 522.5t-348.5 372.5 q-17 12 -22.5 32.5z" />
<glyph unicode="*" horiz-adv-x="1048" d="M105.5 871q4.5 23 21.5 34l295 193l-295 192q-17 14 -21.5 35.5t7.5 40.5q14 20 35 24.5t40 -8.5l277 -182v324q0 21 17 37t40 16q21 0 37 -16t16 -37v-324l277 182q20 14 43 9t35 -25q12 -19 7.5 -41t-24.5 -35l-290 -192l290 -193q20 -10 24.5 -33.5t-7.5 -42.5 q-12 -17 -35 -22t-43 6l-277 184v-321q0 -23 -15.5 -38t-37.5 -15q-24 0 -40.5 15t-16.5 38v321l-277 -184q-19 -10 -40 -5.5t-35 21.5q-12 19 -7.5 42z" />
<glyph unicode="+" horiz-adv-x="1124" d="M102 496q0 23 16.5 40t39.5 17h348v387q0 23 17 39t40 16t38 -16t15 -39v-387h351q23 0 39 -17t16 -40t-16 -38.5t-39 -15.5h-351v-389q0 -23 -15 -38t-38 -15q-24 0 -40.5 15t-16.5 38v389h-348q-23 0 -39.5 15.5t-16.5 38.5z" />
<glyph unicode="," horiz-adv-x="401" d="M63 111q0 56 39.5 95.5t94.5 39.5t95 -40t40 -95q0 -29 -13 -58l-12 -20l-172 -289l-31 10l68 226q-46 8 -77.5 45t-31.5 86z" />
<glyph unicode="-" horiz-adv-x="919" d="M102 500q0 23 16 38t38 15h604q24 0 40.5 -15t16.5 -38t-17 -39.5t-40 -16.5h-604q-22 0 -38 16.5t-16 39.5z" />
<glyph unicode="." horiz-adv-x="432" d="M76 115q0 60 40 100.5t99 40.5q58 0 99.5 -41t41.5 -100q0 -57 -42 -97.5t-99 -40.5q-58 0 -98.5 40.5t-40.5 97.5z" />
<glyph unicode="/" horiz-adv-x="1067" d="M54 -313q-8 21 1 41l817 1831q7 21 28.5 29t43.5 -1q21 -9 29 -29t0 -42l-817 -1831q-6 -15 -20.5 -24t-29.5 -9q-14 0 -22 4q-22 10 -30 31z" />
<glyph unicode="0" horiz-adv-x="1118" d="M76 680q0 315 133.5 509.5t351.5 194.5q216 0 348.5 -194t132.5 -510q0 -209 -59.5 -368.5t-169 -247t-252.5 -87.5q-218 0 -351.5 193.5t-133.5 509.5zM184 680q0 -115 23 -219.5t67.5 -190.5t118.5 -137t168 -51q93 0 166.5 51t117.5 137t66.5 190.5t22.5 219.5 q0 114 -22.5 219t-66.5 192t-117.5 139t-166.5 52q-94 0 -168 -52t-118.5 -139t-67.5 -192t-23 -219z" />
<glyph unicode="1" horiz-adv-x="1083" d="M76 53q0 23 16.5 40.5t38.5 17.5h373v1087l-297 -246q-17 -13 -40.5 -11t-35.5 20q-14 17 -12.5 39.5t18.5 35.5l387 318q12 12 37 12q20 0 36.5 -13t16.5 -40v-1202h338q23 0 38.5 -17t15.5 -41q0 -22 -15.5 -37.5t-38.5 -15.5h-821q-22 0 -38.5 15.5t-16.5 37.5z" />
<glyph unicode="2" horiz-adv-x="1095" d="M63 53q0 24 19 43q1 1 130.5 132.5t295 304t240.5 258.5q30 35 47.5 59t36 66t18.5 81q0 86 -64 162q-107 123 -239 123q-110 0 -201 -59t-127 -146q45 -1 78 -38t33 -85q0 -49 -33.5 -82.5t-83.5 -33.5t-85.5 36.5t-35.5 88.5q0 184 127 302.5t328 118.5q93 0 176 -41 t145 -112q88 -108 88 -234q0 -72 -32.5 -137.5t-94.5 -140.5q-153 -175 -581 -608h661v190q0 23 16.5 39t39.5 16q22 0 37.5 -16t15.5 -39v-258q0 -18 -16 -30.5t-37 -12.5h-844q-23 0 -40.5 15.5t-17.5 37.5z" />
<glyph unicode="3" horiz-adv-x="1021" d="M76 295q0 65 36 101t87 36q50 0 83 -35.5t33 -87.5q0 -45 -30.5 -78t-75.5 -36q37 -54 116.5 -84.5t166.5 -30.5q92 0 172 43.5t128.5 118.5t49.5 161v11q0 64 -23 123.5t-64.5 106.5t-107.5 75.5t-145 28.5q-17 0 -52.5 -5.5t-41.5 -5.5q-27 0 -46.5 13t-19.5 41 q0 22 14 36l351 422h-512q-23 0 -38.5 16.5t-15.5 39.5t16.5 39t39.5 16h626q21 0 38.5 -13.5t17.5 -35.5q0 -21 -15 -41l-352 -422q188 -5 310 -127.5t122 -306.5v-11q-1 -116 -62.5 -214t-166 -155t-226.5 -57q-104 0 -197 36t-154.5 110.5t-61.5 171.5z" />
<glyph unicode="4" horiz-adv-x="1110" d="M63 403q0 9 11 37l497 906q16 28 47 28q21 0 38.5 -15.5t17.5 -37.5q0 -9 -8 -29l-459 -833h432v129q0 23 16 40t39 17t38.5 -16.5t15.5 -40.5v-129h206q23 0 38.5 -16.5t15.5 -39.5t-15.5 -38t-38.5 -15h-206v-239h202q23 0 38.5 -17t15.5 -41q0 -22 -15.5 -37.5 t-38.5 -15.5h-563q-23 0 -39 15.5t-16 37.5q0 24 16 41t39 17h252v239h-522q-21 0 -37.5 15t-16.5 38z" />
<glyph unicode="5" horiz-adv-x="1064" d="M76 311q0 50 36.5 85.5t86.5 35.5t83 -35.5t33 -87.5q0 -44 -27.5 -75t-70.5 -39q46 -50 127.5 -81.5t159.5 -31.5q159 0 267.5 106t109.5 265q0 140 -93 233q-105 105 -268 105q-174 0 -270 -80q-13 -13 -35 -13q-24 0 -38.5 17.5t-14.5 44.5l47 551q3 23 19.5 36 t41.5 13h578q23 0 38 -16t15 -39t-17 -39.5t-40 -16.5h-529l-36 -405q90 49 241 49q217 0 348 -131q119 -122 119 -311q0 -204 -139 -339t-344 -135q-99 0 -190 37.5t-156 102.5q-82 82 -82 194z" />
<glyph unicode="6" horiz-adv-x="1067" d="M76 449q1 124 23 231t54 180t80.5 139t90 105t96.5 82q74 58 160 100.5t133.5 57.5t85.5 22q14 4 20 4q17 0 33 -15.5t16 -41.5q0 -18 -13 -32.5t-34 -18.5q-26 -6 -56.5 -15t-83.5 -30.5t-102 -49.5t-107 -74t-104.5 -100t-88 -132t-64.5 -167q59 73 145 118.5t177 45.5 q124 0 228.5 -59t165 -160.5t60.5 -220.5q0 -183 -132.5 -312t-321.5 -129q-124 0 -228 56t-168.5 165t-64.5 251zM186 418q0 -138 104 -237t247 -99q142 0 244 99t102 237t-102 238t-244 100q-143 0 -247 -100t-104 -238z" />
<glyph unicode="7" horiz-adv-x="1007" d="M76 1100v205q0 23 16 39t41 16h756q20 0 37.5 -16.5t17.5 -38.5q0 -7 -4 -23l-530 -1264q-6 -15 -20.5 -24.5t-29.5 -9.5q-22 0 -37.5 17t-15.5 40q0 15 4 25l498 1185h-623v-151q0 -23 -16 -38t-39 -15t-39 15t-16 38z" />
<glyph unicode="8" horiz-adv-x="1103" d="M76 377q0 125 70.5 217.5t193.5 134.5q-93 44 -146 122t-53 177q0 152 117.5 254t294.5 102q175 0 292.5 -102t117.5 -254q0 -100 -53.5 -177.5t-147.5 -121.5q123 -42 193.5 -134.5t70.5 -217.5q0 -177 -132 -288.5t-341 -111.5q-210 0 -343.5 111.5t-133.5 288.5z M186 377q0 -73 31.5 -131t84 -93t117 -53t134.5 -18t134.5 18t117 53t84 93t31.5 131q0 94 -56 161.5t-137.5 97.5t-173.5 30t-173.5 -30t-137.5 -97.5t-56 -161.5zM250 1028q0 -104 87 -175t216 -71t215 70.5t86 175.5q0 108 -85.5 181t-215.5 73t-216.5 -73t-86.5 -181z " />
<glyph unicode="9" horiz-adv-x="1038" d="M76 967q0 170 131 295q129 120 313 120q185 0 314 -131.5t129 -318.5q0 -137 -31.5 -262.5t-84 -219.5t-108.5 -162t-116 -116q-167 -131 -367 -180q-19 -2 -23 -2q-23 0 -40 12.5t-17 38.5q0 19 11.5 35t31.5 20q26 6 57.5 15.5t85.5 32t104 52t108.5 78t105.5 106 t87.5 140t61.5 176.5q-58 -65 -137.5 -103t-171.5 -38q-182 0 -311.5 120.5t-132.5 291.5zM186 967q0 -126 98 -217t236 -91q137 0 234.5 92t97.5 220q0 125 -98.5 217t-233.5 92q-134 0 -241 -100q-93 -84 -93 -213z" />
<glyph unicode=":" horiz-adv-x="434" d="M76 115q0 59 41.5 100t99.5 41q59 0 100 -40.5t41 -100.5q0 -57 -41.5 -97.5t-99.5 -40.5q-57 0 -99 40.5t-42 97.5zM76 782q0 58 42 100t99 42q58 0 99.5 -41.5t41.5 -100.5q0 -57 -41.5 -98t-99.5 -41q-57 0 -99 41t-42 98z" />
<glyph unicode=";" horiz-adv-x="434" d="M76 782q0 58 42 100t99 42q58 0 99.5 -41.5t41.5 -100.5q0 -57 -41.5 -98t-99.5 -41q-57 0 -99 41t-42 98zM82 111q0 55 40 95t95 40t95 -40t40 -95q0 -31 -12 -58l-2 -2q-2 -6 -10 -18l-172 -289l-31 10l63 226q-46 8 -76 45t-30 86z" />
<glyph unicode="&#x3c;" horiz-adv-x="1011" d="M76 522q0 35 28 51l748 410q20 10 41.5 4.5t32.5 -24.5q12 -22 5.5 -43.5t-26.5 -30.5l-665 -367l665 -364q20 -11 26.5 -32.5t-5.5 -41.5q-16 -29 -47 -29q-11 0 -27 8l-748 410q-28 16 -28 49z" />
<glyph unicode="=" horiz-adv-x="1124" d="M102 336q0 23 15.5 39t38.5 16h811q23 0 39 -16t16 -39q0 -22 -16 -38.5t-39 -16.5h-811q-23 0 -38.5 16.5t-15.5 38.5zM102 653q0 23 15.5 39.5t38.5 16.5h811q23 0 39 -16.5t16 -39.5t-16 -39t-39 -16h-811q-23 0 -38.5 16t-15.5 39z" />
<glyph unicode="&#x3e;" horiz-adv-x="1011" d="M79.5 126q6.5 22 26.5 32l664 364l-664 367q-20 9 -26.5 30.5t4.5 43.5q12 19 33.5 24.5t40.5 -4.5l747 -410q29 -16 29 -51q0 -33 -29 -49l-747 -410q-12 -8 -25 -8q-33 0 -49 29q-11 20 -4.5 42z" />
<glyph unicode="?" horiz-adv-x="1044" d="M76 1178q0 77 51 147q52 72 146.5 113t205.5 41q212 0 350 -125.5t138 -319.5q0 -168 -123 -294t-309 -152v-168q0 -23 -16.5 -40.5t-39.5 -17.5q-22 0 -38.5 17.5t-16.5 40.5v217q0 20 15 34.5t36 16.5q161 7 272 108t111 238q0 150 -107 249t-272 99 q-77 0 -147.5 -31.5t-116.5 -90.5q46 -6 76.5 -40.5t30.5 -80.5q0 -50 -35 -85.5t-84 -35.5q-40 0 -72.5 25t-44.5 63q-10 38 -10 72zM338 115q0 60 40 100.5t97 40.5q60 0 100.5 -40.5t40.5 -100.5q0 -57 -40.5 -97.5t-100.5 -40.5q-57 0 -97 40.5t-40 97.5z" />
<glyph unicode="@" horiz-adv-x="1894" d="M55 479q0 190 67.5 357t194.5 288q118 115 274.5 175.5t330.5 60.5q164 0 301 -68t229 -196q123 -170 123 -387q0 -61 -17.5 -138t-53 -156.5t-83 -146t-114 -109t-138.5 -42.5q-63 0 -105.5 41.5t-51.5 111.5q-118 -145 -267 -145q-134 0 -220.5 103.5t-86.5 244.5 q0 37 6 78q29 170 150.5 287.5t269.5 117.5q69 0 131 -31.5t92 -86.5q1 -2 13 -25l14 82q3 22 17 34.5t36 12.5h11q43 -9 43 -53q0 -2 -95 -559q-20 -87 25 -103q3 0 8 -1t8 -1q62 0 119.5 50.5t95.5 125t61 157.5t23 151q0 180 -104 323q-78 106 -192 165.5t-248 59.5 q-93 0 -184.5 -23t-176 -66.5t-157 -111.5t-126 -152t-84 -193.5t-30.5 -231.5q0 -142 44 -260t113.5 -193t159 -127t177 -74t171.5 -22q129 0 247.5 33.5t207 89.5t153.5 124t101 143q15 30 51 30q5 0 23 -6q21 -10 27.5 -31.5t-1.5 -42.5q-44 -86 -118.5 -164.5t-176 -143 t-235.5 -102.5t-279 -38q-117 0 -228.5 32t-210.5 97.5t-173.5 157t-118 220t-43.5 277.5zM545 475q0 -93 54 -166.5t146 -79.5q88 0 161.5 58t112 144t38.5 175q0 59 -19.5 113.5t-65 94.5t-108.5 40q-106 0 -198 -95t-115 -227q-6 -27 -6 -57z" />
<glyph unicode="A" horiz-adv-x="1513" d="M8 53q0 24 16 41t39 17h136l508 1357q12 37 51 37q41 0 53 -37l504 -1357h137q23 0 38 -17t15 -41q0 -23 -15 -38t-38 -15h-459q-24 0 -40.5 15t-16.5 38t17 40.5t40 17.5h203l-147 399h-580l-150 -399h203q23 0 38 -17t15 -41q0 -23 -15 -38t-38 -15h-459q-23 0 -39 15 t-16 38zM510 618h498l-250 676z" />
<glyph unicode="B" horiz-adv-x="1374" d="M59 53q0 23 16 38t40 15h192v1264h-186q-23 0 -40.5 15.5t-17.5 37.5q0 23 17.5 39.5t40.5 16.5h655q157 0 276 -115.5t119 -273.5q0 -108 -62 -191.5t-163 -122.5q137 -38 211 -129.5t74 -236.5q0 -189 -128.5 -299.5t-340.5 -110.5h-647q-24 0 -40 15t-16 38zM414 106 h348q166 0 262 80.5t96 223.5q0 145 -92 225t-256 80h-358v-609zM414 823h366q113 0 198 79.5t85 187.5q0 112 -88 196t-199 84h-362v-547z" />
<glyph unicode="C" horiz-adv-x="1341" d="M113 739q0 341 164 553.5t423 212.5q109 0 209 -53.5t160 -148.5v122q0 23 16.5 38.5t38.5 15.5q23 0 39.5 -15.5t16.5 -38.5v-295v-2q0 -16 -9 -30.5t-24 -20.5q-22 -9 -43.5 -0.5t-28.5 29.5q-62 142 -158.5 219.5t-216.5 77.5q-99 0 -180.5 -40.5t-135.5 -107 t-91 -154t-53.5 -178.5t-16.5 -184q0 -185 65 -336t178 -236t251 -85q77 0 142 25t111.5 67.5t78 86.5t55.5 95q8 21 29 29t43 -2q20 -7 27 -29q3 -10 3 -20q0 -12 -4 -23q-72 -161 -198.5 -247.5t-286.5 -86.5q-170 0 -308 98t-217 272.5t-79 391.5z" />
<glyph unicode="D" horiz-adv-x="1384" d="M63 53q0 24 15.5 41t38.5 17h147v1259h-141q-23 0 -40 15.5t-17 37.5q0 23 17 39.5t40 16.5h442q340 0 527.5 -193.5t187.5 -546.5t-187.5 -546t-527.5 -193h-448q-23 0 -38.5 15t-15.5 38zM373 111h192q63 0 120.5 7t119.5 26t114 49.5t99 79.5t79.5 113t52 154 t19.5 199q0 310 -153.5 470.5t-450.5 160.5h-192v-1259z" />
<glyph unicode="E" horiz-adv-x="1323" d="M63 53q0 24 15.5 41t38.5 17h168v1259h-168q-23 0 -38.5 15.5t-15.5 37.5q0 23 15.5 39.5t38.5 16.5h956q23 0 38 -16t15 -40v-258q0 -23 -15 -39t-38 -16t-40 16t-17 39v205h-623v-549h379v140q0 23 16.5 38t40.5 15q22 0 38 -15t16 -38v-377q0 -23 -16 -40.5t-38 -17.5 q-23 0 -40 17.5t-17 40.5v131h-379v-604h686v258q0 23 16.5 39t39.5 16t38 -16t15 -39v-316v-10q-5 -19 -19.5 -31t-33.5 -12h-1018q-23 0 -38.5 15.5t-15.5 37.5z" />
<glyph unicode="F" horiz-adv-x="1247" d="M63 53q0 23 17.5 40.5t40.5 17.5h166v1259h-166q-24 0 -41 16t-17 39q0 22 17.5 38t40.5 16h995q22 0 37.5 -16t15.5 -38v-260q0 -23 -15.5 -39t-37.5 -16q-23 0 -40 16t-17 39v205h-666v-549h383v140q0 23 15.5 38t37.5 15q24 0 40 -15t16 -38v-377q0 -23 -16.5 -40.5 t-39.5 -17.5q-22 0 -37.5 17.5t-15.5 40.5v131h-383v-604h365q23 0 38 -17t15 -41q0 -22 -15 -37.5t-38 -15.5h-637q-23 0 -40.5 15.5t-17.5 37.5z" />
<glyph unicode="G" horiz-adv-x="1384" d="M104 739q0 342 161 554t419 212q111 0 215.5 -53.5t167.5 -148.5v122q0 23 15 38.5t38 15.5q24 0 41 -15.5t17 -38.5v-295l-2 -2q2 -15 -7 -30t-24 -21q-22 -9 -43.5 -0.5t-28.5 29.5q-64 141 -166.5 219t-222.5 78q-83 0 -154 -28t-121 -78t-88 -114t-61 -139.5 t-34 -151.5t-11 -153q0 -186 62 -336.5t172.5 -235.5t248.5 -85q78 0 143 22t107 54.5t74.5 78t49.5 84.5t28 82v203h-219q-23 0 -38.5 15t-15.5 38t15.5 39.5t38.5 16.5h403q23 0 40 -16.5t17 -39.5t-16.5 -38t-40.5 -15h-76v-565q0 -23 -15 -38t-38 -15t-39 15t-16 38v133 q-53 -86 -153 -141.5t-249 -55.5q-168 0 -304 98t-213 272.5t-77 391.5z" />
<glyph unicode="H" horiz-adv-x="1515" d="M63 53q0 23 16.5 40.5t37.5 17.5h139v1259h-131q-23 0 -38 15.5t-15 37.5q0 24 15 40t38 16h397q23 0 38 -16t15 -40q0 -22 -15 -37.5t-38 -15.5h-160v-551h775v551h-152q-23 0 -38 15.5t-15 37.5q0 24 15 40t38 16h397q23 0 38.5 -16.5t15.5 -39.5q0 -22 -15.5 -37.5 t-38.5 -15.5h-139v-1259h148q20 0 36.5 -17.5t16.5 -40.5t-16 -38t-37 -15h-414q-21 0 -37 15t-16 38t16.5 40.5t36.5 17.5h160v598h-775v-598h168q23 0 38.5 -17t15.5 -41q0 -23 -15.5 -38t-38.5 -15h-413q-21 0 -37.5 15.5t-16.5 37.5z" />
<glyph unicode="I" horiz-adv-x="802" d="M63 53q0 23 16.5 40.5t37.5 17.5h235v1259h-235q-21 0 -37.5 16t-16.5 39q0 21 16.5 37.5t37.5 16.5h588q23 0 39 -16t16 -38q0 -23 -16 -39t-39 -16h-242v-1259h242q23 0 39 -17t16 -41q0 -23 -16 -38t-39 -15h-588q-21 0 -37.5 15.5t-16.5 37.5z" />
<glyph unicode="J" horiz-adv-x="1013" d="M-31 301v4q2 48 37 81.5t84 33.5t83 -36.5t34 -86.5q0 -45 -29 -77.5t-72 -37.5l7 -14q35 -37 104 -62.5t154 -25.5q31 0 58.5 3.5t60 15t58.5 30t51.5 51.5t42.5 77t27.5 108.5t10.5 144.5v860h-401q-23 0 -38.5 16t-15.5 39q0 22 15.5 38t38.5 16h657q23 0 40 -16 t17 -38q0 -23 -17 -39t-40 -16h-145v-860q0 -533 -420 -533q-209 0 -326 117q-40 40 -61 96q-16 44 -16 87q0 12 1 24z" />
<glyph unicode="K" d="M63 53q0 24 15.5 41t38.5 17h174v1259h-174q-23 0 -38.5 16t-15.5 39q0 22 15.5 38t38.5 16h231q22 0 37.5 -16t15.5 -38v-720l543 665h-158q-23 0 -39 15.5t-16 37.5q0 23 16 39.5t39 16.5h437q23 0 40 -16.5t17 -39.5q0 -22 -17 -37.5t-40 -15.5h-138l-456 -559 l583 -700h168q23 0 38.5 -17t15.5 -41q0 -23 -15.5 -38t-38.5 -15h-438q-23 0 -38 15t-15 38q0 24 15 41t38 17h131l-512 614l-160 -193v-421h174q23 0 38.5 -17t15.5 -41q0 -23 -15.5 -38t-38.5 -15h-458q-23 0 -38.5 15t-15.5 38z" />
<glyph unicode="L" horiz-adv-x="1196" d="M63 53q0 24 15.5 41t38.5 17h164v1259h-164q-23 0 -38.5 16t-15.5 39q0 22 15.5 38t38.5 16h469q23 0 38 -16t15 -38q0 -23 -15 -39t-38 -16h-197v-1259h645v292q0 22 16 39t37 17q23 0 40.5 -17t17.5 -39v-350q0 -23 -17 -38t-41 -15h-970q-23 0 -38.5 15t-15.5 38z" />
<glyph unicode="M" horiz-adv-x="1841" d="M76 53q0 23 17 40.5t40 17.5h156v1259h-144q-23 0 -38 15.5t-15 37.5q0 24 15 40t38 16h279q33 0 45 -31l444 -942q443 944 443 946q15 27 45 27h270q23 0 40.5 -16.5t17.5 -39.5q0 -22 -17.5 -37.5t-40.5 -15.5h-135v-1259h156q23 0 40 -17.5t17 -40.5t-16.5 -38 t-40.5 -15h-463q-24 0 -41 15t-17 38t17.5 40.5t40.5 17.5h198v1232l-462 -981q-18 -36 -52 -36q-37 0 -53 36l-463 981v-1232h199q23 0 40 -17.5t17 -40.5t-16.5 -38t-40.5 -15h-463q-24 0 -40.5 15t-16.5 38z" />
<glyph unicode="N" horiz-adv-x="1482" d="M76 53q0 24 16 41t39 17h156v1259h-142q-23 0 -39 15.5t-16 37.5q0 23 16 39.5t39 16.5h279q28 0 45 -31l680 -1194v1116h-176q-24 0 -41 16t-17 39q0 22 17.5 38t40.5 16h465q22 0 38.5 -16t16.5 -38q0 -23 -16.5 -39t-38.5 -16h-181v-1319q0 -23 -16 -40t-39 -17 q-19 0 -33 14q-7 3 -20 21l-752 1325v-1243h199q23 0 38 -17t15 -41q0 -23 -15 -38t-38 -15h-465q-23 0 -39 15t-16 38z" />
<glyph unicode="O" d="M113 739q0 218 76.5 393.5t212 274t305.5 98.5q127 0 240 -60t192 -171q77 -105 119 -243.5t42 -291.5q0 -222 -75.5 -395.5t-210.5 -270t-307 -96.5q-131 0 -244 59.5t-195 170.5q-155 215 -155 532zM223 739q0 -288 135.5 -472.5t348.5 -184.5q219 0 350 188 q133 180 133 469q0 280 -137 471q-140 193 -346 193q-139 0 -250 -86t-172.5 -237.5t-61.5 -340.5z" />
<glyph unicode="P" horiz-adv-x="1277" d="M63 53q0 23 16.5 40.5t37.5 17.5h184v1259h-180q-23 0 -40.5 15.5t-17.5 37.5q0 23 17.5 39.5t40.5 16.5h639q194 0 317 -113t123 -291q0 -175 -125.5 -291t-314.5 -116h-348v-557h303q23 0 39 -17t16 -41q0 -23 -16 -38t-39 -15h-598q-21 0 -37.5 15.5t-16.5 37.5z M412 778h348q142 0 236 84.5t94 212.5q0 132 -91 213.5t-239 81.5h-348v-592z" />
<glyph unicode="Q" horiz-adv-x="1443" d="M115 739q0 163 45 305.5t123.5 243.5t189 159t236.5 58q128 0 240.5 -59.5t191.5 -171.5q77 -105 119.5 -244t42.5 -291q0 -182 -51.5 -332t-145.5 -253l117 -125q15 -18 15 -41.5t-17 -38.5q-15 -12 -35 -12q-28 0 -41 16l-119 127q-136 -103 -317 -103 q-131 0 -244 59.5t-195 170.5q-155 220 -155 532zM225 739q0 -288 135.5 -472.5t348.5 -184.5q133 0 243 80l-118 125q-15 18 -13 39t17 36q17 15 38.5 15t36.5 -17l119 -124q20 20 27 34q133 180 133 469q0 284 -137 471q-140 193 -346 193q-138 0 -249 -86t-173 -238 t-62 -340z" />
<glyph unicode="R" horiz-adv-x="1415" d="M63 53q0 23 16.5 40.5t37.5 17.5h184v1259h-180q-23 0 -40.5 15.5t-17.5 37.5q0 23 17.5 39.5t40.5 16.5h610q195 0 317.5 -112.5t122.5 -291.5q0 -166 -115 -279.5t-290 -125.5l410 -559h163q23 0 39.5 -17.5t16.5 -40.5t-16 -38t-40 -15h-438q-23 0 -38 15t-15 38 q0 24 15 41t38 17h137l-405 557h-221v-557h190q23 0 38 -17t15 -41q0 -23 -15 -38t-38 -15h-485q-21 0 -37.5 15.5t-16.5 37.5zM412 778h319q143 0 237.5 85t94.5 212q0 132 -91.5 213.5t-240.5 81.5h-319v-592z" />
<glyph unicode="S" horiz-adv-x="1267" d="M115 45v363q0 21 15 37t36 16q2 2 8 2q19 0 34.5 -13t18.5 -32q6 -18 27 -53t63 -85t93.5 -93.5t125.5 -74t152 -30.5q65 0 118 16.5t86 41t58 58.5t37 64t19 63t8.5 49.5t1.5 28.5q0 115 -103.5 196.5t-298.5 121.5q-114 23 -201 62t-136.5 81t-80.5 93t-41 93t-10 85 q0 45 11.5 91.5t42 97.5t76.5 90.5t121 65t169 25.5q265 0 408 -223v160q0 23 16 38t39 15t39 -15t16 -38v-334q0 -22 -13.5 -37t-35.5 -16h-18q-28 3 -41 35q-3 12 -15 38.5t-45.5 76.5t-77 91.5t-116 73t-156.5 31.5q-82 0 -143 -24.5t-92 -57t-49.5 -75t-22.5 -68.5 t-4 -48q0 -107 99.5 -184.5t283.5 -114.5q121 -25 212.5 -67t142.5 -86t83 -96.5t41.5 -93.5t9.5 -83q0 -52 -12 -105.5t-43.5 -112.5t-79 -104t-126.5 -74.5t-177 -29.5q-88 0 -164 24t-132.5 67.5t-94.5 85.5t-74 96v-205q0 -23 -16 -38t-39 -15t-38 15t-15 38z" />
<glyph unicode="T" horiz-adv-x="1241" d="M63 1090v333q0 23 15.5 39.5t38.5 16.5h999q23 0 36 -16t13 -40v-333q0 -23 -16.5 -38.5t-38.5 -15.5q-23 0 -39 15.5t-16 38.5v280h-387v-1259h254q23 0 38 -17t15 -41q0 -23 -15 -38t-38 -15h-607q-24 0 -40.5 15t-16.5 38t17 40.5t40 17.5h246v1259h-389v-280 q0 -23 -16 -38.5t-39 -15.5t-38.5 15.5t-15.5 38.5z" />
<glyph unicode="U" horiz-adv-x="1310" d="M-23 1423q0 23 16 39.5t38 16.5h391q22 0 37.5 -16.5t15.5 -39.5q0 -22 -15.5 -37.5t-37.5 -15.5h-141v-878q0 -168 113 -289t272 -121t273 121t114 289v878h-131q-23 0 -38.5 15.5t-15.5 37.5q0 23 15.5 39.5t38.5 16.5h378q22 0 37 -16.5t15 -39.5q0 -22 -15 -37.5 t-37 -15.5h-139v-878q0 -140 -66 -258.5t-180 -187.5t-249 -69q-134 0 -247.5 69t-180 187.5t-66.5 258.5v878h-141q-22 0 -38 15.5t-16 37.5z" />
<glyph unicode="V" horiz-adv-x="1495" d="M-10 1425q0 22 16 38t39 16h444q23 0 39.5 -16t16.5 -38q0 -23 -16.5 -39t-39.5 -16h-213l441 -1184l434 1184h-205q-23 0 -39 16t-16 39q0 22 16 38t39 16h445q23 0 39 -16t16 -38q0 -23 -16 -39t-39 -16h-117l-504 -1352q0 -2 -1 -4.5t-1 -3.5q-6 -16 -21 -26 q-11 -7 -24 -8q-4 0 -8 1q-42 0 -51 35l-506 1358h-113q-23 0 -39 16t-16 39z" />
<glyph unicode="W" horiz-adv-x="1783" d="M-12 1423q0 23 15.5 39.5t37.5 16.5h465q23 0 40 -16.5t17 -39.5q0 -22 -17 -37.5t-40 -15.5h-230l228 -1130l313 948q11 43 53 43q21 0 35.5 -13.5t18.5 -29.5l307 -944l225 1126h-229q-23 0 -39.5 15.5t-16.5 37.5q0 23 16.5 39.5t39.5 16.5h465q23 0 38 -16t15 -40 q0 -22 -15 -37.5t-38 -15.5h-123l-269 -1337q-10 -54 -53 -56q-39 0 -55 31l-322 993l-329 -993q-12 -31 -56 -31q-42 0 -53 56l-268 1337h-123q-22 0 -37.5 15.5t-15.5 37.5z" />
<glyph unicode="X" horiz-adv-x="1366" d="M4 53q0 23 16.5 40.5t38.5 17.5h140l413 651l-383 608h-133q-23 0 -38 15.5t-15 37.5q0 24 15 40t38 16h389q23 0 40.5 -16.5t17.5 -39.5q0 -22 -17.5 -37.5t-40.5 -15.5h-127l318 -502l317 502h-110q-23 0 -39.5 15.5t-16.5 37.5q0 23 16.5 39.5t39.5 16.5h389 q23 0 38 -16t15 -40q0 -22 -15 -37.5t-38 -15.5h-148l-383 -608l414 -651h150q23 0 40 -17.5t17 -40.5t-16.5 -38t-40.5 -15h-402q-23 0 -39 15t-16 38q0 24 16 41t39 17h123l-350 548l-348 -548h135q23 0 38 -17t15 -41q0 -23 -15 -38t-38 -15h-404q-22 0 -38.5 15 t-16.5 38z" />
<glyph unicode="Y" horiz-adv-x="1304" d="M-6 1425q0 22 16 38t39 16h395q23 0 39.5 -16t16.5 -38q0 -23 -16.5 -39t-39.5 -16h-157l381 -733l374 733h-161q-22 0 -38 16t-16 39q0 22 16 38t38 16h397q23 0 39 -16t16 -38q0 -23 -16 -39t-39 -16h-113l-440 -860v-399h248q23 0 38 -17t15 -41q0 -22 -15 -37.5 t-38 -15.5h-606q-23 0 -39.5 15.5t-16.5 37.5q0 23 16.5 40.5t39.5 17.5h247v395l-450 864h-115q-23 0 -39 16t-16 39z" />
<glyph unicode="Z" horiz-adv-x="1222" d="M91 42q-1 5 -1 11q0 17 10 31l863 1286h-750v-280q0 -23 -16 -38.5t-39 -15.5t-38.5 15.5t-15.5 38.5v335q0 22 15.5 38t38.5 16h905q20 0 31 -11q19 -12 23 -34t-9 -41l-860 -1282h776v292q0 23 15.5 40.5t37.5 17.5q23 0 40.5 -17.5t17.5 -40.5v-350q0 -22 -17.5 -37.5 t-40.5 -15.5h-923h-11q-16 0 -20 4h-2q-2 0 -4.5 2t-3.5 2q-18 12 -22 34z" />
<glyph unicode="[" horiz-adv-x="749" d="M115 -354v1943h493q24 0 40 -15t16 -38t-16.5 -40t-39.5 -17h-385v-1725h393q24 0 41 -15t17 -38t-17 -39t-41 -16h-501z" />
<glyph unicode="\" horiz-adv-x="1052" d="M63 1516q-8 22 0 42t29 29q22 9 43.5 1t28.5 -29l817 -1831q9 -20 1 -41t-30 -31q-8 -4 -22 -4q-15 0 -29 9t-20 24z" />
<glyph unicode="]" horiz-adv-x="749" d="M76 -299q0 23 16.5 38t38.5 15h393v1725h-383q-23 0 -40 17t-17 40t16.5 38t40.5 15h494v-1943h-504q-22 0 -38.5 16t-16.5 39z" />
<glyph unicode="^" horiz-adv-x="768" d="M104 1505l193 289q6 9 18 21q19 24 58 28h4h6h8h2q41 -4 60 -28q7 -5 12 -15l199 -295q9 -22 -7 -32q-13 -16 -32 -5l-242 213l-240 -213q-7 -5 -17.5 -3.5t-14.5 8.5q-16 10 -7 32z" />
<glyph unicode="_" horiz-adv-x="1884" d="M102 29q0 23 16 38t40 15h1566q24 0 40 -15t16 -38t-16.5 -39.5t-39.5 -16.5h-1566q-23 0 -39.5 16.5t-16.5 39.5z" />
<glyph unicode="`" horiz-adv-x="581" d="M102 1772.5q0 41.5 29 70.5q28 29 68 29t69 -29q12 -11 13 -16l198 -293q4 -8 3 -18.5t-7 -16.5q-17 -17 -35 -2l-295 193q-2 2 -7 6t-7 6q-29 29 -29 70.5z" />
<glyph unicode="a" horiz-adv-x="1146" d="M86 270q0 51 13 93.5t33 73.5t53 55t63 39.5t73.5 26.5t74.5 16t76 8t67.5 3.5t58.5 0.5h190v43q0 146 -61.5 214t-194.5 68q-53 0 -105.5 -9.5t-88 -22.5t-65.5 -28t-43 -23.5t-15 -10.5q-17 -13 -40.5 -9.5t-37.5 21.5q-11 18 -7 41t22 35q4 4 20 14.5t52 28t78.5 32.5 t104.5 26.5t125 11.5q363 0 363 -389v-518h178q23 0 39 -17t16 -41q0 -22 -16 -37.5t-39 -15.5h-231q-23 0 -38.5 15.5t-15.5 37.5v78q-60 -74 -151.5 -114t-187.5 -40q-58 0 -103 11q-120 26 -190 102t-70 180zM195 270q0 -45 20.5 -80t52.5 -54t55.5 -28.5t45.5 -13.5 q38 -9 79 -9q40 1 84 9q88 16 162 68.5t94 128.5v192h-194q-197 0 -298 -46.5t-101 -166.5z" />
<glyph unicode="b" horiz-adv-x="1241" d="M25 1425q0 22 17 38t40 16h227q23 0 40.5 -16t17.5 -38v-624q55 102 145 159.5t205 57.5q123 0 227.5 -69t165.5 -188.5t61 -260.5q0 -143 -61 -263.5t-165.5 -190t-227.5 -69.5q-114 0 -204.5 59t-145.5 163v-146q0 -22 -17.5 -37.5t-40.5 -15.5h-168q-23 0 -39 15.5 t-16 37.5q0 24 16 41t39 17h115v1259h-174q-23 0 -40 16t-17 39zM367 502q0 -169 104 -294.5t246 -125.5q144 0 246 123t102 295q0 169 -102 291t-246 122q-146 0 -248 -121t-102 -290z" />
<glyph unicode="c" horiz-adv-x="1015" d="M92 502q0 217 137 366.5t336 149.5q69 0 135.5 -19.5t120 -54t85.5 -88.5q30 -51 30 -112v-7q0 -48 -35 -83.5t-84 -35.5q-50 0 -85.5 35.5t-35.5 83.5q0 44 27.5 76.5t69.5 40.5q-69 61 -228 61q-153 0 -259.5 -120.5t-106.5 -292.5q0 -171 107.5 -295.5t258.5 -124.5 q93 0 175.5 50.5t133.5 137.5q12 20 34 26.5t44 -5.5q18 -13 24 -35q2 -8 2 -14q0 -14 -7 -27q-67 -112 -175 -175t-231 -63q-128 0 -237 70.5t-172.5 191.5t-63.5 263z" />
<glyph unicode="d" horiz-adv-x="1165" d="M96 500q0 141 61.5 260.5t167 188.5t230.5 69q113 0 204 -57.5t146 -159.5v569h-200q-23 0 -39.5 16t-16.5 39q0 22 16.5 38t39.5 16h256q23 0 39 -16t16 -38v-1314h114q22 0 39 -17.5t17 -40.5q0 -21 -17 -37t-39 -16h-169q-22 0 -39 16t-17 37v146q-55 -104 -146 -163 t-204 -59q-125 0 -230.5 69.5t-167 190t-61.5 263.5zM207 500q0 -172 102 -295t246 -123q142 0 246 125.5t104 294.5t-102.5 290t-247.5 121q-144 0 -246 -122t-102 -291z" />
<glyph unicode="e" horiz-adv-x="1089" d="M86 500q0 141 63.5 260.5t173 188.5t238.5 69q181 0 308 -136t139 -347v-3q0 -23 -16.5 -40t-39.5 -17h-757q8 -163 114 -278t252 -115q92 0 173 50t134 138q11 20 32.5 26.5t41.5 -5.5q18 -10 24 -32t-3 -42q-67 -114 -173 -177t-229 -63q-129 0 -238.5 69.5t-173 190 t-63.5 263.5zM203 586h688q-23 147 -114 238t-216 91q-129 0 -230.5 -94t-127.5 -235z" />
<glyph unicode="f" horiz-adv-x="1062" d="M49 53q0 24 15 41t38 17h213v774h-213q-23 0 -38 16t-15 39t15 39t38 16h213v60q0 92 14 168t37.5 130.5t57.5 96.5t71 67.5t81.5 42t86.5 23t87 6.5q181 0 286 -114q75 -78 75 -184q0 -11 -1 -23v-4q-1 -47 -36.5 -81t-82.5 -34q-50 0 -84.5 35t-34.5 86q0 47 33 82.5 t80 38.5q-1 2 -5 5.5t-5 6.5q-34 35 -96 59.5t-129 24.5q-49 0 -89 -8t-86 -35t-77.5 -72t-52.5 -126t-21 -191v-60h362q23 0 39.5 -16t16.5 -39t-16.5 -39t-39.5 -16h-362v-774h307q23 0 39 -17t16 -41q0 -22 -16 -37.5t-39 -15.5h-629q-23 0 -38 15.5t-15 37.5z" />
<glyph unicode="g" horiz-adv-x="1259" d="M23 -182q0 139 155 227q-76 69 -76 170q0 132 142 199q-80 104 -80 225q0 158 118.5 268.5t284.5 110.5q128 0 226 -64q36 68 97.5 107t141.5 39q70 0 128.5 -29t90.5 -86q24 -41 24 -83q0 -8 -1 -17v-2q-2 -48 -36 -81.5t-83 -33.5q-51 0 -86 35t-35 86q0 34 20 63 t52 43q-29 13 -62 13q-49 0 -96.5 -37t-64.5 -92q90 -104 90 -240q0 -155 -119.5 -265t-286.5 -110q-145 0 -258 86q-102 -60 -102 -135q0 -35 16 -61t38.5 -37.5t44.5 -18t38 -7.5l16 -1h474q164 0 256 -69.5t92 -192.5q0 -27 -4.5 -53.5t-19.5 -63t-39.5 -68.5t-69.5 -64 t-104 -55t-148.5 -37.5t-198.5 -14.5q-107 0 -194.5 14t-146 36.5t-103 54t-68.5 62.5t-39 66.5t-19.5 61t-4.5 51.5zM131 -182q0 -61 36 -106.5t87.5 -70t120 -40t120.5 -19.5t103 -4q50 0 97.5 4t104.5 13t104 27.5t86.5 45t62 67.5t22.5 93q0 45 -21.5 77t-58.5 48.5 t-76.5 23.5t-84.5 7h-420q-104 0 -154 8q-50 -20 -89.5 -66t-39.5 -108zM274 639q0 -115 93 -195q88 -75 200 -75q121 0 208 80t87 190q0 113 -87 194.5t-208 81.5q-122 0 -207.5 -81.5t-85.5 -194.5z" />
<glyph unicode="h" horiz-adv-x="1349" d="M51 53q0 24 16 41t39 17h175v1259h-175q-23 0 -39 15t-16 38t16 39.5t39 16.5h230q23 0 39 -16t16 -38v-565q39 58 99 95t117 50t118 13q184 0 291.5 -100t107.5 -271v-536h174q23 0 39.5 -17.5t16.5 -40.5q0 -22 -16.5 -37.5t-39.5 -15.5h-458q-23 0 -38.5 15.5 t-15.5 37.5q0 24 15.5 41t38.5 17h174v536q0 125 -76 196.5t-213 71.5q-142 0 -238 -86t-96 -186v-532h174q23 0 38 -17t15 -41q0 -22 -15 -37.5t-38 -15.5h-459q-23 0 -39 15.5t-16 37.5z" />
<glyph unicode="i" horiz-adv-x="833" d="M59 53q0 24 15.5 41t38.5 17h268v774h-264q-23 0 -39.5 17t-16.5 40q0 22 16.5 37.5t39.5 15.5h321q21 0 37.5 -16t16.5 -37v-831h260q23 0 39 -17t16 -41q0 -22 -16 -37.5t-39 -15.5h-639q-23 0 -38.5 15.5t-15.5 37.5zM285 1339q0 57 40 98.5t97 41.5q59 0 100 -41 t41 -99q0 -59 -40.5 -100t-100.5 -41q-57 0 -97 41t-40 100z" />
<glyph unicode="j" horiz-adv-x="667" d="M-293 -223q3 47 38.5 80.5t82.5 33.5q51 0 85 -35.5t34 -86.5q0 -45 -29.5 -77t-71.5 -38q0 -6 4 -14q65 -68 216 -68q46 0 84.5 8t82.5 35t74.5 72t51 126.5t20.5 190.5v881h-307q-23 0 -38.5 16.5t-15.5 40.5q0 22 15.5 37.5t38.5 15.5h360q23 0 40 -15.5t17 -37.5 v-938q0 -534 -423 -534q-100 0 -172.5 29t-108.5 69q-40 40 -61 96q-18 47 -18 93q0 9 1 18v2zM279 1339q0 57 41.5 98.5t99.5 41.5q57 0 99 -41.5t42 -98.5q0 -58 -42 -99.5t-99 -41.5q-58 0 -99.5 41t-41.5 100z" />
<glyph unicode="k" horiz-adv-x="1329" d="M51 53q0 24 15 41t38 17h175v1259h-175q-23 0 -38 16t-15 39q0 22 15 38t38 16h232q20 0 36.5 -16.5t16.5 -37.5v-1034l442 494h-151q-23 0 -39 17t-16 40q0 22 16 37.5t39 15.5h438q22 0 37.5 -15.5t15.5 -37.5q0 -23 -15.5 -40t-37.5 -17h-141l-266 -297l403 -477h174 q23 0 38 -17t15 -41q0 -22 -15 -37.5t-38 -15.5h-356q-23 0 -38 15.5t-15 37.5q0 24 15 41t38 17h39l-334 395l-248 -279v-116h174q23 0 39 -17t16 -41q0 -22 -16 -37.5t-39 -15.5h-459q-23 0 -38 15.5t-15 37.5z" />
<glyph unicode="l" horiz-adv-x="798" d="M72 53q0 24 15 41t38 17h258v1259h-231q-24 0 -41 16t-17 39q0 22 17.5 38t40.5 16h288q22 0 38 -16t16 -38v-1314h262q23 0 38 -17t15 -41q0 -22 -15 -37.5t-38 -15.5h-631q-23 0 -38 15.5t-15 37.5z" />
<glyph unicode="m" horiz-adv-x="1765" d="M51 53q0 24 16 41t39 17h175v774h-164q-23 0 -39.5 17t-16.5 40q0 22 16.5 37.5t39.5 15.5h219q23 0 39 -15.5t16 -37.5v-72q98 148 258 148q228 0 293 -178q46 82 118.5 130t162.5 48q154 0 238.5 -85.5t84.5 -244.5v-577h146q23 0 38 -17t15 -41q0 -23 -15 -38t-38 -15 h-203q-21 0 -36.5 15t-16.5 38v635q0 115 -52.5 170t-160.5 55q-109 0 -183.5 -96.5t-74.5 -228.5v-477h141q23 0 39 -17t16 -41q0 -22 -16 -37.5t-39 -15.5h-389q-23 0 -38 15.5t-15 37.5q0 24 15 41t38 17h141v577q0 115 -51 170t-158 55q-110 0 -184 -96.5t-74 -228.5 v-477h139q23 0 39.5 -17.5t16.5 -40.5q0 -22 -16.5 -37.5t-39.5 -15.5h-424q-23 0 -39 15.5t-16 37.5z" />
<glyph unicode="n" horiz-adv-x="1302" d="M49 942q0 22 15.5 37.5t37.5 15.5h230q23 0 39 -15.5t16 -37.5v-104q109 180 348 180q161 0 262 -108t101 -281v-518h164q22 0 37.5 -17.5t15.5 -40.5q0 -22 -15.5 -37.5t-37.5 -15.5h-435q-23 0 -40 15.5t-17 37.5q0 23 17 40.5t40 17.5h160v518q0 75 -22.5 132t-60 89 t-80.5 47.5t-89 15.5q-68 0 -127.5 -21.5t-110.5 -65.5t-80.5 -121.5t-29.5 -180.5v-413h164q23 0 38 -17t15 -41q0 -22 -15 -37.5t-38 -15.5h-447q-23 0 -38 15.5t-15 37.5q0 24 15 41t38 17h175v774h-177q-22 0 -37.5 17t-15.5 40z" />
<glyph unicode="o" horiz-adv-x="1159" d="M96 500q0 141 64.5 260.5t175.5 188.5t242 69t243 -69t178 -188.5t66 -260.5t-66 -261.5t-178 -191t-243 -70.5t-242 70.5t-175.5 191t-64.5 261.5zM207 500q0 -172 108 -295t263 -123q156 0 266 123t110 295q0 170 -110 292.5t-266 122.5q-153 0 -262 -123t-109 -292z " />
<glyph unicode="p" horiz-adv-x="1294" d="M51 -446q0 23 16 39t39 16h183v1276h-185q-22 0 -37.5 16.5t-15.5 38.5q0 23 15.5 39t37.5 16h242q21 0 37 -16t16 -39v-141q55 102 146.5 160.5t204.5 58.5q190 0 324 -151.5t134 -366.5q0 -143 -61 -263.5t-166.5 -190t-230.5 -69.5q-113 0 -204.5 58.5t-146.5 159.5 v-586h203q23 0 38 -16t15 -39q0 -24 -15 -40t-38 -16h-496q-23 0 -39 16.5t-16 39.5zM399 494q0 -169 103 -288.5t248 -119.5t246.5 121t101.5 293q0 170 -102 292.5t-246 122.5q-92 0 -173.5 -58t-129.5 -155.5t-48 -207.5z" />
<glyph unicode="q" horiz-adv-x="1218" d="M96 500q0 141 61.5 260.5t166.5 188.5t229 69q114 0 204.5 -58t147.5 -161v143q0 22 16.5 37.5t39.5 15.5h153q21 0 37 -16t16 -37q0 -23 -16 -40t-37 -17h-100v-1276h96q23 0 39 -16t16 -39t-16 -39.5t-39 -16.5h-494q-23 0 -39 16.5t-16 39.5t16 39t39 16h289v586 q-57 -102 -147.5 -160t-204.5 -58q-189 0 -323 152.5t-134 370.5zM205 500q0 -172 101.5 -293t246.5 -121q146 0 249 119.5t103 288.5q0 111 -47.5 208t-129 155t-175.5 58q-144 0 -246 -122.5t-102 -292.5z" />
<glyph unicode="r" horiz-adv-x="1046" d="M49 942q0 22 16 37.5t39 15.5h54h174q23 0 40 -15.5t17 -37.5v-57v-72q42 90 135 147.5t207 57.5q74 0 138 -20.5t110.5 -71t46.5 -123.5q0 -64 -35.5 -104t-89.5 -40t-88.5 31.5t-34.5 81.5q0 39 23 71.5t59 41.5q-43 35 -145 35q-120 0 -218 -109.5t-108 -280.5v-419 h197q22 0 37.5 -17.5t15.5 -40.5q0 -22 -15.5 -37.5t-37.5 -15.5h-482q-22 0 -37.5 15.5t-15.5 37.5q0 23 15.5 40.5t37.5 17.5h175v774h-175q-23 0 -39 17t-16 40z" />
<glyph unicode="s" horiz-adv-x="1114" d="M125 39v278q0 56 59 56q39 0 52 -41q11 -29 25.5 -57t46.5 -67t70.5 -67t100.5 -48.5t135 -20.5q69 0 121.5 18.5t81.5 48.5t43 64t14 71q0 30 -10 55t-23.5 42t-40 31.5t-48 23t-60 17t-62.5 12.5t-69 10q-12 2 -54.5 9.5t-61.5 11.5t-49.5 11.5t-53.5 16.5 q-170 63 -170 234q0 123 98 196q109 74 312 74q113 0 205 -32.5t143 -92.5q31 -31 31 -80t-36 -84t-87 -35t-86 34.5t-35 84.5q0 48 31 82q-81 31 -162 31q-132 0 -209 -45q-88 -51 -88 -125q0 -100 94 -140q48 -20 192 -43q194 -23 283 -69q137 -67 137 -225 q0 -141 -102 -218q-97 -84 -279 -84q-77 0 -142 15.5t-109 42t-71.5 51t-47.5 51.5v-98q0 -25 -18 -42t-42 -17q-25 0 -42 16.5t-17 42.5z" />
<glyph unicode="t" horiz-adv-x="970" d="M25 940q0 23 16.5 39t38.5 16h176v457q0 23 15 38t38 15t38 -15t15 -38v-457h435q23 0 38 -16t15 -39t-15 -39t-38 -16h-435v-539q0 -107 78 -185.5t185 -78.5q63 0 121.5 33t95.5 88q16 22 43 22q21 0 39 -15.5t18 -37.5q0 -18 -10 -31q-53 -77 -134 -120.5t-173 -43.5 q-152 0 -260.5 108.5t-108.5 260.5v539h-176q-22 0 -38.5 16t-16.5 39z" />
<glyph unicode="u" horiz-adv-x="1298" d="M61 940q0 23 15.5 39t38.5 16h196q23 0 39.5 -15.5t16.5 -37.5v-575q0 -75 22.5 -132t59.5 -89.5t80 -48t89 -15.5q68 0 128.5 21.5t111 65.5t80 121.5t29.5 180.5v414h-146q-22 0 -37.5 16.5t-15.5 38.5q0 23 15.5 39t37.5 16h201q23 0 39 -15.5t16 -37.5v-831h142 q22 0 37.5 -17.5t15.5 -40.5t-15.5 -38t-37.5 -15h-197q-23 0 -37.5 14.5t-17.5 38.5v103q-56 -91 -147.5 -135t-201.5 -44q-159 0 -260.5 108.5t-101.5 281.5v518h-141q-23 0 -38.5 16.5t-15.5 38.5z" />
<glyph unicode="v" horiz-adv-x="1310" d="M33 942q0 22 15 37.5t38 15.5h406q23 0 38 -15.5t15 -37.5q0 -24 -15 -40.5t-38 -16.5h-175l342 -727l345 727h-175q-23 0 -38 16.5t-15 40.5q0 22 15 37.5t38 15.5h404q22 0 38.5 -15.5t16.5 -37.5q0 -23 -16.5 -40t-38.5 -17h-109l-415 -877q-6 -14 -20 -22.5t-30 -8.5 h-2q-33 0 -49 31l-411 877h-111q-23 0 -38 16.5t-15 40.5z" />
<glyph unicode="w" horiz-adv-x="1538" d="M0 940q0 23 16 39t39 16h404q23 0 39 -16t16 -39q0 -22 -16 -38.5t-39 -16.5h-174l188 -670l252 739q5 17 18.5 28t32.5 11q17 0 32 -11t21 -28l250 -739l191 670h-172q-22 0 -38 16.5t-16 38.5q0 23 16 39t38 16h405q23 0 38 -16t15 -39q0 -22 -15 -38.5t-38 -16.5h-121 l-245 -871q-13 -37 -54 -37q-18 0 -32 10t-19 25l-256 758l-254 -758q-15 -27 -39 -32q-3 -3 -8 -3h-2h-4q-19 0 -33.5 10t-17.5 27l-250 871h-113q-23 0 -39 16.5t-16 38.5z" />
<glyph unicode="x" horiz-adv-x="1220" d="M35 53q0 24 16 41t39 17h107l340 415l-289 359h-113q-23 0 -38 16.5t-15 38.5q0 23 15 39t38 16h336q23 0 38 -16t15 -39q0 -22 -15 -38.5t-38 -16.5h-82l219 -271l221 271h-84q-22 0 -38.5 16.5t-16.5 38.5q0 23 16.5 39t38.5 16h334q24 0 41 -16t17 -39 q0 -22 -17.5 -38.5t-40.5 -16.5h-108l-293 -359l340 -415h110q22 0 38 -17.5t16 -40.5t-16 -38t-38 -15h-370q-22 0 -37.5 15t-15.5 38t15.5 40.5t37.5 17.5h121l-271 331l-270 -331h121q23 0 39 -17t16 -41q0 -23 -16 -38t-39 -15h-369q-23 0 -39 15t-16 38z" />
<glyph unicode="y" horiz-adv-x="1243" d="M0 942q0 22 15.5 37.5t37.5 15.5h406q23 0 38 -15.5t15 -37.5q0 -24 -15 -40.5t-38 -16.5h-172l348 -750q223 515 321 750h-178q-22 0 -37.5 17t-15.5 40q0 22 15.5 37.5t37.5 15.5h404q23 0 39 -15.5t16 -37.5q0 -23 -16 -40t-39 -17h-107q-454 -1064 -563 -1284 q-29 -60 -91 -95.5t-134 -35.5q-108 0 -185 75.5t-77 182.5q0 48 18 88q14 34 44 54.5t67 20.5q49 0 82.5 -35.5t33.5 -86.5q0 -50 -35 -83.5t-90 -33.5q23 -32 63 -55t79 -23q41 0 76.5 21t50.5 55q11 19 51.5 107t74.5 167l35 78l-409 883h-113q-22 0 -37.5 17t-15.5 40z " />
<glyph unicode="z" horiz-adv-x="1036" d="M86 55q0 17 14 35l666 795h-547v-97q0 -23 -16 -38t-39 -15q-22 0 -37.5 15t-15.5 38v154q0 22 15.5 37.5t37.5 15.5h715q22 0 36 -14q19 -19 19 -45q0 -21 -12 -33l-664 -797h590v168q0 23 15.5 39.5t37.5 16.5q23 0 39 -16.5t16 -39.5v-221q0 -23 -16 -38t-39 -15h-754 h-12q-21 4 -29 12q-20 20 -20 43z" />
<glyph unicode="{" horiz-adv-x="888" d="M115 614v4q0 23 17 39.5t40 16.5h84q57 0 105.5 47.5t48.5 105.5q0 27 -3.5 53t-13.5 59.5t-16.5 54t-23 66t-23.5 64.5q-2 6 -13.5 35.5t-16 42t-11.5 37t-10 45t-3 41.5q0 109 76.5 193t200.5 84q68 0 142 -21t124 -63q15 -15 16 -38t-14 -38q-15 -18 -37 -19.5 t-39 13.5q-32 27 -86.5 42t-105.5 15q-57 0 -97.5 -29t-56.5 -65.5t-16 -73.5q0 -23 7 -48t22 -64.5t20 -53.5q4 -11 17 -44.5t18 -48t15.5 -44.5t15.5 -49.5t11 -46.5t8.5 -51t2.5 -48q0 -70 -38.5 -125.5t-102.5 -85.5q64 -30 102.5 -86.5t38.5 -126.5q0 -30 -4 -60.5 t-16 -72t-18 -60t-26 -73.5t-24 -65q-4 -11 -15 -37.5t-17 -43t-11.5 -40.5t-5.5 -43q0 -25 9.5 -53t29 -55t53.5 -44.5t78 -17.5q121 0 195 59q17 15 38.5 13t36.5 -21q14 -17 12.5 -39t-18.5 -37q-103 -84 -264 -84q-124 0 -200.5 85t-76.5 194q0 25 6 53.5t11 45t19 54.5 t18 50q3 7 24.5 62.5t29 79t17 68.5t9.5 82q0 59 -48 106.5t-106 47.5h-88q-21 0 -37 17t-16 40z" />
<glyph unicode="|" horiz-adv-x="471" d="M178 -299v1833q0 20 17.5 36.5t40.5 16.5q21 0 37 -16t16 -37v-1833q0 -22 -15.5 -38.5t-37.5 -16.5q-23 0 -40.5 16.5t-17.5 38.5z" />
<glyph unicode="}" horiz-adv-x="874" d="M52.5 -250q-2.5 22 10.5 39q15 19 37 21t41 -13q71 -59 195 -59q44 0 78 17.5t52.5 44.5t28 54.5t9.5 53.5q0 19 -5.5 43t-11.5 40.5t-17 43t-15 37.5q-4 12 -17 48t-18 50.5t-15.5 45.5t-15 49.5t-10.5 44.5t-8 48.5t-2 44.5q0 70 38.5 126.5t102.5 86.5 q-64 30 -102.5 85.5t-38.5 125.5q0 33 4.5 66t16 73.5t18 61t25 71t22.5 60.5q5 14 20 53.5t22 64.5t7 48q0 61 -42.5 114.5t-125.5 53.5q-51 0 -107 -15t-86 -42q-17 -15 -39.5 -13.5t-37.5 19.5q-15 15 -13 38t17 38q50 42 124 63t142 21q124 0 200 -83.5t76 -193.5 q0 -12 -1 -24t-3.5 -25t-4 -22t-6.5 -23.5t-7 -21.5t-8 -22.5t-8 -20.5t-9 -22t-8 -20q-5 -15 -19.5 -54.5t-19.5 -55t-15 -47t-13.5 -50t-7 -43.5t-3.5 -47q0 -58 47.5 -105.5t106.5 -47.5h84q23 0 39 -16.5t16 -39.5v-4q0 -23 -15.5 -40t-37.5 -17h-86q-59 0 -106.5 -47 t-47.5 -107q0 -30 4.5 -61t15 -65.5t17 -55t22 -60t19.5 -50.5q4 -10 13.5 -34.5t13 -35.5t10.5 -31.5t10 -34.5t5.5 -32t2.5 -35q0 -109 -76 -194t-200 -85q-161 0 -264 84q-17 15 -19.5 37z" />
<glyph unicode="~" horiz-adv-x="839" d="M102 455q13 58 54 97.5t100 53.5q57 12 113.5 -8t91.5 -66l4 -6q15 -18 40 -25t50 -1q28 4 47 22.5t25 44.5q6 23 25.5 35t41.5 6q23 -4 34.5 -22.5t6.5 -42.5q-14 -56 -56.5 -97.5t-100.5 -54.5q-28 -4 -43 -4q-46 0 -88.5 20t-69.5 56l-6 8q-36 39 -92 29 q-26 -6 -45 -25t-27 -45q-6 -24 -24.5 -35.5t-41.5 -5.5q-22 6 -33.5 24.5t-5.5 41.5z" />
<glyph unicode="&#xa1;" horiz-adv-x="485" d="M102 1339q0 57 41.5 97.5t98.5 40.5q58 0 99.5 -40.5t41.5 -97.5q0 -60 -41 -100.5t-100 -40.5q-58 0 -99 41t-41 100zM127 92l92 963h47l92 -963q0 -48 -33.5 -81.5t-82.5 -33.5q-47 0 -81 34t-34 81z" />
<glyph unicode="&#xa2;" horiz-adv-x="1089" d="M102 502q0 191 109.5 333.5t277.5 176.5v291q0 22 16.5 37.5t39.5 15.5q22 0 37.5 -15.5t15.5 -37.5v-285q66 -2 128.5 -22.5t112.5 -55.5t79.5 -88t27.5 -115q0 -48 -35 -83.5t-84 -35.5q-50 0 -85 35.5t-35 83.5q0 44 27 76.5t69 40.5q-70 58 -205 61v-833 q87 6 162 55.5t125 132.5q12 20 34 26.5t44 -5.5q18 -12 23.5 -34.5t-5.5 -41.5q-66 -108 -167 -171t-216 -67v-276q0 -22 -15.5 -38.5t-37.5 -16.5q-23 0 -39.5 16.5t-16.5 38.5v287q-167 32 -277 177.5t-110 336.5zM209 502q0 -145 79 -258.5t201 -149.5v809 q-122 -32 -201 -144t-79 -257z" />
<glyph unicode="&#xa3;" horiz-adv-x="1302" d="M102 55q0 24 15.5 41t38.5 17h139q3 5 8.5 15t20 42t25 66t19.5 86.5t9 105.5q0 129 -47 309h-174q-22 0 -38 15.5t-16 38.5t16 40t38 17h139q-47 143 -47 268q0 142 62.5 255t170.5 175t240 62q69 0 135.5 -19.5t120.5 -54.5t86 -89.5t31 -119.5q0 -47 -36 -82t-85 -35 q-51 0 -86 34.5t-35 82.5q0 44 27.5 78t70.5 41q-72 61 -229 61q-155 0 -260 -109.5t-105 -279.5q0 -99 52 -268h378q23 0 38.5 -16.5t15.5 -40.5q0 -23 -15.5 -38.5t-38.5 -15.5h-344q52 -162 52 -309q0 -84 -18.5 -162.5t-37.5 -115.5l-18 -37h670v299q0 23 16 38t39 15 t39 -15t16 -38v-357q0 -23 -16 -39t-39 -16h-989q-23 0 -38.5 16t-15.5 39z" />
<glyph unicode="&#xa5;" horiz-adv-x="1390" d="M25 1425q0 22 16 38t39 16h395q23 0 39 -16t16 -38q0 -23 -16 -39t-39 -16h-158l381 -733l375 733h-162q-22 0 -37.5 16t-15.5 39q0 22 15.5 38t37.5 16h398q23 0 39 -16t16 -38q0 -23 -16 -39t-39 -16h-113l-305 -592h217q23 0 38 -16.5t15 -40.5q0 -23 -15 -38t-38 -15 h-274l-54 -105h328q23 0 38 -16.5t15 -40.5q0 -21 -15 -37t-38 -16h-352v-342h248q23 0 38 -17t15 -41q0 -22 -15 -37.5t-38 -15.5h-607q-23 0 -39 15.5t-16 37.5q0 24 16 41t39 17h248v342h-348q-23 0 -38 16t-15 37q0 24 15 40.5t38 16.5h317l-53 105h-264q-23 0 -38 15 t-15 38q0 24 15 40.5t38 16.5h205l-307 592h-115q-23 0 -39 16t-16 39z" />
<glyph unicode="&#xa8;" horiz-adv-x="870" d="M102 1702q0 51 35 86t86 35q48 0 82.5 -35t34.5 -86q0 -47 -35 -82t-82 -35q-51 0 -86 34.5t-35 82.5zM530 1702q0 51 34 86t83 35q51 0 85 -35t34 -86q0 -48 -34.5 -82.5t-84.5 -34.5q-49 0 -83 34.5t-34 82.5z" />
<glyph unicode="&#xa9;" horiz-adv-x="751" />
<glyph unicode="&#xad;" horiz-adv-x="919" d="M102 500q0 23 16 38t38 15h604q24 0 40.5 -15t16.5 -38t-17 -39.5t-40 -16.5h-604q-22 0 -38 16.5t-16 39.5z" />
<glyph unicode="&#xae;" horiz-adv-x="780" />
<glyph unicode="&#xb4;" horiz-adv-x="573" d="M87 1515.5q-1 10.5 5 18.5l197 293q1 3 6 8.5t6 7.5q29 29 69.5 29t69.5 -29t29 -70.5t-29 -70.5q-3 -2 -8 -6t-8 -6l-297 -193q-4 -6 -15 -5.5t-18 7.5q-6 6 -7 16.5z" />
<glyph unicode="&#xb7;" horiz-adv-x="432" d="M76 496q0 60 40 100.5t99 40.5q58 0 99.5 -41t41.5 -100q0 -57 -42 -97.5t-99 -40.5q-58 0 -98.5 40.5t-40.5 97.5z" />
<glyph unicode="&#xb8;" horiz-adv-x="2131" d="M743 -367q0 24 17 37q17 15 40 14.5t38 -18.5q33 -33 73 -33q38 0 66.5 30t28.5 69q0 40 -28 68t-67 28q-20 0 -28 -2q-23 -6 -46.5 9t-23.5 40v4v98q0 21 17 37.5t40 16.5t38.5 -16.5t15.5 -37.5v-38q82 -6 137 -65.5t55 -141.5q0 -85 -60 -145t-145 -60q-94 0 -153 65 q-15 17 -15 41z" />
<glyph unicode="&#xbc;" horiz-adv-x="3035" />
<glyph unicode="&#xbd;" horiz-adv-x="2994" />
<glyph unicode="&#xbe;" horiz-adv-x="3172" />
<glyph unicode="&#xbf;" horiz-adv-x="1044" d="M78 422q0 168 123 294t309 152v168q0 24 16 41t39 17q22 0 39 -17.5t17 -40.5v-217q0 -20 -15.5 -34.5t-36.5 -16.5q-161 -7 -272 -108t-111 -238q0 -150 107 -249t272 -99q76 0 147 31.5t117 91.5q-46 6 -76 40t-30 80q0 50 35 85.5t84 35.5q40 0 72 -25t44 -63 q11 -42 11 -71q0 -78 -51 -148q-52 -72 -147 -113t-206 -41q-212 0 -349.5 125.5t-137.5 319.5zM428 1341q0 57 40.5 97.5t100.5 40.5q57 0 97.5 -40.5t40.5 -97.5q0 -60 -40.5 -100.5t-97.5 -40.5q-60 0 -100.5 40.5t-40.5 100.5z" />
<glyph unicode="&#xc0;" horiz-adv-x="1513" d="M8 53q0 24 16 41t39 17h136l508 1357q12 37 51 37q41 0 53 -37l504 -1357h137q23 0 38 -17t15 -41q0 -23 -15 -38t-38 -15h-459q-24 0 -40.5 15t-16.5 38t17 40.5t40 17.5h203l-147 399h-580l-150 -399h203q23 0 38 -17t15 -41q0 -23 -15 -38t-38 -15h-459q-23 0 -39 15 t-16 38zM510 618h498l-250 676zM565 1772.5q0 41.5 29 70.5q28 29 68 29t69 -29q10 -10 12 -16l199 -293q4 -8 3 -18.5t-7 -16.5q-17 -17 -35 -2l-295 193q-2 2 -7 6t-7 6q-29 29 -29 70.5z" />
<glyph unicode="&#xc1;" horiz-adv-x="1513" d="M8 53q0 24 16 41t39 17h136l508 1357q12 37 51 37q41 0 53 -37l504 -1357h137q23 0 38 -17t15 -41q0 -23 -15 -38t-38 -15h-459q-24 0 -40.5 15t-16.5 38t17 40.5t40 17.5h203l-147 399h-580l-150 -399h203q23 0 38 -17t15 -41q0 -23 -15 -38t-38 -15h-459q-23 0 -39 15 t-16 38zM510 618h498l-250 676zM568 1515.5q-1 10.5 5 18.5l197 293q1 3 6 8.5t6 7.5q29 29 70 29t70 -29t29 -70.5t-29 -70.5q-3 -2 -8.5 -6t-8.5 -6l-297 -193q-4 -6 -15 -5.5t-18 7.5q-6 6 -7 16.5z" />
<glyph unicode="&#xc2;" horiz-adv-x="1513" d="M8 53q0 24 16 41t39 17h136l508 1357q12 37 51 37q41 0 53 -37l504 -1357h137q23 0 38 -17t15 -41q0 -23 -15 -38t-38 -15h-459q-24 0 -40.5 15t-16.5 38t17 40.5t40 17.5h203l-147 399h-580l-150 -399h203q23 0 38 -17t15 -41q0 -23 -15 -38t-38 -15h-459q-23 0 -39 15 t-16 38zM473 1493q0 4 4 12l193 289q33 49 86 49t86 -49l192 -289q4 -8 4 -12q0 -12 -8.5 -21.5t-19.5 -9.5t-19 8l-235 211l-236 -211q-8 -8 -18 -8q-11 0 -20 9.5t-9 21.5zM510 618h498l-250 676z" />
<glyph unicode="&#xc3;" horiz-adv-x="1513" d="M8 53q0 24 16 41t39 17h136l508 1357q12 37 51 37q41 0 53 -37l504 -1357h137q23 0 38 -17t15 -41q0 -23 -15 -38t-38 -15h-459q-24 0 -40.5 15t-16.5 38t17 40.5t40 17.5h203l-147 399h-580l-150 -399h203q23 0 38 -17t15 -41q0 -23 -15 -38t-38 -15h-459q-23 0 -39 15 t-16 38zM442 1661q15 58 56.5 97.5t99.5 53.5q59 11 114 -8.5t91 -64.5l2 -6q39 -39 92 -29q28 6 48 25t24 45q6 23 25 35t42 6q22 -6 33 -24.5t8 -41.5q-15 -58 -57 -100t-98 -52q-3 0 -20 -3t-25 -3q-95 0 -160 78l-6 8q-36 39 -90 27q-26 -4 -46 -23.5t-26 -44.5 q-4 -23 -24 -35t-42 -6q-23 4 -35 23.5t-6 42.5zM510 618h498l-250 676z" />
<glyph unicode="&#xc4;" horiz-adv-x="1513" d="M8 53q0 24 16 41t39 17h136l508 1357q12 37 51 37q41 0 53 -37l504 -1357h137q23 0 38 -17t15 -41q0 -23 -15 -38t-38 -15h-459q-24 0 -40.5 15t-16.5 38t17 40.5t40 17.5h203l-147 399h-580l-150 -399h203q23 0 38 -17t15 -41q0 -23 -15 -38t-38 -15h-459q-23 0 -39 15 t-16 38zM430 1702q0 51 35 86t86 35q48 0 82.5 -35t34.5 -86q0 -47 -35 -82t-82 -35q-51 0 -86 34.5t-35 82.5zM510 618h498l-250 676zM858 1702q0 51 34 86t83 35q51 0 85 -35t34 -86q0 -48 -34.5 -82.5t-84.5 -34.5q-49 0 -83 34.5t-34 82.5z" />
<glyph unicode="&#xc5;" horiz-adv-x="1513" d="M8 53q0 24 16 41t39 17h136l508 1357q12 37 51 37q41 0 53 -37l504 -1357h137q23 0 38 -17t15 -41q0 -23 -15 -38t-38 -15h-459q-24 0 -40.5 15t-16.5 38t17 40.5t40 17.5h203l-147 399h-580l-150 -399h203q23 0 38 -17t15 -41q0 -23 -15 -38t-38 -15h-459q-23 0 -39 15 t-16 38zM510 618h498l-250 676zM575 1741q0 74 54 127t129 53q74 0 127 -53.5t53 -126.5q0 -75 -53 -128.5t-127 -53.5q-75 0 -129 53.5t-54 128.5zM655 1741q0 -43 30 -73t73 -30q42 0 72 30t30 73q0 41 -30.5 71.5t-71.5 30.5q-42 0 -72.5 -30.5t-30.5 -71.5z" />
<glyph unicode="&#xc6;" horiz-adv-x="1953" d="M8 53q0 24 15 41t38 17h138l497 1341h2q19 27 50 27h952q23 0 39 -16t16 -38v-260q0 -23 -16 -39t-39 -16q-22 0 -37.5 16t-15.5 39v205h-625v-549h381v140q0 23 15 38t38 15q24 0 40.5 -15t16.5 -38v-377q0 -23 -16.5 -38.5t-40.5 -15.5q-23 0 -38 15.5t-15 38.5v131 h-381v-604h686v258q0 23 16 39t39 16q22 0 38 -16t16 -39v-316q0 -4 -2 -10q-1 -19 -16.5 -31t-35.5 -12h-536h-260q-23 0 -38.5 15.5t-15.5 37.5v457h-448l-148 -399h203q23 0 38 -17t15 -41q0 -22 -15 -37.5t-38 -15.5h-459q-23 0 -38 15.5t-15 37.5zM506 618h407v752 h-131z" />
<glyph unicode="&#xc7;" horiz-adv-x="1341" d="M113 739q0 225 75 400t208.5 270.5t303.5 95.5q111 0 209.5 -53t159.5 -149v122q0 23 16.5 38.5t40.5 15.5q23 0 38.5 -15.5t15.5 -38.5v-295v-2q0 -40 -33 -51q-22 -9 -42.5 -1t-29.5 30q-62 142 -158.5 219.5t-216.5 77.5q-99 0 -180.5 -40.5t-135.5 -107t-91 -154 t-53.5 -178.5t-16.5 -184q0 -185 65 -336t178 -236t251 -85q77 0 142.5 25t112 67.5t78 86.5t54.5 95q9 21 29.5 29t42.5 -2q20 -8 28 -29t-2 -43q-69 -153 -188 -239.5t-269 -94.5v-38q80 -6 137.5 -66t57.5 -141q0 -84 -62 -144.5t-147 -60.5q-94 0 -153 65q-15 18 -13 41 t17 37q17 15 39.5 14.5t37.5 -18.5q30 -33 72 -33q40 0 69 30t29 69q0 40 -28.5 68t-69.5 28q-16 0 -26 -2q-22 -6 -42 5t-26 34v2q0 4 -2 4v4v4v103q-111 18 -207.5 82.5t-166 163t-109 231t-39.5 280.5z" />
<glyph unicode="&#xc8;" horiz-adv-x="1323" d="M63 53q0 24 15.5 41t38.5 17h168v1259h-168q-23 0 -38.5 15.5t-15.5 37.5q0 23 15.5 39.5t38.5 16.5h956q23 0 38 -16t15 -40v-258q0 -23 -15 -39t-38 -16t-40 16t-17 39v205h-623v-549h379v140q0 23 16.5 38t40.5 15q22 0 38 -15t16 -38v-377q0 -23 -16 -40.5t-38 -17.5 q-23 0 -40 17.5t-17 40.5v131h-379v-604h686v258q0 23 16.5 39t39.5 16t38 -16t15 -39v-316v-10q-5 -19 -19.5 -31t-33.5 -12h-1018q-23 0 -38.5 15.5t-15.5 37.5zM434 1807.5q0 41.5 29 70.5q28 29 68 29t69 -29q10 -10 12 -16l199 -293q4 -8 3 -18.5t-7 -16.5 q-17 -17 -35 -2l-295 192q-2 2 -7 6.5t-7 6.5q-29 29 -29 70.5z" />
<glyph unicode="&#xc9;" horiz-adv-x="1323" d="M63 53q0 24 15.5 41t38.5 17h168v1259h-168q-23 0 -38.5 15.5t-15.5 37.5q0 23 15.5 39.5t38.5 16.5h956q23 0 38 -16t15 -40v-258q0 -23 -15 -39t-38 -16t-40 16t-17 39v205h-623v-549h379v140q0 23 16.5 38t40.5 15q22 0 38 -15t16 -38v-377q0 -23 -16 -40.5t-38 -17.5 q-23 0 -40 17.5t-17 40.5v131h-379v-604h686v258q0 23 16.5 39t39.5 16t38 -16t15 -39v-316v-10q-5 -19 -19.5 -31t-33.5 -12h-1018q-23 0 -38.5 15.5t-15.5 37.5zM435 1550.5q-1 10.5 5 18.5l197 293q1 3 6 8.5t6 7.5q29 29 69.5 29t69.5 -29t29 -70.5t-29 -70.5 q-3 -2 -8 -6.5t-8 -6.5l-297 -192q-4 -6 -15 -5.5t-18 7.5q-6 6 -7 16.5z" />
<glyph unicode="&#xca;" horiz-adv-x="1323" d="M63 53q0 24 15.5 41t38.5 17h168v1259h-168q-23 0 -38.5 15.5t-15.5 37.5q0 23 15.5 39.5t38.5 16.5h956q23 0 38 -16t15 -40v-258q0 -23 -15 -39t-38 -16t-40 16t-17 39v205h-623v-549h379v140q0 23 16.5 38t40.5 15q22 0 38 -15t16 -38v-377q0 -23 -16 -40.5t-38 -17.5 q-23 0 -40 17.5t-17 40.5v131h-379v-604h686v258q0 23 16.5 39t39.5 16t38 -16t15 -39v-316v-10q-5 -19 -19.5 -31t-33.5 -12h-1018q-23 0 -38.5 15.5t-15.5 37.5zM344 1563q0 4 4 12l193 289q33 49 86 49t86 -49l192 -289q4 -8 4 -12q0 -12 -8.5 -21.5t-19.5 -9.5t-19 8 l-235 211l-236 -211q-8 -8 -18 -8q-11 0 -20 9.5t-9 21.5z" />
<glyph unicode="&#xcb;" horiz-adv-x="1323" d="M63 53q0 24 15.5 41t38.5 17h168v1259h-168q-23 0 -38.5 15.5t-15.5 37.5q0 23 15.5 39.5t38.5 16.5h956q23 0 38 -16t15 -40v-258q0 -23 -15 -39t-38 -16t-40 16t-17 39v205h-623v-549h379v140q0 23 16.5 38t40.5 15q22 0 38 -15t16 -38v-377q0 -23 -16 -40.5t-38 -17.5 q-23 0 -40 17.5t-17 40.5v131h-379v-604h686v258q0 23 16.5 39t39.5 16t38 -16t15 -39v-316v-10q-5 -19 -19.5 -31t-33.5 -12h-1018q-23 0 -38.5 15.5t-15.5 37.5zM295 1737q0 51 35 86t86 35q48 0 82 -35t34 -86q0 -47 -34.5 -82t-81.5 -35q-51 0 -86 34.5t-35 82.5z M723 1737q0 51 34 86t83 35q51 0 84.5 -35t33.5 -86q0 -48 -34 -82.5t-84 -34.5q-49 0 -83 34.5t-34 82.5z" />
<glyph unicode="&#xcc;" horiz-adv-x="802" d="M63 53q0 23 16.5 40.5t37.5 17.5h235v1259h-235q-21 0 -37.5 16t-16.5 39q0 21 16.5 37.5t37.5 16.5h588q23 0 39 -16t16 -38q0 -23 -16 -39t-39 -16h-242v-1259h242q23 0 39 -17t16 -41q0 -23 -16 -38t-39 -15h-588q-21 0 -37.5 15.5t-16.5 37.5zM219 1807.5 q0 41.5 29 70.5q28 29 68 29t69 -29q10 -10 12 -16l199 -293q4 -8 3 -18.5t-7 -16.5q-17 -17 -35 -2l-295 192q-2 2 -7 6.5t-7 6.5q-29 29 -29 70.5z" />
<glyph unicode="&#xcd;" horiz-adv-x="802" d="M63 53q0 23 16.5 40.5t37.5 17.5h235v1259h-235q-21 0 -37.5 16t-16.5 39q0 21 16.5 37.5t37.5 16.5h588q23 0 39 -16t16 -38q0 -23 -16 -39t-39 -16h-242v-1259h242q23 0 39 -17t16 -41q0 -23 -16 -38t-39 -15h-588q-21 0 -37.5 15.5t-16.5 37.5zM220 1550.5 q-1 10.5 5 18.5l197 293q1 3 6 8.5t6 7.5q29 29 69.5 29t69.5 -29t29 -70.5t-29 -70.5q-3 -2 -8 -6.5t-8 -6.5l-297 -192q-4 -6 -15 -5.5t-18 7.5q-6 6 -7 16.5z" />
<glyph unicode="&#xce;" horiz-adv-x="802" d="M63 53q0 23 16.5 40.5t37.5 17.5h235v1259h-235q-21 0 -37.5 16t-16.5 39q0 21 16.5 37.5t37.5 16.5h588q23 0 39 -16t16 -38q0 -23 -16 -39t-39 -16h-242v-1259h242q23 0 39 -17t16 -41q0 -23 -16 -38t-39 -15h-588q-21 0 -37.5 15.5t-16.5 37.5zM129 1563q0 4 4 12 l193 289q33 49 86 49t86 -49l192 -289q4 -8 4 -12q0 -12 -8.5 -21.5t-19.5 -9.5t-19 8l-235 211l-236 -211q-8 -8 -18 -8q-11 0 -20 9.5t-9 21.5z" />
<glyph unicode="&#xcf;" horiz-adv-x="802" d="M63 53q0 23 16.5 40.5t37.5 17.5h235v1259h-235q-21 0 -37.5 16t-16.5 39q0 21 16.5 37.5t37.5 16.5h588q23 0 39 -16t16 -38q0 -23 -16 -39t-39 -16h-242v-1259h242q23 0 39 -17t16 -41q0 -23 -16 -38t-39 -15h-588q-21 0 -37.5 15.5t-16.5 37.5zM80 1737q0 51 35 86 t86 35q48 0 82 -35t34 -86q0 -47 -34.5 -82t-81.5 -35q-51 0 -86 34.5t-35 82.5zM508 1737q0 51 34 86t83 35q51 0 84.5 -35t33.5 -86q0 -48 -34 -82.5t-84 -34.5q-49 0 -83 34.5t-34 82.5z" />
<glyph unicode="&#xd0;" horiz-adv-x="1384" d="M63 53q0 23 16.5 40.5t37.5 17.5h147v774h-147q-21 0 -37.5 17t-16.5 40q0 21 16.5 37t37.5 16h147v375h-141q-23 0 -38 16t-15 39q0 22 15 38t38 16h442q342 0 528.5 -193t186.5 -547q0 -353 -186 -546t-529 -193h-448q-21 0 -37.5 16t-16.5 37zM373 111h192 q63 0 120.5 7t120 26t114.5 49.5t99.5 79.5t80 113t52 154t19.5 199q0 309 -154 470t-452 161h-192v-375h266q23 0 40 -15.5t17 -37.5q0 -23 -17 -40t-40 -17h-266v-774z" />
<glyph unicode="&#xd1;" horiz-adv-x="1548" d="M78 53q0 24 16 41t39 17h156v1259h-142q-23 0 -39 15.5t-16 37.5q0 23 16 39.5t39 16.5h279q28 0 45 -31l680 -1194v1116h-176q-23 0 -40 16t-17 39q0 22 17 38t40 16h465q22 0 38.5 -16t16.5 -38q0 -23 -16.5 -39t-38.5 -16h-180v-1319q0 -23 -16.5 -40t-39.5 -17 q-19 0 -33 14q-7 3 -20 21l-752 1325v-1243h199q23 0 38 -17t15 -41q0 -23 -15 -38t-38 -15h-465q-23 0 -39 15t-16 38zM469 1661q15 58 56.5 97.5t99.5 53.5q59 11 113.5 -8.5t90.5 -64.5l2 -6q39 -39 93 -29q28 6 47.5 25t23.5 45q6 23 25.5 35t42.5 6q22 -6 33 -24.5 t8 -41.5q-15 -58 -57.5 -100t-98.5 -52q-3 0 -20 -3t-25 -3q-95 0 -160 78l-6 8q-36 39 -90 27q-26 -4 -46 -23.5t-26 -44.5q-4 -23 -23.5 -35t-41.5 -6q-23 4 -35 23.5t-6 42.5z" />
<glyph unicode="&#xd2;" d="M113 739q0 -317 155 -532q82 -111 195 -170.5t244 -59.5q172 0 307 96.5t210.5 270t75.5 395.5q0 153 -42 291.5t-119 243.5q-79 111 -192 171t-240 60q-170 0 -305.5 -98.5t-212 -274t-76.5 -393.5zM223 739q0 189 61.5 340.5t172.5 237.5t250 86q206 0 346 -193 q137 -191 137 -471q0 -289 -133 -469q-131 -188 -350 -188q-213 0 -348.5 184.5t-135.5 472.5zM514 1807.5q0 41.5 29 70.5q28 29 68 29t69 -29q10 -10 12 -16l199 -293q4 -8 3 -18.5t-7 -16.5q-17 -17 -35 -2l-295 192q-2 2 -7 6.5t-7 6.5q-29 29 -29 70.5z" />
<glyph unicode="&#xd3;" d="M113 739q0 -317 155 -532q82 -111 195 -170.5t244 -59.5q172 0 307 96.5t210.5 270t75.5 395.5q0 153 -42 291.5t-119 243.5q-79 111 -192 171t-240 60q-170 0 -305.5 -98.5t-212 -274t-76.5 -393.5zM223 739q0 189 61.5 340.5t172.5 237.5t250 86q206 0 346 -193 q137 -191 137 -471q0 -289 -133 -469q-131 -188 -350 -188q-213 0 -348.5 184.5t-135.5 472.5zM515 1550.5q-1 10.5 5 18.5l197 293q1 3 6 8.5t6 7.5q29 29 69.5 29t69.5 -29t29 -70.5t-29 -70.5q-3 -2 -8 -6.5t-8 -6.5l-297 -192q-4 -6 -15 -5.5t-18 7.5q-6 6 -7 16.5z" />
<glyph unicode="&#xd4;" d="M113 739q0 -317 155 -532q82 -111 195 -170.5t244 -59.5q172 0 307 96.5t210.5 270t75.5 395.5q0 153 -42 291.5t-119 243.5q-79 111 -192 171t-240 60q-170 0 -305.5 -98.5t-212 -274t-76.5 -393.5zM223 739q0 189 61.5 340.5t172.5 237.5t250 86q206 0 346 -193 q137 -191 137 -471q0 -289 -133 -469q-131 -188 -350 -188q-213 0 -348.5 184.5t-135.5 472.5zM422 1563q0 4 4 12l192 289q33 49 87 49q53 0 86 -49l192 -289q4 -8 4 -12q0 -12 -9 -21.5t-20 -9.5q-10 0 -18 8l-235 211l-236 -211q-8 -8 -18 -8q-11 0 -20 9.5t-9 21.5z" />
<glyph unicode="&#xd5;" d="M113 739q0 -317 155 -532q82 -111 195 -170.5t244 -59.5q172 0 307 96.5t210.5 270t75.5 395.5q0 153 -42 291.5t-119 243.5q-79 111 -192 171t-240 60q-170 0 -305.5 -98.5t-212 -274t-76.5 -393.5zM223 739q0 189 61.5 340.5t172.5 237.5t250 86q206 0 346 -193 q137 -191 137 -471q0 -289 -133 -469q-131 -188 -350 -188q-213 0 -348.5 184.5t-135.5 472.5zM391 1661q15 58 56.5 97.5t99.5 53.5q59 11 114 -8.5t91 -64.5l2 -6q39 -39 92 -29q28 6 48 25t24 45q6 23 25 35t42 6q22 -6 33 -24.5t8 -41.5q-15 -58 -57.5 -100t-98.5 -52 q-3 0 -20 -3t-25 -3q-94 0 -159 78l-7 8q-36 39 -90 27q-26 -4 -45.5 -23.5t-25.5 -44.5q-4 -23 -24 -35t-42 -6q-23 4 -35 23.5t-6 42.5z" />
<glyph unicode="&#xd6;" d="M113 739q0 -317 155 -532q82 -111 195 -170.5t244 -59.5q172 0 307 96.5t210.5 270t75.5 395.5q0 153 -42 291.5t-119 243.5q-79 111 -192 171t-240 60q-170 0 -305.5 -98.5t-212 -274t-76.5 -393.5zM223 739q0 189 61.5 340.5t172.5 237.5t250 86q206 0 346 -193 q137 -191 137 -471q0 -289 -133 -469q-131 -188 -350 -188q-213 0 -348.5 184.5t-135.5 472.5zM377 1737q0 51 35 86t86 35q48 0 82 -35t34 -86q0 -47 -34.5 -82t-81.5 -35q-51 0 -86 34.5t-35 82.5zM805 1737q0 51 34 86t83 35q51 0 84.5 -35t33.5 -86q0 -48 -34 -82.5 t-84 -34.5q-49 0 -83 34.5t-34 82.5z" />
<glyph unicode="&#xd7;" horiz-adv-x="868" d="M85 212q0 23 17 38l246 246l-248 249q-15 17 -15 39t17 39q15 15 37 15t39 -15l246 -248l250 248q17 15 39 15t39 -17q15 -15 15 -37t-15 -39l-248 -249l246 -246q17 -15 17 -38t-15 -38q-17 -17 -40 -17t-38 17l-250 246l-246 -246q-15 -17 -38 -17t-38 15 q-17 17 -17 40z" />
<glyph unicode="&#xd8;" d="M113 739q0 218 76 393t211.5 274t306.5 99q185 0 327 -121l60 103q4 12 16.5 15t24.5 -5q25 -14 12 -41l-68 -113q42 -42 60 -69q77 -104 118 -242.5t41 -292.5q0 -222 -75 -395.5t-209.5 -270t-306.5 -96.5q-184 0 -330 115l-58 -100q-15 -19 -28 -19q-1 0 -15 7 q-22 15 -10 40l64 113q-42 42 -64 74q-153 213 -153 532zM223 739q0 -159 41.5 -289t118.5 -217l598 1057q-126 113 -274 113q-139 0 -250 -86t-172.5 -237.5t-61.5 -340.5zM430 186q120 -104 277 -104q214 0 350 188q133 188 133 469q0 280 -137 471q-4 5 -14 16t-15 17z " />
<glyph unicode="&#xd9;" horiz-adv-x="1310" d="M-23 1423q0 23 16 39.5t38 16.5h391q22 0 37.5 -16.5t15.5 -39.5q0 -22 -15.5 -37.5t-37.5 -15.5h-141v-878q0 -168 113 -289t272 -121t273 121t114 289v878h-131q-23 0 -38.5 15.5t-15.5 37.5q0 23 15.5 39.5t38.5 16.5h378q22 0 37 -16.5t15 -39.5q0 -22 -15 -37.5 t-37 -15.5h-139v-878q0 -140 -66 -258.5t-180 -187.5t-249 -69q-134 0 -247.5 69t-180 187.5t-66.5 258.5v878h-141q-22 0 -38 15.5t-16 37.5zM475 1807.5q0 41.5 29 70.5q28 29 68 29t69 -29q10 -10 12 -16l199 -293q4 -8 3 -18.5t-7 -16.5q-17 -17 -35 -2l-295 192 q-2 2 -7 6.5t-7 6.5q-29 29 -29 70.5z" />
<glyph unicode="&#xda;" horiz-adv-x="1310" d="M-23 1423q0 23 16 39.5t38 16.5h391q22 0 37.5 -16.5t15.5 -39.5q0 -22 -15.5 -37.5t-37.5 -15.5h-141v-878q0 -168 113 -289t272 -121t273 121t114 289v878h-131q-23 0 -38.5 15.5t-15.5 37.5q0 23 15.5 39.5t38.5 16.5h378q22 0 37 -16.5t15 -39.5q0 -22 -15 -37.5 t-37 -15.5h-139v-878q0 -140 -66 -258.5t-180 -187.5t-249 -69q-134 0 -247.5 69t-180 187.5t-66.5 258.5v878h-141q-22 0 -38 15.5t-16 37.5zM476 1550.5q-1 10.5 5 18.5l197 293q1 3 6 8.5t6 7.5q29 29 69.5 29t69.5 -29t29 -70.5t-29 -70.5q-3 -2 -8 -6.5t-8 -6.5 l-297 -192q-4 -6 -15 -5.5t-18 7.5q-6 6 -7 16.5z" />
<glyph unicode="&#xdb;" horiz-adv-x="1310" d="M-23 1423q0 23 16 39.5t38 16.5h391q22 0 37.5 -16.5t15.5 -39.5q0 -22 -15.5 -37.5t-37.5 -15.5h-141v-878q0 -168 113 -289t272 -121t273 121t114 289v878h-131q-23 0 -38.5 15.5t-15.5 37.5q0 23 15.5 39.5t38.5 16.5h378q22 0 37 -16.5t15 -39.5q0 -22 -15 -37.5 t-37 -15.5h-139v-878q0 -140 -66 -258.5t-180 -187.5t-249 -69q-134 0 -247.5 69t-180 187.5t-66.5 258.5v878h-141q-22 0 -38 15.5t-16 37.5zM381 1563q0 4 4 12l193 289q33 49 86 49t86 -49l192 -289q4 -8 4 -12q0 -12 -8.5 -21.5t-19.5 -9.5t-19 8l-235 211l-236 -211 q-8 -8 -18 -8q-11 0 -20 9.5t-9 21.5z" />
<glyph unicode="&#xdc;" horiz-adv-x="1310" d="M-23 1423q0 23 16 39.5t38 16.5h391q22 0 37.5 -16.5t15.5 -39.5q0 -22 -15.5 -37.5t-37.5 -15.5h-141v-878q0 -168 113 -289t272 -121t273 121t114 289v878h-131q-23 0 -38.5 15.5t-15.5 37.5q0 23 15.5 39.5t38.5 16.5h378q22 0 37 -16.5t15 -39.5q0 -22 -15 -37.5 t-37 -15.5h-139v-878q0 -140 -66 -258.5t-180 -187.5t-249 -69q-134 0 -247.5 69t-180 187.5t-66.5 258.5v878h-141q-22 0 -38 15.5t-16 37.5zM330 1702q0 51 35 86t86 35q48 0 82 -35t34 -86q0 -47 -34.5 -82t-81.5 -35q-51 0 -86 34.5t-35 82.5zM758 1702q0 51 33.5 86 t82.5 35q51 0 85 -35t34 -86q0 -48 -34.5 -82.5t-84.5 -34.5q-49 0 -82.5 34.5t-33.5 82.5z" />
<glyph unicode="&#xdd;" horiz-adv-x="1304" d="M-6 1425q0 22 16 38t39 16h395q23 0 39.5 -16t16.5 -38q0 -23 -16.5 -39t-39.5 -16h-157l381 -733l374 733h-161q-22 0 -38 16t-16 39q0 22 16 38t38 16h397q23 0 39 -16t16 -38q0 -23 -16 -39t-39 -16h-113l-440 -860v-399h248q23 0 38 -17t15 -41q0 -22 -15 -37.5 t-38 -15.5h-606q-23 0 -39.5 15.5t-16.5 37.5q0 23 16.5 40.5t39.5 17.5h247v395l-450 864h-115q-23 0 -39 16t-16 39zM470 1550.5q-1 10.5 5 18.5l197 293q1 3 6 8.5t6 7.5q29 29 69.5 29t69.5 -29t29 -70.5t-29 -70.5q-3 -2 -8 -6.5t-8 -6.5l-297 -192q-4 -6 -15 -5.5 t-18 7.5q-6 6 -7 16.5z" />
<glyph unicode="&#xde;" horiz-adv-x="1277" d="M63 53q0 23 16.5 40.5t37.5 17.5h184v1259h-184q-21 0 -37.5 16t-16.5 39t16.5 38.5t37.5 15.5h598q23 0 39 -15.5t16 -38.5t-16 -39t-39 -16h-303v-184h348q193 0 316.5 -113.5t123.5 -292.5q0 -175 -125.5 -291t-314.5 -116h-348v-262h303q23 0 39 -17t16 -41 q0 -23 -16 -38t-39 -15h-598q-21 0 -37.5 15.5t-16.5 37.5zM412 483h348q142 0 236 85t94 212q0 132 -91 213.5t-239 81.5h-348v-592z" />
<glyph unicode="&#xe0;" horiz-adv-x="1146" d="M86 270q0 51 13 93.5t33 73.5t53 55t63 39.5t73.5 26.5t74.5 16t76 8t67.5 3.5t58.5 0.5h190v43q0 146 -61.5 214t-194.5 68q-53 0 -105.5 -9.5t-88 -22.5t-65.5 -28t-43 -23.5t-15 -10.5q-17 -13 -40.5 -9.5t-37.5 21.5q-11 18 -7 41t22 35q4 4 20 14.5t52 28t78.5 32.5 t104.5 26.5t125 11.5q363 0 363 -389v-518h178q23 0 39 -17t16 -41q0 -22 -16 -37.5t-39 -15.5h-231q-23 0 -38.5 15.5t-15.5 37.5v78q-60 -74 -151.5 -114t-187.5 -40q-58 0 -103 11q-120 26 -190 102t-70 180zM195 270q0 -45 20.5 -80t52.5 -54t55.5 -28.5t45.5 -13.5 q74 -17 162.5 -0.5t162.5 69t94 128.5v192h-194q-197 0 -298 -46.5t-101 -166.5zM350 1402q0 42 29 71q28 29 68 29t69 -29q10 -9 12 -17l199 -293q4 -8 3 -18.5t-7 -16.5q-17 -17 -35 -2l-295 193q-2 2 -7 6t-7 6q-29 29 -29 71z" />
<glyph unicode="&#xe1;" horiz-adv-x="1146" d="M86 270q0 51 13 93.5t33 73.5t53 55t63 39.5t73.5 26.5t74.5 16t76 8t67.5 3.5t58.5 0.5h190v43q0 146 -61.5 214t-194.5 68q-53 0 -105.5 -9.5t-88 -22.5t-65.5 -28t-43 -23.5t-15 -10.5q-17 -13 -40.5 -9.5t-37.5 21.5q-11 18 -7 41t22 35q4 4 20 14.5t52 28t78.5 32.5 t104.5 26.5t125 11.5q363 0 363 -389v-518h178q23 0 39 -17t16 -41q0 -22 -16 -37.5t-39 -15.5h-231q-23 0 -38.5 15.5t-15.5 37.5v78q-60 -74 -151.5 -114t-187.5 -40q-58 0 -103 11q-120 26 -190 102t-70 180zM195 270q0 -45 20.5 -80t52.5 -54t55.5 -28.5t45.5 -13.5 q74 -17 162.5 -0.5t162.5 69t94 128.5v192h-194q-197 0 -298 -46.5t-101 -166.5zM306 1146.5q-1 10.5 5 18.5l197 293q1 3 3 5.5t5 6t4 5.5q29 29 69.5 29t69.5 -29t29 -71t-29 -71q-3 -2 -8 -6t-8 -6l-297 -193q-4 -6 -15 -5.5t-18 7.5q-6 6 -7 16.5z" />
<glyph unicode="&#xe2;" horiz-adv-x="1146" d="M86 270q0 51 13 93.5t33 73.5t53 55t63 39.5t73.5 26.5t74.5 16t76 8t67.5 3.5t58.5 0.5h190v43q0 146 -61.5 214t-194.5 68q-53 0 -105.5 -9.5t-88 -22.5t-65.5 -28t-43 -23.5t-15 -10.5q-17 -13 -40.5 -9.5t-37.5 21.5q-11 18 -7 41t22 35q4 4 20 14.5t52 28t78.5 32.5 t104.5 26.5t125 11.5q363 0 363 -389v-518h178q23 0 39 -17t16 -41q0 -22 -16 -37.5t-39 -15.5h-231q-23 0 -38.5 15.5t-15.5 37.5v78q-60 -74 -151.5 -114t-187.5 -40q-58 0 -103 11q-120 26 -190 102t-70 180zM195 270q0 -45 20.5 -80t52.5 -54t55.5 -28.5t45.5 -13.5 q74 -17 162.5 -0.5t162.5 69t94 128.5v192h-194q-197 0 -298 -46.5t-101 -166.5zM236 1153q0 4 4 12l192 289q33 49 86 49t86 -49l193 -289q4 -8 4 -12q0 -12 -9 -21.5t-20 -9.5q-10 0 -18 8l-236 211l-235 -211q-8 -8 -19 -8t-19.5 9.5t-8.5 21.5z" />
<glyph unicode="&#xe3;" horiz-adv-x="1146" d="M86 270q0 51 13 93.5t33 73.5t53 55t63 39.5t73.5 26.5t74.5 16t76 8t67.5 3.5t58.5 0.5h190v43q0 146 -61.5 214t-194.5 68q-53 0 -105.5 -9.5t-88 -22.5t-65.5 -28t-43 -23.5t-15 -10.5q-17 -13 -40.5 -9.5t-37.5 21.5q-11 18 -7 41t22 35q4 4 20 14.5t52 28t78.5 32.5 t104.5 26.5t125 11.5q363 0 363 -389v-518h178q23 0 39 -17t16 -41q0 -22 -16 -37.5t-39 -15.5h-231q-23 0 -38.5 15.5t-15.5 37.5v78q-60 -74 -151.5 -114t-187.5 -40q-58 0 -103 11q-120 26 -190 102t-70 180zM193 1243q15 58 56.5 98t98.5 54q59 11 113.5 -9t91.5 -65 l2 -6q39 -39 92 -29q28 6 48 25t24 45q6 23 25 35t42 6q22 -6 33 -24.5t8 -41.5q-15 -58 -57 -99.5t-98 -51.5q-3 0 -20 -3t-25 -3q-96 0 -160 77l-6 9q-35 38 -90 26q-26 -4 -46 -23t-26 -44q-4 -23 -24 -35t-42 -6q-23 4 -34.5 23t-5.5 42zM195 270q0 -45 20.5 -80 t52.5 -54t55.5 -28.5t45.5 -13.5q74 -17 162.5 -0.5t162.5 69t94 128.5v192h-194q-197 0 -298 -46.5t-101 -166.5z" />
<glyph unicode="&#xe4;" horiz-adv-x="1146" d="M86 270q0 51 13 93.5t33 73.5t53 55t63 39.5t73.5 26.5t74.5 16t76 8t67.5 3.5t58.5 0.5h190v43q0 146 -61.5 214t-194.5 68q-53 0 -105.5 -9.5t-88 -22.5t-65.5 -28t-43 -23.5t-15 -10.5q-17 -13 -40.5 -9.5t-37.5 21.5q-11 18 -7 41t22 35q4 4 20 14.5t52 28t78.5 32.5 t104.5 26.5t125 11.5q363 0 363 -389v-518h178q23 0 39 -17t16 -41q0 -22 -16 -37.5t-39 -15.5h-231q-23 0 -38.5 15.5t-15.5 37.5v78q-60 -74 -151.5 -114t-187.5 -40q-58 0 -103 11q-120 26 -190 102t-70 180zM182 1286q0 51 35 86t86 35q48 0 82.5 -35t34.5 -86 q0 -47 -35 -82t-82 -35q-51 0 -86 34.5t-35 82.5zM195 270q0 -45 20.5 -80t52.5 -54t55.5 -28.5t45.5 -13.5q74 -17 162.5 -0.5t162.5 69t94 128.5v192h-194q-197 0 -298 -46.5t-101 -166.5zM610 1286q0 51 34 86t83 35q51 0 85 -35t34 -86q0 -48 -34.5 -82.5t-84.5 -34.5 q-49 0 -83 34.5t-34 82.5z" />
<glyph unicode="&#xe5;" horiz-adv-x="1146" d="M86 270q0 51 13 93.5t33 73.5t53 55t63 39.5t73.5 26.5t74.5 16t76 8t67.5 3.5t58.5 0.5h190v43q0 146 -61.5 214t-194.5 68q-53 0 -105.5 -9.5t-88 -22.5t-65.5 -28t-43 -23.5t-15 -10.5q-17 -13 -40.5 -9.5t-37.5 21.5q-11 18 -7 41t22 35q4 4 20 14.5t52 28t78.5 32.5 t104.5 26.5t125 11.5q363 0 363 -389v-518h178q23 0 39 -17t16 -41q0 -22 -16 -37.5t-39 -15.5h-231q-23 0 -38.5 15.5t-15.5 37.5v78q-60 -74 -151.5 -114t-187.5 -40q-58 0 -103 11q-120 26 -190 102t-70 180zM195 270q0 -45 20.5 -80t52.5 -54t55.5 -28.5t45.5 -13.5 q74 -17 162.5 -0.5t162.5 69t94 128.5v192h-194q-197 0 -298 -46.5t-101 -166.5zM342 1311q0 74 53.5 127t128.5 53q74 0 127.5 -53.5t53.5 -126.5q0 -75 -53.5 -129t-127.5 -54q-75 0 -128.5 54t-53.5 129zM422 1311q0 -43 29.5 -73t72.5 -30q42 0 72.5 30.5t30.5 72.5 q0 41 -31 71.5t-72 30.5q-42 0 -72 -30t-30 -72z" />
<glyph unicode="&#xe6;" horiz-adv-x="1794" d="M86 270q0 51 13 93.5t33 73.5t53 55t63 39.5t73.5 26.5t74.5 16t76 8t67.5 3.5t58.5 0.5h188v43q0 146 -61 214t-193 68q-53 0 -105.5 -9.5t-88 -22.5t-65.5 -28t-43 -23.5t-15 -10.5q-17 -13 -40.5 -9.5t-37.5 21.5q-12 19 -8 41.5t23 34.5q4 4 20 14.5t52 28t78.5 32.5 t104.5 26.5t125 11.5q274 0 342 -225q66 104 169.5 164.5t224.5 60.5q180 0 305.5 -135.5t138.5 -347.5v-3q0 -23 -15.5 -40t-37.5 -17h-760q8 -163 115.5 -278t253.5 -115q91 0 171 50.5t132 137.5q12 20 34 26.5t42 -5.5q19 -11 24.5 -32.5t-4.5 -41.5 q-66 -113 -172 -176.5t-227 -63.5q-125 0 -231.5 65t-172.5 175q-20 -48 -63 -94q-66 -73 -160 -109.5t-192 -36.5q-58 0 -103 11q-121 26 -190.5 101.5t-69.5 180.5zM195 270q0 -45 20.5 -80t52.5 -54t55.5 -28.5t45.5 -13.5q74 -17 162 -0.5t162 69t93 128.5v192h-192 q-197 0 -298 -46.5t-101 -166.5zM905 586h692q-25 147 -115 238t-214 91q-132 0 -233.5 -94t-129.5 -235z" />
<glyph unicode="&#xe7;" horiz-adv-x="1015" d="M92 502q0 217 137 366.5t336 149.5q69 0 135.5 -19.5t120 -54t85.5 -89t30 -118.5q0 -48 -35 -83.5t-84 -35.5q-50 0 -85.5 35.5t-35.5 83.5q0 44 27.5 76.5t69.5 40.5q-69 61 -228 61q-153 0 -259.5 -120.5t-106.5 -292.5q0 -170 108.5 -295t257.5 -125q93 0 175.5 50.5 t133.5 137.5q12 20 35 26.5t43 -5.5q19 -12 24.5 -34.5t-5.5 -41.5q-65 -105 -163.5 -168t-211.5 -70v-38q82 -6 138.5 -65.5t56.5 -141.5q0 -85 -60.5 -145t-146.5 -60q-92 0 -154 65q-15 17 -14 40t18 38q15 16 39 15t39 -19q30 -33 72 -33q40 0 68 29t28 70q0 40 -28 68 t-68 28q-19 0 -27 -2q-23 -6 -41.5 4t-26.5 31v6v4v4q0 1 -2 2t-2 2v105q-167 31 -280 178.5t-113 339.5z" />
<glyph unicode="&#xe8;" horiz-adv-x="1089" d="M86 500q0 141 63.5 260.5t173 188.5t238.5 69q181 0 308 -136t139 -347v-3q0 -23 -16.5 -40t-39.5 -17h-757q8 -163 114 -278t252 -115q92 0 173 50t134 138q11 20 32.5 26.5t41.5 -5.5q18 -10 24 -32t-3 -42q-67 -114 -173 -177t-229 -63q-129 0 -238.5 69.5t-173 190 t-63.5 263.5zM203 586h688q-23 147 -114 238t-216 91q-129 0 -230.5 -94t-127.5 -235zM358 1402q0 42 29 71q28 29 68 29t69 -29q11 -11 13 -17l198 -293q4 -8 3 -18.5t-7 -16.5q-17 -17 -35 -2l-295 193q-2 2 -7 6t-7 6q-29 29 -29 71z" />
<glyph unicode="&#xe9;" horiz-adv-x="1089" d="M86 500q0 141 63.5 260.5t173 188.5t238.5 69q181 0 308 -136t139 -347v-3q0 -23 -16.5 -40t-39.5 -17h-757q8 -163 114 -278t252 -115q92 0 173 50t134 138q11 20 32.5 26.5t41.5 -5.5q18 -10 24 -32t-3 -42q-67 -114 -173 -177t-229 -63q-129 0 -238.5 69.5t-173 190 t-63.5 263.5zM203 586h688q-23 147 -114 238t-216 91q-129 0 -230.5 -94t-127.5 -235zM355 1146.5q-1 10.5 5 18.5l197 293q1 3 3 5.5t5 6t4 5.5q29 29 70 29t70 -29t29 -71t-29 -71q-3 -2 -8.5 -6t-8.5 -6l-297 -193q-4 -6 -15 -5.5t-18 7.5q-6 6 -7 16.5z" />
<glyph unicode="&#xea;" horiz-adv-x="1089" d="M86 500q0 141 63.5 260.5t173 188.5t238.5 69q181 0 308 -136t139 -347v-3q0 -23 -16.5 -40t-39.5 -17h-757q8 -163 114 -278t252 -115q92 0 173 50t134 138q11 20 32.5 26.5t41.5 -5.5q18 -10 24 -32t-3 -42q-67 -114 -173 -177t-229 -63q-129 0 -238.5 69.5t-173 190 t-63.5 263.5zM203 586h688q-23 147 -114 238t-216 91q-129 0 -230.5 -94t-127.5 -235zM264 1153q0 4 4 12l193 289q33 49 86 49t86 -49l192 -289q4 -8 4 -12q0 -12 -8.5 -21.5t-19.5 -9.5t-19 8l-235 211l-236 -211q-8 -8 -18 -8q-11 0 -20 9.5t-9 21.5z" />
<glyph unicode="&#xeb;" horiz-adv-x="1089" d="M86 500q0 141 63.5 260.5t173 188.5t238.5 69q181 0 308 -136t139 -347v-3q0 -23 -16.5 -40t-39.5 -17h-757q8 -163 114 -278t252 -115q92 0 173 50t134 138q11 20 32.5 26.5t41.5 -5.5q18 -10 24 -32t-3 -42q-67 -114 -173 -177t-229 -63q-129 0 -238.5 69.5t-173 190 t-63.5 263.5zM203 586h688q-23 147 -114 238t-216 91q-129 0 -230.5 -94t-127.5 -235zM215 1286q0 51 35 86t86 35q48 0 82.5 -35t34.5 -86q0 -47 -35 -82t-82 -35q-51 0 -86 34.5t-35 82.5zM643 1286q0 51 34 86t83 35q51 0 85 -35t34 -86q0 -48 -34.5 -82.5t-84.5 -34.5 q-49 0 -83 34.5t-34 82.5z" />
<glyph unicode="&#xec;" horiz-adv-x="833" d="M59 53q0 24 15.5 41t38.5 17h268v774h-264q-23 0 -39.5 17t-16.5 40q0 22 16.5 37.5t39.5 15.5h321q21 0 37.5 -16t16.5 -37v-831h260q23 0 39 -17t16 -41q0 -22 -16 -37.5t-39 -15.5h-639q-23 0 -38.5 15.5t-15.5 37.5zM207 1402q0 42 29 71q28 29 68 29t69 -29 q9 -9 12 -17l199 -293q4 -8 3 -18.5t-7 -16.5q-17 -17 -35 -2l-295 193q-2 2 -7 6t-7 6q-29 29 -29 71z" />
<glyph unicode="&#xed;" horiz-adv-x="833" d="M59 53q0 24 15.5 41t38.5 17h268v774h-264q-23 0 -39.5 17t-16.5 40q0 22 16.5 37.5t39.5 15.5h321q21 0 37.5 -16t16.5 -37v-831h260q23 0 39 -17t16 -41q0 -22 -16 -37.5t-39 -15.5h-639q-23 0 -38.5 15.5t-15.5 37.5zM204 1146.5q-1 10.5 5 18.5l197 293q1 3 3 5.5 t5 6t4 5.5q29 29 69.5 29t69.5 -29t29 -71t-29 -71q-3 -2 -8 -6t-8 -6l-297 -193q-4 -6 -15 -5.5t-18 7.5q-6 6 -7 16.5z" />
<glyph unicode="&#xee;" horiz-adv-x="833" d="M59 53q0 24 15.5 41t38.5 17h268v774h-264q-23 0 -39.5 17t-16.5 40q0 22 16.5 37.5t39.5 15.5h321q21 0 37.5 -16t16.5 -37v-831h260q23 0 39 -17t16 -41q0 -22 -16 -37.5t-39 -15.5h-639q-23 0 -38.5 15.5t-15.5 37.5zM115 1153q0 4 4 12l192 289q33 49 86 49t86 -49 l193 -289q4 -8 4 -12q0 -12 -9 -21.5t-20 -9.5q-10 0 -18 8l-236 211l-235 -211q-8 -8 -19 -8t-19.5 9.5t-8.5 21.5z" />
<glyph unicode="&#xef;" horiz-adv-x="833" d="M59 53q0 24 15.5 41t38.5 17h268v774h-264q-23 0 -39.5 17t-16.5 40q0 22 16.5 37.5t39.5 15.5h321q21 0 37.5 -16t16.5 -37v-831h260q23 0 39 -17t16 -41q0 -22 -16 -37.5t-39 -15.5h-639q-23 0 -38.5 15.5t-15.5 37.5zM63 1286q0 51 35 86t86 35q48 0 82.5 -35 t34.5 -86q0 -47 -35 -82t-82 -35q-51 0 -86 34.5t-35 82.5zM492 1286q0 51 33.5 86t82.5 35q51 0 85 -35t34 -86q0 -48 -34.5 -82.5t-84.5 -34.5q-49 0 -82.5 34.5t-33.5 82.5z" />
<glyph unicode="&#xf0;" horiz-adv-x="1056" />
<glyph unicode="&#xf1;" horiz-adv-x="1302" d="M49 942q0 22 15.5 37.5t37.5 15.5h230q23 0 39 -15.5t16 -37.5v-104q109 180 348 180q161 0 262 -108t101 -281v-518h164q22 0 37.5 -17.5t15.5 -40.5q0 -22 -15.5 -37.5t-37.5 -15.5h-435q-23 0 -40 15.5t-17 37.5q0 23 17 40.5t40 17.5h160v518q0 75 -22.5 132t-60 89 t-80.5 47.5t-89 15.5q-68 0 -127.5 -21.5t-110.5 -65.5t-80.5 -121.5t-29.5 -180.5v-413h164q23 0 38 -17t15 -41q0 -22 -15 -37.5t-38 -15.5h-447q-23 0 -38 15.5t-15 37.5q0 24 15 41t38 17h175v774h-177q-22 0 -37.5 17t-15.5 40zM367 1243q15 58 56.5 98t98.5 54 q59 11 113.5 -9t91.5 -65l2 -6q39 -39 92 -29q28 6 48 25t24 45q6 23 25.5 35t42.5 6q21 -6 32 -24t8 -42q-15 -58 -57 -99.5t-98 -51.5q-3 0 -20 -3t-25 -3q-96 0 -160 77l-6 9q-35 38 -90 26q-26 -4 -46 -23t-26 -44q-4 -23 -23.5 -35t-41.5 -6q-23 5 -35 23.5t-6 41.5z " />
<glyph unicode="&#xf2;" horiz-adv-x="1159" d="M96 500q0 -141 64.5 -261.5t175.5 -191t242 -70.5t243 70.5t178 191t66 261.5t-66 260.5t-178 188.5t-243 69t-242 -69t-175.5 -188.5t-64.5 -260.5zM207 500q0 169 109 292t262 123q156 0 266 -122.5t110 -292.5q0 -172 -110 -295t-266 -123q-155 0 -263 123t-108 295z M391 1402q0 42 29 71q28 29 68 29t69 -29q9 -9 12 -17l199 -293q4 -8 3 -18.5t-7 -16.5q-17 -17 -35 -2l-295 193q-2 2 -7 6t-7 6q-29 29 -29 71z" />
<glyph unicode="&#xf3;" horiz-adv-x="1159" d="M96 500q0 -141 64.5 -261.5t175.5 -191t242 -70.5t243 70.5t178 191t66 261.5t-66 260.5t-178 188.5t-243 69t-242 -69t-175.5 -188.5t-64.5 -260.5zM207 500q0 169 109 292t262 123q156 0 266 -122.5t110 -292.5q0 -172 -110 -295t-266 -123q-155 0 -263 123t-108 295z M388 1146.5q-1 10.5 5 18.5l197 293q1 3 3 5.5t5 6t4 5.5q29 29 69.5 29t69.5 -29t29 -71t-29 -71q-3 -2 -8 -6t-8 -6l-297 -193q-4 -6 -15 -5.5t-18 7.5q-6 6 -7 16.5z" />
<glyph unicode="&#xf4;" horiz-adv-x="1159" d="M96 500q0 -141 64.5 -261.5t175.5 -191t242 -70.5t243 70.5t178 191t66 261.5t-66 260.5t-178 188.5t-243 69t-242 -69t-175.5 -188.5t-64.5 -260.5zM207 500q0 169 109 292t262 123q156 0 266 -122.5t110 -292.5q0 -172 -110 -295t-266 -123q-155 0 -263 123t-108 295z M299 1153q0 4 4 12l193 289q33 49 86 49t86 -49l192 -289q4 -8 4 -12q0 -12 -8.5 -21.5t-19.5 -9.5t-19 8l-235 211l-236 -211q-8 -8 -18 -8q-11 0 -20 9.5t-9 21.5z" />
<glyph unicode="&#xf5;" horiz-adv-x="1159" d="M96 500q0 -141 64.5 -261.5t175.5 -191t242 -70.5t243 70.5t178 191t66 261.5t-66 260.5t-178 188.5t-243 69t-242 -69t-175.5 -188.5t-64.5 -260.5zM207 500q0 169 109 292t262 123q156 0 266 -122.5t110 -292.5q0 -172 -110 -295t-266 -123q-155 0 -263 123t-108 295z M264 1243q15 58 56.5 98t99.5 54q59 11 113.5 -9t91.5 -65l2 -6q39 -39 92 -29q28 6 48 25t24 45q6 23 25 35t42 6q22 -6 33 -24.5t8 -41.5q-15 -58 -57.5 -99.5t-98.5 -51.5q-3 0 -20 -3t-25 -3q-95 0 -159 77l-7 9q-35 38 -90 26q-26 -4 -45.5 -23t-25.5 -44 q-4 -23 -24 -35t-42 -6q-23 5 -35 23.5t-6 41.5z" />
<glyph unicode="&#xf6;" horiz-adv-x="1159" d="M96 500q0 -141 64.5 -261.5t175.5 -191t242 -70.5t243 70.5t178 191t66 261.5t-66 260.5t-178 188.5t-243 69t-242 -69t-175.5 -188.5t-64.5 -260.5zM207 500q0 169 109 292t262 123q156 0 266 -122.5t110 -292.5q0 -172 -110 -295t-266 -123q-155 0 -263 123t-108 295z M248 1286q0 51 35 86t86 35q48 0 82 -35t34 -86q0 -47 -34.5 -82t-81.5 -35q-51 0 -86 34.5t-35 82.5zM676 1286q0 51 34 86t83 35q51 0 84.5 -35t33.5 -86q0 -48 -34 -82.5t-84 -34.5q-49 0 -83 34.5t-34 82.5z" />
<glyph unicode="&#xf7;" horiz-adv-x="1124" d="M102 496q0 24 15.5 40.5t38.5 16.5h811q22 0 38.5 -17t16.5 -40t-16.5 -38.5t-38.5 -15.5h-811q-23 0 -38.5 15.5t-15.5 38.5zM442 131q0 48 35 82.5t84 34.5t84 -34.5t35 -82.5q0 -51 -34.5 -86t-84.5 -35t-84.5 35t-34.5 86zM442 842q0 51 34.5 86t84.5 35t84.5 -35 t34.5 -86q0 -48 -35 -82.5t-84 -34.5t-84 34.5t-35 82.5z" />
<glyph unicode="&#xf8;" horiz-adv-x="1159" d="M96 500q0 141 64.5 260.5t175.5 188.5t242 69q171 0 305 -115l88 103q18 22 41 6q9 -8 10 -21t-6 -24l-90 -105q66 -72 102.5 -165.5t36.5 -196.5q0 -141 -66 -261.5t-178 -191t-243 -70.5q-168 0 -299 115l-86 -104q-8 -11 -25 -11q-10 0 -21 7q-9 7 -9.5 21t7.5 24 l91 104q-140 150 -140 367zM207 500q0 -164 98 -283l508 604q-100 94 -235 94q-153 0 -262 -123t-109 -292zM348 174q102 -92 230 -92q156 0 266 123t110 295q0 162 -96 278z" />
<glyph unicode="&#xf9;" horiz-adv-x="1298" d="M61 940q0 23 15.5 39t38.5 16h196q23 0 39.5 -15.5t16.5 -37.5v-575q0 -75 22.5 -132t59.5 -89.5t80 -48t89 -15.5q68 0 128.5 21.5t111 65.5t80 121.5t29.5 180.5v414h-146q-22 0 -37.5 16.5t-15.5 38.5q0 23 15.5 39t37.5 16h201q23 0 39 -15.5t16 -37.5v-831h142 q22 0 37.5 -17.5t15.5 -40.5t-15.5 -38t-37.5 -15h-197q-23 0 -37.5 14.5t-17.5 38.5v103q-56 -91 -147.5 -135t-201.5 -44q-159 0 -260.5 108.5t-101.5 281.5v518h-141q-23 0 -38.5 16.5t-15.5 38.5zM463 1402q0 42 29 71q28 29 68 29t69 -29q9 -9 12 -17l199 -293 q4 -8 3 -18.5t-7 -16.5q-17 -17 -35 -2l-295 193q-2 2 -7 6t-7 6q-29 29 -29 71z" />
<glyph unicode="&#xfa;" horiz-adv-x="1298" d="M61 940q0 23 15.5 39t38.5 16h196q23 0 39.5 -15.5t16.5 -37.5v-575q0 -75 22.5 -132t59.5 -89.5t80 -48t89 -15.5q68 0 128.5 21.5t111 65.5t80 121.5t29.5 180.5v414h-146q-22 0 -37.5 16.5t-15.5 38.5q0 23 15.5 39t37.5 16h201q23 0 39 -15.5t16 -37.5v-831h142 q22 0 37.5 -17.5t15.5 -40.5t-15.5 -38t-37.5 -15h-197q-23 0 -37.5 14.5t-17.5 38.5v103q-56 -91 -147.5 -135t-201.5 -44q-159 0 -260.5 108.5t-101.5 281.5v518h-141q-23 0 -38.5 16.5t-15.5 38.5zM460 1146.5q-1 10.5 5 18.5l197 293q1 3 3 5.5t5 6t4 5.5q29 29 69.5 29 t69.5 -29t29 -71t-29 -71q-3 -2 -8 -6t-8 -6l-297 -193q-4 -6 -15 -5.5t-18 7.5q-6 6 -7 16.5z" />
<glyph unicode="&#xfb;" horiz-adv-x="1298" d="M61 940q0 23 15.5 39t38.5 16h196q23 0 39.5 -15.5t16.5 -37.5v-575q0 -75 22.5 -132t59.5 -89.5t80 -48t89 -15.5q68 0 128.5 21.5t111 65.5t80 121.5t29.5 180.5v414h-146q-22 0 -37.5 16.5t-15.5 38.5q0 23 15.5 39t37.5 16h201q23 0 39 -15.5t16 -37.5v-831h142 q22 0 37.5 -17.5t15.5 -40.5t-15.5 -38t-37.5 -15h-197q-23 0 -37.5 14.5t-17.5 38.5v103q-56 -91 -147.5 -135t-201.5 -44q-159 0 -260.5 108.5t-101.5 281.5v518h-141q-23 0 -38.5 16.5t-15.5 38.5zM369 1153q0 4 4 12l192 289q33 49 86 49t86 -49l193 -289q4 -8 4 -12 q0 -12 -9 -21.5t-20 -9.5q-10 0 -18 8l-236 211l-235 -211q-8 -8 -19 -8t-19.5 9.5t-8.5 21.5z" />
<glyph unicode="&#xfc;" horiz-adv-x="1298" d="M61 940q0 23 15.5 39t38.5 16h196q23 0 39.5 -15.5t16.5 -37.5v-575q0 -75 22.5 -132t59.5 -89.5t80 -48t89 -15.5q68 0 128.5 21.5t111 65.5t80 121.5t29.5 180.5v414h-146q-22 0 -37.5 16.5t-15.5 38.5q0 23 15.5 39t37.5 16h201q23 0 39 -15.5t16 -37.5v-831h142 q22 0 37.5 -17.5t15.5 -40.5t-15.5 -38t-37.5 -15h-197q-23 0 -37.5 14.5t-17.5 38.5v103q-56 -91 -147.5 -135t-201.5 -44q-159 0 -260.5 108.5t-101.5 281.5v518h-141q-23 0 -38.5 16.5t-15.5 38.5zM319 1286q0 51 35 86t86 35q48 0 82.5 -35t34.5 -86q0 -47 -35 -82 t-82 -35q-51 0 -86 34.5t-35 82.5zM748 1286q0 51 33.5 86t82.5 35q51 0 85 -35t34 -86q0 -48 -34.5 -82.5t-84.5 -34.5q-49 0 -82.5 34.5t-33.5 82.5z" />
<glyph unicode="&#xfd;" horiz-adv-x="1243" d="M0 942q0 22 15.5 37.5t37.5 15.5h406q23 0 38 -15.5t15 -37.5q0 -24 -15 -40.5t-38 -16.5h-172l348 -750q223 515 321 750h-178q-22 0 -37.5 17t-15.5 40q0 22 15.5 37.5t37.5 15.5h404q23 0 39 -15.5t16 -37.5q0 -23 -16 -40t-39 -17h-107q-454 -1064 -563 -1284 q-29 -60 -91 -95.5t-134 -35.5q-108 0 -185 75.5t-77 182.5q0 48 18 88q14 34 44 54.5t67 20.5q49 0 82.5 -35.5t33.5 -86.5q0 -50 -35 -83.5t-90 -33.5q23 -32 63 -55t79 -23q41 0 76.5 21t50.5 55q11 19 51.5 107t74.5 167l35 78l-409 883h-113q-22 0 -37.5 17t-15.5 40z M454 1146.5q-1 10.5 5 18.5l196 293q1 3 6.5 9t6.5 8q29 29 69.5 29t69.5 -29t29 -71t-29 -71q-3 -2 -8 -6t-8 -6l-297 -193q-4 -6 -15 -5.5t-18 7.5q-6 6 -7 16.5z" />
<glyph unicode="&#xfe;" horiz-adv-x="1294" d="M51 -446q0 23 16 39t39 16h183v1761h-185q-22 0 -37.5 15.5t-15.5 37.5q0 23 15.5 39.5t37.5 16.5h242q21 0 37 -16.5t16 -39.5v-624q55 102 146.5 160.5t204.5 58.5q190 0 324 -151.5t134 -366.5q0 -143 -61 -263.5t-166.5 -190t-230.5 -69.5q-113 0 -204.5 58.5 t-146.5 159.5v-586h203q23 0 38 -16t15 -39q0 -24 -15 -40t-38 -16h-496q-23 0 -39 16.5t-16 39.5zM399 494q0 -169 103 -288.5t248 -119.5t246.5 121t101.5 293q0 170 -102 292.5t-246 122.5q-92 0 -173.5 -58t-129.5 -155.5t-48 -207.5z" />
<glyph unicode="&#xff;" horiz-adv-x="1243" d="M0 942q0 22 15.5 37.5t37.5 15.5h406q23 0 38 -15.5t15 -37.5q0 -24 -15 -40.5t-38 -16.5h-172l348 -750q223 515 321 750h-178q-22 0 -37.5 17t-15.5 40q0 22 15.5 37.5t37.5 15.5h404q23 0 39 -15.5t16 -37.5q0 -23 -16 -40t-39 -17h-107q-454 -1064 -563 -1284 q-29 -60 -91 -95.5t-134 -35.5q-108 0 -185 75.5t-77 182.5q0 48 18 88q14 34 44 54.5t67 20.5q49 0 82.5 -35.5t33.5 -86.5q0 -50 -35 -83.5t-90 -33.5q23 -32 63 -55t79 -23q41 0 76.5 21t50.5 55q11 19 51.5 107t74.5 167l35 78l-409 883h-113q-22 0 -37.5 17t-15.5 40z M289 1286q0 51 35 86t86 35q48 0 82 -35t34 -86q0 -47 -34.5 -82t-81.5 -35q-51 0 -86 34.5t-35 82.5zM717 1286q0 51 34 86t83 35q51 0 84.5 -35t33.5 -86q0 -48 -34 -82.5t-84 -34.5q-49 0 -83 34.5t-34 82.5z" />
<glyph unicode="&#x152;" horiz-adv-x="2232" d="M113 739q0 218 75.5 393t211 274t305.5 99q128 0 239.5 -59.5t194.5 -171.5q35 -48 51 -82v178v64q0 20 16 32.5t33 12.5h739q23 0 38.5 -16t15.5 -38v-260q0 -23 -15.5 -39t-38.5 -16t-38 16t-15 39v205h-625v-549h379v140q0 23 16 38t40 15q23 0 39 -15t16 -38v-377 q0 -23 -16 -38.5t-39 -15.5t-39.5 15.5t-16.5 38.5v131h-379v-604h687v258q0 23 15 39t38 16t40 -16t17 -39v-314q0 -2 -2 -5.5t-2 -6.5q-3 -19 -18 -31t-35 -12h-535h-262q-21 0 -37 16t-16 37v226q-77 -143 -203.5 -222.5t-281.5 -79.5q-131 0 -245.5 60t-193.5 170 q-153 213 -153 532zM219 739q0 -288 136.5 -472.5t349.5 -184.5q106 0 196.5 49t155.5 139q131 186 131 469q0 281 -139 471q-140 193 -344 193q-138 0 -249.5 -86t-174 -238t-62.5 -340z" />
<glyph unicode="&#x153;" horiz-adv-x="1959" d="M96 500q0 141 64.5 260.5t175.5 188.5t242 69q139 0 255 -77.5t179 -205.5q59 128 172.5 205.5t249.5 77.5q181 0 306.5 -136t137.5 -347v-3q0 -24 -15 -40.5t-38 -16.5h-760q8 -163 115.5 -278t253.5 -115q91 0 172.5 50.5t132.5 137.5q11 20 32 26.5t41 -5.5 q21 -10 26.5 -32.5t-5.5 -43.5q-66 -112 -171.5 -175t-227.5 -63q-136 0 -250 77.5t-172 205.5q-63 -128 -179 -205.5t-255 -77.5q-131 0 -242 70.5t-175.5 191t-64.5 261.5zM205 500q0 -172 109 -295t264 -123q156 0 266 123t110 295q0 170 -110 292.5t-266 122.5 q-154 0 -263.5 -122.5t-109.5 -292.5zM1073 586h690q-25 148 -114.5 238.5t-214.5 90.5q-130 0 -232.5 -94.5t-128.5 -234.5z" />
<glyph unicode="&#x178;" horiz-adv-x="1304" d="M-6 1425q0 22 16 38t39 16h395q23 0 39.5 -16t16.5 -38q0 -23 -16.5 -39t-39.5 -16h-157l381 -733l374 733h-161q-22 0 -38 16t-16 39q0 22 16 38t38 16h397q23 0 39 -16t16 -38q0 -23 -16 -39t-39 -16h-113l-440 -860v-399h248q23 0 38 -17t15 -41q0 -22 -15 -37.5 t-38 -15.5h-606q-23 0 -39.5 15.5t-16.5 37.5q0 23 16.5 40.5t39.5 17.5h247v395l-450 864h-115q-23 0 -39 16t-16 39zM332 1702q0 51 35 86t86 35q48 0 82 -35t34 -86q0 -47 -34.5 -82t-81.5 -35q-51 0 -86 34.5t-35 82.5zM760 1702q0 51 34 86t83 35q51 0 84.5 -35 t33.5 -86q0 -48 -34 -82.5t-84 -34.5q-49 0 -83 34.5t-34 82.5z" />
<glyph unicode="&#x2c6;" horiz-adv-x="768" d="M100 1493q0 4 4 12l193 289q33 49 86 49t86 -49l193 -289q4 -8 4 -12q0 -12 -9 -21.5t-20 -9.5t-19 8l-235 211l-236 -211q-8 -8 -18 -8q-11 0 -20 9.5t-9 21.5z" />
<glyph unicode="&#x2dc;" horiz-adv-x="839" d="M102 1661q15 58 56.5 97.5t99.5 53.5q59 11 114 -8.5t91 -64.5l2 -6q39 -39 92 -29q28 6 48 25t24 45q6 23 25 35t42 6q22 -6 33 -24.5t8 -41.5q-15 -58 -57 -100t-98 -52q-3 0 -20 -3t-25 -3q-95 0 -160 78l-6 8q-36 39 -90 27q-26 -4 -46 -23.5t-26 -44.5 q-4 -23 -24 -35t-42 -6q-23 4 -35 23.5t-6 42.5z" />
<glyph unicode="&#x2000;" horiz-adv-x="960" />
<glyph unicode="&#x2001;" horiz-adv-x="1921" />
<glyph unicode="&#x2002;" horiz-adv-x="960" />
<glyph unicode="&#x2003;" horiz-adv-x="1921" />
<glyph unicode="&#x2004;" horiz-adv-x="640" />
<glyph unicode="&#x2005;" horiz-adv-x="480" />
<glyph unicode="&#x2006;" horiz-adv-x="320" />
<glyph unicode="&#x2007;" horiz-adv-x="320" />
<glyph unicode="&#x2008;" horiz-adv-x="240" />
<glyph unicode="&#x2009;" horiz-adv-x="384" />
<glyph unicode="&#x200a;" horiz-adv-x="106" />
<glyph unicode="&#x2010;" horiz-adv-x="919" d="M102 500q0 23 16 38t38 15h604q24 0 40.5 -15t16.5 -38t-17 -39.5t-40 -16.5h-604q-22 0 -38 16.5t-16 39.5z" />
<glyph unicode="&#x2011;" horiz-adv-x="919" d="M102 500q0 23 16 38t38 15h604q24 0 40.5 -15t16.5 -38t-17 -39.5t-40 -16.5h-604q-22 0 -38 16.5t-16 39.5z" />
<glyph unicode="&#x2012;" horiz-adv-x="919" d="M102 500q0 23 16 38t38 15h604q24 0 40.5 -15t16.5 -38t-17 -39.5t-40 -16.5h-604q-22 0 -38 16.5t-16 39.5z" />
<glyph unicode="&#x2013;" horiz-adv-x="1468" d="M102 500q0 23 16 38t38 15h1157q22 0 37.5 -15t15.5 -38t-15.5 -39.5t-37.5 -16.5h-1157q-22 0 -38 16.5t-16 39.5z" />
<glyph unicode="&#x2014;" horiz-adv-x="1882" d="M102 500q0 23 16 38t38 15h1568q24 0 40 -15t16 -38t-16.5 -39.5t-39.5 -16.5h-1568q-22 0 -38 16.5t-16 39.5z" />
<glyph unicode="&#x2018;" horiz-adv-x="444" d="M80 1227q0 29 24 76l170 288l33 -10l-67 -225q46 -8 77 -45t31 -84q0 -57 -39 -97t-94 -40q-56 0 -95.5 40t-39.5 97z" />
<glyph unicode="&#x2019;" horiz-adv-x="448" d="M66 1458q0 57 39 95t98 38q56 0 94.5 -38t38.5 -95q0 -33 -25 -78l-170 -290l-35 14l68 221q-47 11 -77.5 47.5t-30.5 85.5z" />
<glyph unicode="&#x201a;" horiz-adv-x="401" d="M63 111q0 56 39.5 95.5t94.5 39.5t95 -40t40 -95q0 -29 -13 -58l-12 -20l-172 -289l-31 10l68 226q-46 8 -77.5 45t-31.5 86z" />
<glyph unicode="&#x201c;" horiz-adv-x="782" d="M72 1227q0 45 22 76l172 288l31 -10l-64 -225q46 -7 76.5 -44.5t30.5 -84.5q0 -57 -39.5 -97t-95.5 -40q-55 0 -94 40t-39 97zM428 1227q0 38 23 76l172 288l32 -10l-67 -225q46 -8 77 -45t31 -84q0 -57 -39 -97t-96 -40t-95 40t-38 97z" />
<glyph unicode="&#x201d;" horiz-adv-x="755" d="M66 1458q0 57 40 95t97 38q56 0 94.5 -38t38.5 -95q0 -32 -25 -78l-170 -290l-35 14l68 221q-47 11 -77.5 47.5t-30.5 85.5zM422 1458q0 56 39.5 94.5t95.5 38.5q57 0 97 -38t40 -95q0 -37 -26 -78l-172 -290l-31 14l65 221q-47 11 -77.5 47.5t-30.5 85.5z" />
<glyph unicode="&#x201e;" horiz-adv-x="759" d="M66 113q0 55 40 94t97 39q56 0 95.5 -39t39.5 -94q0 -26 -12 -58l-15 -22l-170 -289l-30 12l63 224q-47 9 -77.5 46t-30.5 87zM422 113q0 55 39.5 94t95.5 39q57 0 97 -39t40 -94q0 -30 -14 -58l-12 -22l-172 -289l-31 12l65 224q-47 9 -77.5 46t-30.5 87z" />
<glyph unicode="&#x2022;" horiz-adv-x="567" d="M102 485q0 75 53.5 129t129.5 54q74 0 127 -54t53 -129q0 -73 -53.5 -126.5t-126.5 -53.5q-76 0 -129.5 53t-53.5 127z" />
<glyph unicode="&#x2026;" horiz-adv-x="1298" d="M76 115q0 60 40 100.5t99 40.5q58 0 99.5 -41t41.5 -100q0 -57 -42 -97.5t-99 -40.5q-58 0 -98.5 40.5t-40.5 97.5zM510 115q0 60 40 100.5t97 40.5q59 0 100 -40.5t41 -100.5q0 -57 -41.5 -97.5t-99.5 -40.5q-57 0 -97 40.5t-40 97.5zM942 115q0 60 40 100.5t97 40.5 q59 0 100.5 -40.5t41.5 -100.5q0 -57 -41.5 -97.5t-100.5 -40.5q-57 0 -97 40.5t-40 97.5z" />
<glyph unicode="&#x202f;" horiz-adv-x="384" />
<glyph unicode="&#x2030;" horiz-adv-x="2011" d="M76 1049q0 114 80 195t194 81t194.5 -81t80.5 -195q0 -113 -80.5 -193t-194.5 -80t-194 80t-80 193zM107 27q-1 22 14 39l1065 1273q12 17 35.5 19t40.5 -12q17 -15 19 -37t-13 -39l-1065 -1272q-15 -21 -41 -21q-21 0 -37 13q-17 15 -18 37zM184 1049q0 -67 49 -117.5 t117 -50.5t117 50.5t49 117.5q0 70 -49 122t-117 52t-117 -52t-49 -122zM756 248q0 115 81 195.5t195 80.5q113 0 193 -80.5t80 -195.5q0 -114 -80 -194.5t-193 -80.5q-114 0 -195 80.5t-81 194.5zM864 248q0 -68 49.5 -117t118.5 -49q66 0 115 49.5t49 116.5 q0 69 -49 121.5t-115 52.5q-68 0 -118 -52t-50 -122zM1384 248q0 115 81.5 195.5t195.5 80.5t194 -80.5t80 -195.5q0 -114 -80 -194.5t-194 -80.5t-195.5 80.5t-81.5 194.5zM1495 248q0 -68 48.5 -117t117.5 -49q67 0 115.5 49t48.5 117q0 70 -48.5 122t-115.5 52 q-68 0 -117 -52t-49 -122z" />
<glyph unicode="&#x2039;" horiz-adv-x="2131" />
<glyph unicode="&#x205f;" horiz-adv-x="480" />
<glyph unicode="&#x20ac;" horiz-adv-x="1390" d="M53 602q0 23 15 39t38 16h99q-2 31 -2 93q0 77 4 114h-101q-23 0 -38 16t-15 40q0 23 15 39t38 16h117q50 255 205.5 405t372.5 150q111 0 213 -55t164 -152v125q0 24 15 40.5t38 16.5t40 -17t17 -40v-301q0 -35 -35 -53q-21 -8 -42.5 0.5t-30.5 29.5 q-62 144 -159.5 222.5t-219.5 78.5q-96 0 -176.5 -36.5t-136 -100.5t-92.5 -142.5t-58 -170.5h582q23 0 38 -16t15 -39q0 -24 -15 -40t-38 -16h-601q-4 -74 -4 -114q0 -35 4 -93h601q23 0 38 -16t15 -39q0 -22 -15 -38.5t-38 -16.5h-584q46 -209 177 -337t304 -128 q77 0 144 25.5t114 68.5t79 88t54 96q9 22 30.5 30t43.5 -1q21 -7 29.5 -28.5t-0.5 -43.5q-73 -165 -202 -254.5t-292 -89.5q-220 0 -383.5 158.5t-214.5 415.5h-113q-23 0 -38 16.5t-15 38.5z" />
<glyph unicode="&#x2122;" horiz-adv-x="1486" />
<glyph unicode="&#x25fc;" horiz-adv-x="993" d="M0 0v993h993v-993h-993z" />
</font>
</defs>
</svg>
