<?xml version="1.0" standalone="no"?>
<!DOCTYPE svg PUBLIC "-//W3C//DTD SVG 1.1//EN" "http://www.w3.org/Graphics/SVG/1.1/DTD/svg11.dtd" >
<svg xmlns="http://www.w3.org/2000/svg">
<metadata></metadata>
<defs>
<font id="studiobold_italic" horiz-adv-x="1441" >
<font-face units-per-em="2048" ascent="1479" descent="-569" />
<missing-glyph horiz-adv-x="778" />
<glyph unicode="&#xfb01;" horiz-adv-x="1710" d="M-326 -227q0 53 13.5 97t52 77t98.5 33q54 0 88.5 -34t34.5 -85q0 -53 -40 -95t-95 -55q34 -71 174 -71q121 0 188.5 88t98.5 280l141 834h-174q-31 0 -49.5 22.5t-18.5 59.5q6 30 30 50.5t54 20.5h183l8 37q22 126 70 222t106 152.5t133 92t143 48t142 12.5 q238 0 346 -113q53 -65 53 -156q0 -77 -43.5 -135.5t-122.5 -58.5q-52 0 -86.5 34t-34.5 87q0 46 29.5 83.5t75.5 55.5q-90 55 -236 55q-347 0 -424 -387l-6 -29h686q31 0 50.5 -22.5t19.5 -59.5q-21 -129 -42 -252.5t-33 -194t-17 -106.5v2l-10 -55q-13 -66 -13 -88 q0 -40 24 -64t68 -24q38 0 73 22t52 56q10 20 20 48t14 47l5 18q8 28 32 47.5t52 19.5h2q34 -1 51 -19.5t17 -47.5l-2 -8q-2 -9 -2 -15q-4 -8 -6 -20q-2 -5 -7 -21t-9.5 -29t-12 -32t-16.5 -35q-39 -84 -116.5 -134.5t-164.5 -50.5q-104 0 -167.5 61.5t-63.5 158.5 q0 22 106 645h-614l-129 -770l-13 -74q-6 -35 -9.5 -54t-14 -64t-21.5 -74t-31.5 -73t-43 -73.5t-57 -63t-74 -53.5t-93 -33.5t-114.5 -13.5q-172 0 -258 113q-50 68 -50 164z" />
<glyph unicode="&#xfb02;" horiz-adv-x="1728" d="M-326 -227q0 53 14 97t52.5 77t97.5 33q55 0 90 -34t35 -85q0 -53 -41 -95t-96 -55q37 -71 174 -71q121 0 188.5 88t98.5 280l141 834h-174q-30 0 -49 23t-19 59q6 30 30.5 50.5t57.5 20.5h179l8 37q21 125 63.5 221t94.5 153t117.5 93t125 49t125.5 13q98 0 215 -41 q5 -1 24.5 -7t27 -7.5t26 -6.5t31.5 -7t32 -4.5t38.5 -3.5t41.5 -1q31 0 52 -25t18 -57q-161 -936 -184 -1055q-17 -106 -17 -127q0 -42 23.5 -67t66.5 -25q38 0 73 24.5t52 61.5q10 18 20.5 45.5t15.5 45.5l5 18q6 27 31.5 47t50.5 20q35 -1 53.5 -19.5t18.5 -47.5l-1 -8 q-1 -9 -1 -15q-6 -8 -8 -20q-30 -87 -43 -117q-40 -84 -117.5 -134.5t-167.5 -50.5q-104 0 -165.5 65t-61.5 165q0 23 143 862q7 43 22.5 126.5t22.5 133.5q-60 5 -160 43v-2q-137 45 -192 45q-43 0 -80.5 -7t-83.5 -31.5t-81.5 -65t-67.5 -114.5t-48 -173l-6 -29h318 q30 0 48.5 -18.5t18.5 -46.5v-17q-5 -27 -30.5 -49t-55.5 -22h-323l-129 -770l-13 -74q-73 -502 -458 -502q-172 0 -258 113q-50 68 -50 164z" />
<glyph unicode="gf" horiz-adv-x="2322" d="M-2 -195q0 80 48 150t126 121q-35 51 -35 110q0 156 160 244q-37 80 -37 152q0 112 68 213.5t178 162t229 60.5q116 0 201 -53q44 62 111.5 96.5t142.5 34.5q74 0 131.5 -31t81.5 -92q12 -28 12 -64q0 -21 -4 -49q-10 -54 -57 -91.5t-101 -37.5q-50 0 -84 35.5t-34 85.5 q0 65 47 109q-37 -5 -79 -33.5t-65 -67.5q52 -86 52 -172q0 -84 -40 -165t-105 -141t-152 -97t-177 -37q-140 0 -237 82q-92 -62 -92 -125q0 -21 11 -36t24.5 -22t31.5 -11t25 -4.5t12 -0.5h449q153 0 236 -60.5t83 -168.5q0 -69 -29 -135q-10 -30 -10 -39q0 -38 50 -63 t92 -25q120 0 187.5 88t98.5 280l144 834h-176q-30 0 -49 23t-19 59q6 29 31.5 50t56.5 21h178l8 37q21 125 63.5 221t94.5 152.5t117 92.5t124.5 48.5t123.5 12.5q187 0 274 -115q51 -67 51 -154q0 -76 -43 -135t-121 -59q-54 0 -88 34t-34 87q0 48 31.5 87.5t78.5 57.5 q-55 49 -168 49q-41 0 -77 -7t-81 -31t-79.5 -64.5t-66 -113.5t-48.5 -171l-6 -29h317q31 0 50.5 -18.5t19.5 -46.5v-17q-6 -28 -30.5 -49.5t-55.5 -21.5h-324l-131 -770l-12 -74q-73 -502 -459 -502q-180 0 -258 115q-183 -113 -465 -113q-129 0 -226 20.5t-152 51.5 t-89 74.5t-44.5 81t-10.5 79.5zM152 -180q0 -43 29 -75.5t71.5 -50.5t98 -29.5t99 -15t85.5 -3.5q54 0 112.5 6.5t128 22.5t126.5 50t83 82q21 42 21 78q0 53 -53 76t-130 23h-399q-105 0 -145 8q-52 -20 -89.5 -67t-37.5 -105zM418 594q0 -84 53 -131q64 -64 162 -64 q70 0 139 34.5t115.5 100t46.5 142.5q0 84 -61 140t-154 56q-109 0 -205 -82.5t-96 -195.5z" />
<glyph horiz-adv-x="0" />
<glyph horiz-adv-x="682" />
<glyph unicode=" "  horiz-adv-x="778" />
<glyph unicode="&#x09;" horiz-adv-x="778" />
<glyph unicode="&#xa0;" horiz-adv-x="778" />
<glyph unicode="!" horiz-adv-x="485" d="M154 82q0 -44 33 -76.5t79 -32.5t78.5 32.5t32.5 76.5q0 46 -32.5 79.5t-78.5 33.5t-79 -33.5t-33 -79.5zM250 332l72 1044q7 54 53.5 91.5t103.5 37.5q54 0 86.5 -33t32.5 -86q0 -14 -4 -34l-252 -1020h-92z" />
<glyph unicode="&#x22;" horiz-adv-x="759" d="M264 1436q0 63 43.5 108t106.5 45q67 0 112 -44.5t45 -108.5q0 -48 -20 -84l-180 -303l-76 24l63 217q-42 15 -68 55.5t-26 90.5zM606 1436q0 63 46.5 108t109.5 45q65 0 109 -44.5t44 -108.5q0 -47 -12 -66l-10 -20q-7 -13 -178 -301l-78 24l68 217q-44 15 -71.5 55.5 t-27.5 90.5z" />
<glyph unicode="#" horiz-adv-x="1386" d="M113 469v12q6 32 30 53t54 21h262q16 47 49 142.5t53 154.5h-229q-31 0 -49.5 22.5t-18.5 59.5q5 31 29.5 52.5t56.5 21.5h262l99 292q23 64 98 64q25 -6 39 -25t14 -45q0 -4 -4 -24l-88 -262h264l96 292q11 29 37.5 46.5t61.5 17.5q25 -6 39 -25t14 -45q0 -4 -4 -24 l-88 -262h223q32 0 51 -18.5t19 -49.5v-16q-5 -27 -30.5 -49.5t-55.5 -22.5h-256q-18 -56 -52.5 -152.5t-50.5 -144.5h224q31 0 50 -19.5t19 -50.5v-12q-6 -31 -31.5 -52.5t-56.5 -21.5h-258q-21 -61 -59 -179.5t-58 -180.5q-10 -27 -33.5 -44.5t-48.5 -17.5h-16 q-24 4 -38.5 23.5t-14.5 44.5q0 7 4 27l110 327h-266q-18 -51 -57 -171.5t-64 -188.5q-7 -27 -29.5 -44.5t-47.5 -17.5h-17q-26 4 -40.5 23t-14.5 45q0 7 4 27l113 327h-234q-28 0 -46.5 19.5t-18.5 50.5zM618 555h265l98 297h-260q-16 -49 -50 -144t-53 -153z" />
<glyph unicode="$" horiz-adv-x="1157" d="M115 319q0 73 41.5 128t119.5 55q53 0 85 -34t32 -87q0 -101 -86 -143q74 -71 228 -101q9 54 26 151.5t30 176.5t23 153q-356 56 -356 297q0 90 40.5 164.5t110.5 124t152 81t176 46.5l29 178q5 30 30.5 53t55.5 23q32 0 51 -19.5t19 -49.5v-17l-29 -168 q158 -21 246 -94.5t88 -200.5q-8 -54 -54 -92.5t-104 -38.5q-54 0 -88.5 33.5t-34.5 85.5q0 62 55 117q-61 27 -133 35l-71 -426q58 -10 104 -23t93.5 -37.5t79 -57t51.5 -83.5t20 -115q0 -95 -38.5 -176t-104.5 -137.5t-151.5 -92t-182.5 -48.5l-43 -246 q-6 -31 -30.5 -51.5t-57.5 -20.5q-28 0 -47 18t-19 48v14l41 240q-69 12 -136.5 40t-127 69t-96.5 101t-37 127zM414 932q0 -62 54.5 -99.5t174.5 -56.5l66 395q-55 -6 -104.5 -21.5t-94 -43.5t-70.5 -72.5t-26 -101.5zM690 135q130 19 212.5 90.5t82.5 196.5q0 68 -46 109 t-169 63z" />
<glyph unicode="%" horiz-adv-x="1382" d="M94 45q0 35 29 61l1233 1229q33 29 61 29t49 -21q19 -22 19 -49q0 -31 -23 -61l-1237 -1229q-31 -27 -61 -27q-23 0 -47 17q-23 27 -23 51zM225 995q0 81 46.5 159t126 127.5t167.5 49.5q108 0 178 -71.5t70 -176.5q0 -130 -99 -227.5t-235 -105.5h-4q-109 0 -179.5 69 t-70.5 176zM383 1012q0 -46 32.5 -78.5t78.5 -32.5q62 0 113.5 49.5t51.5 116.5q0 48 -31.5 81.5t-80.5 33.5q-60 0 -112 -51.5t-52 -118.5zM752 219q0 133 101.5 231.5t240.5 104.5h2q108 0 177.5 -70t69.5 -176q0 -128 -102 -232t-235 -104q-110 0 -182 70.5t-72 175.5z M911 238q0 -46 31.5 -78.5t81.5 -32.5q59 0 110.5 50t51.5 114q0 49 -31.5 83t-77.5 34q-63 0 -114.5 -51t-51.5 -119z" />
<glyph unicode="&#x26;" horiz-adv-x="1529" d="M111 338q0 136 79.5 254.5t210.5 183.5q33 13 105 51q-25 29 -64 86q-61 77 -61 181q0 80 40.5 156.5t108.5 133.5q117 93 263 93q135 0 218 -78t83 -203q0 -92 -52.5 -182.5t-136.5 -143.5q-77 -46 -153 -88l213 -272q38 57 74.5 118.5t75.5 132.5t52 93h-69 q-32 0 -51 19.5t-19 50.5v12q6 33 31 52.5t57 19.5h359q31 0 50 -18t19 -48v-16q-6 -31 -31.5 -51.5t-56.5 -20.5h-115q-14 -24 -67.5 -117.5t-108 -183t-106.5 -164.5q29 -35 59.5 -73.5t66 -86t56.5 -73.5h156q30 0 49.5 -20t19.5 -50v-14q-6 -29 -31 -50.5t-55 -21.5 h-358q-33 0 -51.5 22.5t-18.5 59.5q6 28 28.5 50.5t51.5 23.5q-47 54 -71 92l-60 -74l-10 -12q-83 -87 -189 -136t-208 -49q-167 0 -275 103t-108 258zM264 356q0 -96 71 -162.5t177 -66.5q76 0 145.5 38.5t122.5 92.5q11 13 40 50.5t40 51.5l4 9q-49 63 -132.5 174 t-127.5 168q-47 -23 -84.5 -42t-49.5 -25t-15 -7q-78 -36 -134.5 -114t-56.5 -167zM537 1108q0 -55 34 -94l86 -113q36 18 97.5 52t83.5 44q42 28 69 76t27 105q0 66 -43.5 108.5t-114.5 42.5q-83 0 -160 -59q-79 -71 -79 -162z" />
<glyph unicode="'" horiz-adv-x="450" d="M258 1436q0 63 45 108t109 45q67 0 111 -44.5t44 -108.5q0 -33 -16 -76l-182 -311l-78 24l65 217q-43 15 -70.5 56t-27.5 90z" />
<glyph unicode="(" horiz-adv-x="735" d="M143 420q0 364 198 683t513 486h-2q15 10 43 10q43 0 59 -38q7 -12 7 -27q0 -46 -48 -72q-188 -103 -325.5 -273.5t-205 -367.5t-67.5 -401q0 -206 78 -373.5t232 -269.5l-2 2q32 -19 32 -55q0 -30 -18 -52q-30 -30 -66 -30q-19 0 -39 10q-187 123 -288 324.5t-101 443.5 z" />
<glyph unicode=")" horiz-adv-x="737" d="M-20 -295q0 47 40 72q273 147 435.5 432.5t162.5 609.5q0 209 -77.5 376t-233.5 267q-31 21 -31 56q0 21 19 49q22 32 65 32q6 0 21 -4.5t18 -5.5q186 -124 289 -328t103 -444q0 -232 -85 -455t-246 -408t-376 -302q-29 -10 -41 -10q-44 0 -59 34q-4 10 -4 29z" />
<glyph unicode="*" horiz-adv-x="1048" d="M236 850q0 21 11.5 42.5t33.5 31.5h-2l282 163l-223 164q-27 24 -27 54q0 27 19 57q30 33 67 33q27 0 45 -15q42 -30 107 -79.5t98 -73.5l43 276q6 27 32 49.5t56 22.5q32 0 51 -23t19 -59l-41 -262q155 100 250 151q16 13 43 13q42 0 61 -39q6 -10 6 -27q0 -55 -41 -80 l-284 -166l217 -159q31 -19 31 -62q0 -29 -17 -51q-29 -33 -69 -33q-22 0 -41 13l-207 153l-47 -270q-6 -33 -29.5 -52.5t-56.5 -19.5q-29 0 -48.5 18.5t-19.5 47.5v16l43 252q-180 -101 -256 -148q-15 -10 -37 -10q-48 0 -59 33q-10 27 -10 39z" />
<glyph unicode="+" horiz-adv-x="1124" d="M168 494v16q6 31 31 52.5t57 21.5h317q9 60 30 179t30 173q5 31 29.5 53.5t56.5 22.5q31 0 50 -19.5t19 -50.5v-16l-59 -342h307q32 0 51 -19.5t19 -50.5v-14q-4 -31 -28.5 -51.5t-55.5 -20.5h-317q-6 -36 -20 -112t-24 -135t-16 -109q-6 -31 -31.5 -51.5t-56.5 -20.5 t-49.5 18.5t-18.5 47.5v16l56 346h-309q-29 0 -48.5 18.5t-19.5 47.5z" />
<glyph unicode="," horiz-adv-x="401" d="M43 133q0 65 44.5 109.5t109.5 44.5q66 0 110.5 -44.5t44.5 -109.5q0 -45 -16 -78l-184 -309l-78 27l63 215q-42 18 -68 56.5t-26 88.5z" />
<glyph unicode="-" horiz-adv-x="919" d="M172 504q0 34 23 56t53 22h583q33 0 56.5 -22t23.5 -56q0 -31 -24 -55.5t-56 -24.5h-583q-29 0 -52.5 24.5t-23.5 55.5z" />
<glyph unicode="." horiz-adv-x="432" d="M70 135q0 68 46.5 115t110.5 47q67 0 114.5 -47t47.5 -115q0 -67 -47.5 -112.5t-114.5 -45.5q-64 0 -110.5 45.5t-46.5 112.5z" />
<glyph unicode="/" horiz-adv-x="1067" d="M-12 -266q0 20 16 51l1079 1759q10 20 32 32.5t44 12.5q18 0 29 -8q41 -23 41 -63q0 -22 -12 -41l-1090 -1770q-22 -43 -72 -43q-19 0 -35 8q-32 17 -32 62z" />
<glyph unicode="0" horiz-adv-x="1118" d="M154 492q0 111 24 231t75.5 239t123 213t176 152.5t225.5 58.5q185 0 291.5 -138.5t106.5 -375.5q0 -114 -23.5 -234.5t-75 -238t-123 -210t-176.5 -151t-227 -61.5q-186 0 -291.5 139t-105.5 376zM311 512q0 -109 24.5 -192.5t84 -138t147.5 -54.5q90 0 167.5 52 t128 132t87 179t52.5 191t16 169q0 81 -15 149t-44.5 122.5t-80 85.5t-116.5 32q-78 -7 -145 -45t-115 -97.5t-86 -132t-60 -152.5t-33.5 -155.5t-11.5 -144.5z" />
<glyph unicode="1" horiz-adv-x="1083" d="M66 82q5 28 31 51t57 23h338l163 970l-284 -204q-16 -11 -45 -11q-33 0 -58 25q-12 17 -12 41q0 42 39 70l426 307q16 16 59 16q21 0 43 -20.5t15 -59.5l-191 -1134h299q29 0 48.5 -20.5t19.5 -49.5v-14q-6 -29 -31 -50.5t-57 -21.5h-791q-33 0 -53 23t-16 59z" />
<glyph unicode="2" horiz-adv-x="1095" d="M53 76q0 13 12 31t25 30q67 68 364 324.5t388 345.5q36 35 59 62t44.5 70t21.5 85q0 52 -33 106q-76 109 -189 109q-88 0 -173 -44.5t-138 -111.5q42 -18 60 -56t12 -85q-7 -57 -53.5 -95t-104.5 -38q-53 0 -87 35t-34 88v22q28 189 179 310.5t356 121.5q94 0 175 -43.5 t130 -113.5q59 -91 59 -191q0 -86 -46 -162.5t-140 -170.5q-51 -51 -137.5 -131t-151.5 -138t-175.5 -156t-139.5 -124h547l28 166q6 31 30.5 51t55.5 20t50.5 -18t19.5 -47v-17l-41 -237q0 -1 -1 -5.5t-1 -5.5q-12 -27 -35 -45t-49 -18h-817q-31 0 -50.5 21t-19.5 55z" />
<glyph unicode="3" horiz-adv-x="1021" d="M104 258q0 83 43.5 147t126.5 64q53 0 86 -35.5t33 -87.5q0 -51 -28 -90t-78 -59q66 -72 213 -72q90 0 175.5 46t141 129t55.5 179q0 102 -66.5 172t-187.5 70q-36 0 -88 -10q-44 0 -67 20q-21 25 -21 47q0 35 29 64l369 366h-439q-30 0 -47.5 19.5t-17.5 50.5v14 q3 30 29 51t55 21h608q23 0 45.5 -20t22.5 -46q0 -36 -23 -65l-373 -371q147 -19 235.5 -117t88.5 -245q0 -99 -44.5 -195t-118 -168t-174 -116t-206.5 -44q-99 0 -184 33t-139 98t-54 150z" />
<glyph unicode="4" horiz-adv-x="1110" d="M115 414q0 24 18 51q111 157 323.5 452.5t303.5 423.5q27 35 71 35q22 0 37 -6q33 -23 33 -61q0 -17 -12 -41l-553 -776h344l20 106q6 30 30.5 53t51.5 23q33 0 52.5 -20t19.5 -50v-12l-16 -100h168q32 0 51.5 -18.5t19.5 -49.5v-14q-6 -31 -30.5 -51.5t-55.5 -20.5h-178 q-2 -13 -14 -77.5t-17 -104.5h162q32 0 51 -20t19 -50v-14q-6 -29 -30 -50.5t-54 -21.5h-547q-30 0 -48 22.5t-18 59.5q6 30 30.5 52t55.5 22h222l30 182h-471q-32 0 -50.5 20.5t-18.5 55.5z" />
<glyph unicode="5" horiz-adv-x="1064" d="M106 279q0 73 46.5 131.5t121.5 58.5q54 0 86.5 -36.5t32.5 -90.5q0 -42 -27.5 -81.5t-68.5 -61.5q39 -33 97 -52.5t118 -19.5q101 0 195 52.5t153.5 144.5t59.5 196q0 80 -56 154q-35 41 -93 66.5t-128 25.5q-158 0 -260 -72q-21 -18 -51 -18q-38 0 -58 29 q-10 13 -10 34q0 17 4 37l135 518q7 31 33 50.5t58 19.5h559q28 0 46.5 -19.5t18.5 -50.5v-12q-6 -31 -30.5 -52.5t-55.5 -21.5h-495l-84 -327q90 32 204 32q108 0 194.5 -36t141.5 -101q76 -95 76 -235q0 -108 -45.5 -211t-121.5 -180.5t-183 -125t-223 -47.5 q-100 0 -188.5 39.5t-143.5 106.5q-58 76 -58 156z" />
<glyph unicode="6" horiz-adv-x="1067" d="M127 371q0 232 129 452t342 369q119 83 233 126t181 52q1 0 4.5 1t5.5 1q29 0 48 -17.5t20 -51.5q0 -30 -21 -54t-51 -28q-36 -8 -80 -22.5t-118.5 -49.5t-142 -80t-141.5 -119t-126 -162q136 91 264 91q173 0 286 -109t113 -274q0 -131 -75 -251t-201.5 -194t-266.5 -74 q-174 0 -288.5 107t-114.5 287zM281 379q0 -105 76 -178.5t190 -73.5q90 0 174.5 47t139 130t54.5 177q0 105 -73 176.5t-187 71.5q-88 0 -174 -46.5t-143 -128.5t-57 -175z" />
<glyph unicode="7" horiz-adv-x="1007" d="M244 1077v17l30 198q8 31 30 51t54 21h736q27 0 47 -20t20 -50q0 -28 -10 -43l-717 -1220q-26 -47 -74 -47q-4 0 -9.5 1.5t-11.5 3.5l-9 3q-16 9 -27.5 28t-11.5 35q0 19 10 39l653 1116h-540q-3 -21 -8.5 -64t-8.5 -63q-4 -30 -30 -50.5t-56 -20.5q-32 0 -49.5 17.5 t-17.5 47.5z" />
<glyph unicode="8" horiz-adv-x="1103" d="M117 322q0 133 77.5 241t208.5 168q-56 43 -89 104t-33 130q0 117 71 215t182.5 152t233.5 54q163 0 267 -88.5t104 -224.5q0 -211 -217 -344q81 -40 127.5 -113t46.5 -165q0 -135 -81 -245.5t-207.5 -169.5t-266.5 -59q-194 0 -309 94.5t-115 250.5zM270 340 q0 -103 84 -158t203 -55q66 0 132.5 20.5t123 57.5t92 96.5t35.5 130.5q0 100 -85.5 155.5t-201.5 55.5q-66 0 -132.5 -20t-123 -57t-92 -96t-35.5 -130zM440 985q0 -78 64.5 -128t165.5 -50q70 0 139.5 27t120.5 86.5t51 136.5q0 79 -63.5 130.5t-167.5 51.5 q-52 0 -105.5 -17.5t-99.5 -48.5t-75.5 -80.5t-29.5 -107.5z" />
<glyph unicode="9" horiz-adv-x="1038" d="M164 59q0 30 20.5 53t51.5 31q32 7 77.5 23t120.5 54t145.5 87.5t148 130.5t132.5 176q-118 -77 -258 -77q-168 0 -277.5 103.5t-109.5 258.5q0 101 50 197t136 168q151 120 334 120q170 0 281.5 -104.5t111.5 -261.5q0 -229 -137 -469t-334 -377q-180 -127 -407 -182 h-14q-30 0 -51 18t-21 51zM369 915q0 -96 72.5 -161.5t181.5 -65.5q83 1 163 42.5t132.5 115.5t52.5 160q0 97 -71.5 164t-178.5 67q-57 0 -119 -24.5t-113 -65.5q-52 -42 -86 -104.5t-34 -127.5z" />
<glyph unicode=":" horiz-adv-x="434" d="M72 135q0 69 45.5 115.5t111.5 46.5q68 0 115 -46.5t47 -115.5q0 -67 -47 -112.5t-115 -45.5q-66 0 -111.5 45.5t-45.5 112.5zM145 780q0 67 46.5 114.5t113.5 47.5q66 0 113 -48t47 -114q0 -63 -47 -110t-113 -47q-67 0 -113.5 46.5t-46.5 110.5z" />
<glyph unicode=";" horiz-adv-x="434" d="M76 133q0 65 44.5 109.5t108.5 44.5q67 0 112.5 -44.5t45.5 -109.5q0 -41 -18 -78l-185 -309l-78 27l68 215q-45 17 -71.5 56t-26.5 89zM145 780q0 67 46.5 114.5t113.5 47.5q68 0 114 -47.5t46 -114.5q0 -64 -46 -110.5t-114 -46.5q-67 0 -113.5 46.5t-46.5 110.5z" />
<glyph unicode="&#x3c;" horiz-adv-x="1011" d="M143 522q0 23 15 44.5t39 35.5l788 395q18 9 37 9q49 0 63 -41q5 -13 5 -29q0 -20 -15 -43t-37 -33l-657 -330l541 -331q34 -18 34 -58q0 -7 -14 -49q-31 -39 -74 -39q-16 0 -34 10l-656 398q-35 18 -35 61z" />
<glyph unicode="=" horiz-adv-x="1124" d="M137 350q0 34 24 56t56 22h784q32 0 55 -22t23 -56q0 -32 -23.5 -54t-54.5 -22h-784q-31 0 -55.5 22t-24.5 54zM195 657q0 32 21 55t54 23h785q30 0 52.5 -23.5t22.5 -54.5t-22.5 -55t-52.5 -24h-785q-33 0 -54 23.5t-21 55.5z" />
<glyph unicode="&#x3e;" horiz-adv-x="1011" d="M80 123q0 56 45 76l661 331l-542 330q-35 23 -35 62q0 23 16 45q26 39 72 39q21 0 35 -9l655 -395q37 -21 37 -59q0 -52 -51 -82l-791 -398q-18 -10 -37 -10q-22 0 -39.5 12t-21.5 31q-4 10 -4 27z" />
<glyph unicode="?" horiz-adv-x="1044" d="M248 1120q0 108 82 203q62 73 166 114.5t219 41.5q194 0 312 -105.5t118 -275.5q0 -101 -40.5 -191t-110 -156.5t-159 -113t-190.5 -66.5l-31 -200q-5 -30 -29.5 -52t-54.5 -22q-34 0 -54 20.5t-15 49.5q39 256 39 272q5 29 28 51t54 25q72 4 143.5 32.5t130 75t95 115 t36.5 145.5q0 112 -78 182t-211 70q-120 0 -229 -84q68 -38 68 -112q0 -1 -1 -8t-1 -11q-11 -56 -57.5 -95.5t-104.5 -39.5q-52 0 -88.5 37.5t-36.5 97.5zM377 82q0 -45 31.5 -77t76.5 -32q46 0 79.5 32.5t33.5 76.5q0 46 -33.5 79.5t-79.5 33.5q-45 0 -76.5 -33.5 t-31.5 -79.5z" />
<glyph unicode="@" horiz-adv-x="1894" d="M113 338q0 214 103 428.5t276 363.5q136 112 301 173t333 61t295 -69t197 -199q70 -120 70 -283q0 -170 -72 -303q-98 -190 -222.5 -293.5t-228.5 -103.5q-28 0 -55 8q-36 9 -62.5 37.5t-33.5 70.5q-128 -108 -256 -108q-69 0 -126 28.5t-91 79.5q-52 72 -52 181 q0 85 25 153q61 170 204 291t290 121q58 0 113 -27.5t87 -73.5l11 27q9 26 33.5 43t58.5 17q25 0 40 -20.5t15 -47.5q0 -13 -4 -29l-184 -536q-11 -29 -11 -47q0 -15 13 -15q33 0 77.5 26t105 96.5t112.5 174.5q55 104 55 236q0 119 -53 209q-53 99 -147.5 154t-219.5 55 q-164 0 -319.5 -71t-270.5 -187.5t-184.5 -275.5t-69.5 -327q0 -104 33 -190t86.5 -142t123 -94t139.5 -54.5t140 -16.5q121 0 237.5 31t208.5 83.5t164 116t120 133.5q24 41 71 41q29 0 49.5 -19.5t20.5 -49.5q0 -21 -17 -48q-58 -83 -146 -160t-199 -141t-249 -102.5 t-278 -38.5q-105 0 -201.5 25.5t-179.5 78t-144.5 126.5t-96.5 177.5t-35 225.5zM643 432q0 -64 34.5 -113t98.5 -49q94 0 187 82t131 201q24 74 24 125q0 59 -22 90q-39 59 -103 59q-98 0 -198 -88t-138 -207q-14 -46 -14 -100z" />
<glyph unicode="A" horiz-adv-x="1513" d="M2 66v16q6 30 32 52t56 22h117q126 235 362.5 671.5t339.5 628.5q25 49 78 49q27 0 47 -15t23 -42q201 -967 266 -1292h109q30 0 48.5 -20t18.5 -50v-14q-4 -30 -29.5 -51t-56.5 -21h-442q-30 0 -50 19t-20 47v16q6 30 30.5 52t55.5 22h170q-11 53 -35.5 164.5 t-36.5 171.5h-522q-82 -146 -184 -336h153q30 0 50 -20t20 -50v-14q-6 -31 -31 -51.5t-57 -20.5h-442q-30 0 -50 19t-20 47zM643 647h412q-18 88 -53 262.5t-60 290.5z" />
<glyph unicode="B" horiz-adv-x="1374" d="M53 66v16q6 31 31.5 51.5t56.5 20.5h164l197 1169h-152q-31 0 -50 22.5t-19 59.5q6 30 31.5 52t56.5 22h632q149 0 251 -98.5t102 -243.5q0 -115 -64.5 -209t-171.5 -152q182 -78 182 -280q0 -146 -75.5 -260.5t-200 -175t-274.5 -60.5h-627q-30 0 -50 19t-20 47z M463 154h305q97 1 181 36.5t140 111t56 177.5q0 101 -69 156t-197 55h-326zM578 848h323q68 0 135 33.5t113.5 97.5t46.5 139q0 85 -62.5 145t-148.5 60h-328q-13 -76 -38 -229.5t-41 -245.5z" />
<glyph unicode="C" horiz-adv-x="1341" d="M207 573q0 83 15.5 172.5t47.5 180t77 175t107 158t134.5 128.5t163 86.5t188.5 31.5q91 0 173.5 -41t137.5 -110l9 51q3 30 28 52t55 22q32 0 51 -18t19 -48v-16q-40 -238 -57 -297q-3 -25 -26.5 -44.5t-51.5 -19.5q-23 0 -42.5 13.5t-25.5 35.5q-34 131 -107.5 201 t-180.5 70q-104 0 -195.5 -47.5t-156 -126t-111.5 -178t-69.5 -205.5t-22.5 -207q0 -205 99 -335t259 -130q69 0 132.5 23t112 62.5t83.5 79.5t65 87q11 21 32.5 33t41.5 12q29 0 49.5 -17.5t20.5 -48.5q0 -26 -15 -57q-97 -155 -237 -239.5t-303 -84.5q-224 0 -362 165 t-138 431z" />
<glyph unicode="D" horiz-adv-x="1384" d="M55 66v16q6 30 32 52t56 22h117l199 1167h-109q-31 0 -50 22.5t-19 59.5q6 30 32 52t56 22h428q295 0 452.5 -146t157.5 -420q0 -190 -56 -355t-161.5 -289.5t-268.5 -196.5t-364 -72h-434q-29 0 -48.5 19t-19.5 47zM418 156h157q210 3 364 99t233 262t79 382 q0 208 -120 316t-353 108h-164z" />
<glyph unicode="E" horiz-adv-x="1323" d="M55 82q6 30 31.5 52t56.5 22h138l194 1167h-127q-31 0 -50 22.5t-19 59.5q6 30 30.5 52t57.5 22h917q33 0 52.5 -19.5t19.5 -48.5v-14l-43 -250q-6 -32 -30 -53t-56 -21q-30 0 -49 19t-19 49v14l29 168h-555q-55 -340 -80 -479h317l21 112q6 31 30.5 51.5t55.5 20.5 t50.5 -18t19.5 -47v-17l-62 -362q-6 -30 -31 -52t-55 -22q-33 0 -51.5 19.5t-18.5 48.5v16l15 94h-314l-90 -532h613l37 227q6 32 31.5 55t56.5 23q30 0 47.5 -20t17.5 -50v-12l-47 -305q0 -1 -2 -5.5t-2 -5.5q-11 -26 -35 -44.5t-49 -18.5h-983q-31 0 -50.5 22.5 t-19.5 59.5z" />
<glyph unicode="F" horiz-adv-x="1247" d="M55 82q6 30 32 52t56 22h138l198 1167h-133q-29 0 -48 20t-19 50v14q6 28 32 50t56 22h962q28 0 47 -21.5t19 -56.5l-41 -254q-6 -32 -30.5 -53t-55.5 -21t-49.5 18.5t-18.5 49.5v14l27 168h-594q-55 -340 -80 -479h317l21 112q6 31 30.5 51.5t55.5 20.5t50.5 -18 t19.5 -47v-17l-62 -362q-6 -30 -31 -52t-55 -22q-33 0 -51.5 19.5t-18.5 48.5v16l19 94h-318l-90 -532h320q30 0 49.5 -20t19.5 -50v-14q-6 -28 -32 -50t-56 -22h-616q-31 0 -50.5 22.5t-19.5 59.5z" />
<glyph unicode="G" horiz-adv-x="1384" d="M199 565q0 97 20.5 202t60 210.5t101.5 200.5t139.5 168t181 116t218.5 43q93 0 180.5 -41.5t146.5 -111.5l6 53q6 31 31.5 52.5t56.5 21.5t50.5 -18.5t19.5 -47.5v-16l-51 -287q-7 -30 -30 -52t-58 -22q-24 0 -43 14t-23 35q-35 130 -115 200.5t-188 70.5 q-103 0 -193.5 -48.5t-154 -127.5t-109.5 -180t-68 -206.5t-22 -205.5q0 -203 95.5 -332t253.5 -129q88 0 162 29t123 77.5t79 94.5t51 96l27 162h-180q-32 0 -50 18.5t-18 48.5v15q3 30 28.5 50.5t55.5 20.5h391q31 0 50.5 -18.5t19.5 -46.5v-17q-6 -31 -30.5 -51 t-57.5 -20h-51l-88 -527q-6 -31 -31.5 -51t-57.5 -20q-31 0 -50 18t-19 47v17l10 45q-161 -138 -383 -138q-221 0 -354 162.5t-133 425.5z" />
<glyph unicode="H" horiz-adv-x="1515" d="M59 66v16q5 30 30.5 52t55.5 22h111l197 1167h-97q-29 0 -48 22.5t-19 59.5q6 30 30.5 52t57.5 22h383q29 0 48 -20t19 -48v-16q-6 -27 -32 -49.5t-56 -22.5h-131q-11 -69 -37 -228t-41 -253h693q16 94 43 256.5t37 224.5h-115q-31 0 -49.5 22.5t-18.5 59.5q6 30 31.5 52 t56.5 22h379q31 0 50.5 -19.5t19.5 -48.5v-16q-5 -27 -30.5 -49.5t-55.5 -22.5h-109l-198 -1167h110q30 0 49 -20t19 -50v-14q-4 -30 -29.5 -51t-56.5 -21h-395q-33 0 -51.5 18.5t-18.5 47.5v16q6 30 30.5 52t55.5 22h131l90 530h-694l-92 -530h133q30 0 48.5 -20t18.5 -50 v-12q-4 -30 -30.5 -52t-55.5 -22h-399q-30 0 -49 19t-19 47z" />
<glyph unicode="I" horiz-adv-x="802" d="M53 66v14q5 31 29.5 53.5t54.5 22.5h205l199 1167h-199q-30 0 -49 20t-19 50v14q5 29 30 50.5t56 21.5h566q33 0 51 -22t18 -60q-6 -29 -30.5 -51.5t-55.5 -22.5h-213l-194 -1167h203q31 0 49 -20t18 -50v-14q-5 -31 -29.5 -51.5t-56.5 -20.5h-565q-29 0 -48.5 19 t-19.5 47z" />
<glyph unicode="J" horiz-adv-x="1013" d="M-6 254q0 73 46 137t124 64q53 0 87 -35t34 -88q0 -47 -30.5 -84.5t-80.5 -54.5q30 -27 86.5 -47.5t120.5 -20.5q37 0 73 10.5t77.5 38.5t76.5 70.5t66.5 113.5t50.5 162l135 803h-358q-31 0 -50.5 22.5t-19.5 59.5q6 30 32 52t56 22h637q30 0 50 -20t20 -48v-16 q-6 -27 -32.5 -49.5t-55.5 -22.5h-123q-24 -152 -75.5 -459.5t-59.5 -353.5q-87 -533 -519 -533q-215 0 -311 123q-57 57 -57 154z" />
<glyph unicode="K" d="M59 66v16q3 29 28 51.5t56 22.5h146l200 1167h-141q-31 0 -49 22.5t-18 59.5q5 30 30.5 52t55.5 22h219q31 0 50 -19.5t19 -48.5v-16l-102 -619l537 547h-95q-32 0 -50.5 22.5t-18.5 59.5q6 30 31.5 52t56.5 22h422q30 0 49.5 -20t19.5 -48v-16q-6 -27 -32 -49.5 t-56 -22.5h-123l-512 -516q88 -134 435 -651h147q30 0 50 -20t20 -50v-14q-6 -31 -30.5 -51.5t-57.5 -20.5h-422q-32 0 -51 19t-19 47v16q6 30 31.5 52t56.5 22h80q-306 456 -356 530l-160 -162l-57 -368h137q31 0 50 -20t19 -50v-14q-4 -31 -28.5 -51.5t-55.5 -20.5h-444 q-31 0 -49.5 18.5t-18.5 47.5z" />
<glyph unicode="L" horiz-adv-x="1196" d="M55 82q5 30 30.5 52t55.5 22h135l197 1167h-127q-36 0 -54.5 25t-12.5 57q5 30 28.5 52t52.5 22h457q33 0 52.5 -24.5t13.5 -59.5q-6 -28 -30.5 -50t-53.5 -22h-166l-201 -1167h574l43 264q6 29 31.5 50.5t56.5 21.5q28 0 47 -26t22 -56l-57 -338q-6 -31 -30.5 -51.5 t-55.5 -20.5h-938q-35 0 -55 23q-16 18 -16 45q0 7 1 14z" />
<glyph unicode="M" horiz-adv-x="1841" d="M76 66v16q6 30 31.5 52t56.5 22h127l198 1167h-108q-32 0 -51 22.5t-19 59.5q6 30 31.5 52t56.5 22h275q25 0 37 -6.5t18 -28.5l262 -873q93 148 277.5 435.5t277.5 435.5q26 37 64 37h266q29 0 48.5 -20t19.5 -48v-16q-6 -27 -32.5 -49.5t-56.5 -22.5h-110l-195 -1167 h121q32 0 51 -20t19 -50v-14q-6 -31 -29.5 -51.5t-54.5 -20.5h-451q-33 0 -51 18.5t-18 47.5v16q3 29 28 51.5t56 22.5h172l178 1052q-98 -156 -282.5 -442t-260.5 -406q-24 -40 -65 -45q-61 0 -80 54l-256 841l-176 -1054h163q30 0 50 -20t20 -50v-14q-6 -31 -31.5 -51.5 t-56.5 -20.5h-451q-30 0 -49.5 19t-19.5 47z" />
<glyph unicode="N" horiz-adv-x="1482" d="M72 66v16q6 30 31 52t55 22h129l196 1167h-106q-31 0 -50.5 22.5t-19.5 59.5q6 30 30.5 52t55.5 22h271q41 0 57 -43q71 -176 212.5 -523t223.5 -551l158 961h-139q-30 0 -50 20t-20 50v14q6 29 31 50.5t55 21.5h450q31 0 50.5 -22.5t19.5 -59.5q-6 -29 -30.5 -51.5 t-55.5 -22.5h-151l-213 -1257q-6 -28 -30.5 -50t-55.5 -22q-21 0 -46 18q-1 0 -22 29l-481 1198l-183 -1083h164q30 0 50 -20t20 -50v-14q-6 -31 -30.5 -51.5t-55.5 -20.5h-451q-30 0 -49.5 19t-19.5 47z" />
<glyph unicode="O" d="M207 561q0 106 22.5 216t64.5 215.5t107 198t144.5 163t182 111t214.5 40.5q97 0 179.5 -34.5t138.5 -92.5t95.5 -135t58 -161t18.5 -171q0 -130 -31.5 -261t-95.5 -250.5t-151 -213t-206.5 -150t-253.5 -59.5q-128 0 -236.5 64t-170.5 172q-80 142 -80 348zM360 578 q0 -203 95 -327t256 -124q203 0 352 178q104 118 156.5 273t52.5 315q0 84 -20.5 163t-60.5 147t-107.5 110t-153.5 43q-111 -8 -206.5 -60t-161 -131.5t-112 -179.5t-68.5 -203.5t-22 -203.5z" />
<glyph unicode="P" horiz-adv-x="1277" d="M55 66v16q6 30 32 52t56 22h156l195 1167h-146q-31 0 -50 22.5t-19 59.5q6 30 32 52t56 22h618q176 0 282.5 -94t106.5 -248q0 -51 -8 -78q-33 -175 -179 -294.5t-335 -119.5h-315q-7 -46 -34.5 -217t-43.5 -272h260q31 0 50 -20t19 -50v-14q-6 -31 -30.5 -51.5 t-57.5 -20.5h-575q-30 0 -50 19t-20 47zM563 801h309q84 1 163 40t131.5 112t52.5 161q0 96 -67 152.5t-185 56.5h-314z" />
<glyph unicode="Q" horiz-adv-x="1443" d="M209 561q0 117 30 245t92.5 252.5t148 224t206.5 161t258 61.5q132 0 237 -60.5t169 -174.5q84 -147 84 -359q0 -195 -75.5 -390.5t-211.5 -346.5l76 -108q16 -19 16 -43q0 -40 -41 -70q-17 -14 -47 -14q-34 0 -55 24l-82 103q-153 -89 -318 -89q-128 0 -236.5 64 t-170.5 172q-80 142 -80 348zM362 578q0 -203 95 -327t258 -124q113 0 215 57l-80 103q-16 19 -16 43q0 39 36 67q26 17 54 17q34 0 53 -25q41 -46 78 -98l12 14q99 116 153 270t54 318q0 175 -66 289q-96 174 -278 174q-106 0 -199.5 -49t-159.5 -129.5t-114 -182.5 t-71.5 -209t-23.5 -208z" />
<glyph unicode="R" horiz-adv-x="1415" d="M55 66v14q4 31 30.5 53.5t55.5 22.5h156l197 1167h-148q-31 0 -50.5 22.5t-19.5 59.5q6 30 31 52t55 22h594q179 0 286.5 -94t107.5 -248q0 -182 -131 -317t-320 -167l279 -497h143q32 0 51 -20t19 -50v-14q-6 -31 -31 -51.5t-57 -20.5h-422q-30 0 -50 19t-20 47v16 q6 30 30.5 52t57.5 22h92l-280 489h-170q-4 -24 -37 -205.5t-49 -283.5h153q30 0 50 -20t20 -50v-14q-6 -31 -30.5 -51.5t-55.5 -20.5h-469q-29 0 -48.5 19t-19.5 47zM563 801h281q86 0 164.5 39t130 113.5t51.5 164.5q0 94 -67 149.5t-183 55.5h-291z" />
<glyph unicode="S" horiz-adv-x="1267" d="M106 59v13l60 352q8 31 33 51.5t57 20.5q30 0 50 -18.5t20 -47.5q6 -22 21 -54.5t46.5 -77.5t71 -82t100.5 -63t129 -26q83 0 161.5 40t130.5 116.5t52 169.5q0 85 -82.5 148t-236.5 97q-95 21 -168.5 54t-118 70t-73 80.5t-39.5 83t-11 79.5q0 120 69.5 222t183 160 t241.5 58q229 0 344 -166l14 82q6 30 33 52t55 22q31 0 50.5 -19.5t19.5 -48.5v-14l-55 -328q-8 -27 -32 -48t-54 -21q-24 0 -44 17.5t-26 41.5t-14.5 49.5t-33.5 70t-57.5 77t-90 57.5t-126.5 25q-77 0 -148.5 -30.5t-122 -95.5t-50.5 -149q0 -80 78.5 -139t224.5 -90 q103 -21 182 -56t124.5 -73.5t74.5 -85t39 -86t10 -80.5q0 -129 -71.5 -242.5t-192.5 -181.5t-258 -68q-263 0 -391 216l-25 -130q-4 -30 -28.5 -50.5t-55.5 -20.5t-50.5 19t-19.5 48z" />
<glyph unicode="T" horiz-adv-x="1241" d="M225 1069v14l54 322q6 30 30.5 52t57.5 22h964q30 0 46 -18t16 -48v-18l-58 -322q-3 -30 -28 -51t-56 -21q-30 0 -47.5 18.5t-17.5 49.5v14l37 240h-322l-196 -1167h215q31 0 49 -20t18 -50v-14q-4 -30 -29.5 -51t-56.5 -21h-586q-30 0 -49.5 19t-19.5 47v16q6 30 31 52 t55 22h215l198 1167h-325l-41 -250q-4 -31 -28.5 -51.5t-55.5 -20.5q-33 0 -51.5 18.5t-18.5 49.5z" />
<glyph unicode="U" horiz-adv-x="1310" d="M197 1405q6 29 31 51.5t53 22.5h378q30 0 49 -20t19 -48v-16q-6 -28 -30.5 -50t-53.5 -22h-117q-143 -872 -143 -893q0 -129 81 -216t206 -87q144 0 265.5 112t149.5 265q56 340 138 819h-99q-29 0 -47 20t-18 48v14q6 31 30 52.5t56 21.5h364q29 0 48.5 -20t19.5 -48 v-16q-6 -27 -31.5 -49.5t-52.5 -22.5h-113l-141 -829q-28 -136 -115.5 -254.5t-213 -190.5t-257.5 -72q-187 0 -307.5 124.5t-120.5 312.5q0 41 146 909h-105q-31 0 -50 22.5t-19 59.5z" />
<glyph unicode="V" horiz-adv-x="1495" d="M209 1393v14q6 29 31 50.5t55 21.5h432q29 0 47.5 -22.5t18.5 -59.5q-5 -28 -30.5 -51t-55.5 -23h-175l213 -1044q110 206 309.5 574t254.5 470h-160q-32 0 -51 20t-19 50v14q6 29 31.5 50.5t56.5 21.5h430q29 0 47.5 -22.5t18.5 -59.5q-5 -29 -30 -51.5t-56 -22.5h-98 l-699 -1298q-30 -52 -80 -52q-26 0 -45 17.5t-22 42.5l-266 1290h-88q-32 0 -51 20t-19 50z" />
<glyph unicode="W" horiz-adv-x="1783" d="M213 1405q5 30 29.5 52t54.5 22h451q31 0 50 -19.5t19 -48.5v-16q-5 -27 -30.5 -49.5t-55.5 -22.5h-199l36 -965l409 824q28 57 76 57h14q28 0 41 -16t20 -45l129 -822l359 967h-191q-31 0 -50 22.5t-19 59.5q6 30 32 52t56 22h450q30 0 50 -20t20 -48v-16 q-6 -28 -31.5 -50t-56.5 -22h-102l-469 -1278q-10 -21 -18 -33t-26 -23.5t-42 -11.5q-25 0 -44.5 13.5t-25.5 38.5l-141 882q-68 -137 -223.5 -447.5t-221.5 -445.5q-14 -23 -28.5 -32t-49.5 -9q-67 0 -67 78q-7 215 -22.5 634t-22.5 634h-92q-32 0 -50 22.5t-18 59.5z" />
<glyph unicode="X" horiz-adv-x="1366" d="M0 66v16q6 29 32 51.5t54 22.5h123l491 612q-44 97 -131 278t-131 277h-108q-32 0 -51 22.5t-19 59.5q6 30 31.5 52t56.5 22h377q30 0 49 -20t19 -48v-16q-5 -27 -30.5 -49.5t-55.5 -22.5h-89l195 -418q70 87 184.5 231.5t147.5 186.5h-58q-32 0 -50.5 22.5t-18.5 59.5 q5 30 30.5 52t55.5 22h375q32 0 50.5 -19.5t18.5 -48.5v-16q-6 -28 -30.5 -50t-53.5 -22h-133q-91 -111 -258 -322.5t-192 -242.5q55 -121 156 -337t124 -265h131q30 0 50 -20t20 -50v-14q-6 -31 -30.5 -51.5t-57.5 -20.5h-389q-30 0 -49 19t-19 47v16q5 30 30.5 52t55.5 22 h82l-215 458q-64 -82 -186.5 -229.5t-186.5 -228.5h82q30 0 49 -20t19 -50v-14q-5 -31 -29.5 -51.5t-56.5 -20.5h-391q-30 0 -50 19t-20 47z" />
<glyph unicode="Y" horiz-adv-x="1304" d="M215 1405q6 30 31 52t55 22h385q31 0 50.5 -23.5t19.5 -60.5q-6 -27 -32 -49.5t-56 -22.5h-121q37 -105 110.5 -307t114.5 -320q391 572 428 627h-113q-31 0 -50 22.5t-19 59.5q6 30 32 52t56 22h383q30 0 50 -20t20 -48v-16q-6 -28 -30.5 -50t-55.5 -22h-99l-553 -813 q-10 -59 -30.5 -174t-30.5 -180h213q30 0 49.5 -20t19.5 -50v-14q-6 -31 -31 -51.5t-57 -20.5h-585q-30 0 -50 19t-20 47v16q6 30 30.5 52t57.5 22h217q60 343 62 358q-50 137 -143.5 404.5t-143.5 404.5h-94q-31 0 -50.5 22.5t-19.5 59.5z" />
<glyph unicode="Z" horiz-adv-x="1222" d="M82 66q0 32 20 55l1008 1202h-649l-41 -250q-6 -31 -30.5 -51.5t-57.5 -20.5q-31 0 -49.5 18.5t-18.5 49.5v14l55 324q6 29 30 50.5t54 21.5h875q27 0 49.5 -19.5t22.5 -48.5q0 -31 -21 -55l-1007 -1200h673l49 264q6 31 30 52.5t54 21.5q31 0 50.5 -19.5t19.5 -50.5v-14 l-59 -338q-3 -30 -28 -51t-56 -21h-903q-29 0 -49.5 18t-20.5 48z" />
<glyph unicode="[" horiz-adv-x="749" d="M29 -340l321 1927h502q31 0 50.5 -19t19.5 -50v-13q-6 -31 -31.5 -52t-56.5 -21h-351l-274 -1618h354q31 0 50.5 -19.5t19.5 -50.5v-12q-6 -33 -31 -52.5t-57 -19.5h-516z" />
<glyph unicode="\" horiz-adv-x="1052" d="M305 1483q-11 35 16 70.5t70 35.5q25 0 44.5 -14t23.5 -37l477 -1769l4 -21q0 -20 -16.5 -42.5t-38.5 -33.5q-16 -8 -35 -8q-25 0 -44.5 13t-23.5 36z" />
<glyph unicode="]" horiz-adv-x="749" d="M4 -258q6 31 31.5 51.5t56.5 20.5h359l270 1618h-342q-31 0 -50.5 18.5t-19.5 48.5v17q6 30 31.5 50.5t56.5 20.5h508l-323 -1927h-508q-31 0 -50.5 18t-19.5 48v16z" />
<glyph unicode="^" horiz-adv-x="768" d="M336 1509q0 22 12 37l236 285q8 10 16 17.5t16.5 12.5t13.5 8.5t14.5 6t12 3t12.5 2t11 1.5h27q47 -8 71 -41l13 -20l141 -285q0 -1 1 -5t1 -5q0 -22 -18.5 -41t-41.5 -19q-13 0 -26 13l-184 190l-256 -196q-12 -9 -27 -9q-16 0 -30.5 13.5t-14.5 31.5z" />
<glyph unicode="_" horiz-adv-x="1884" d="M86 51q0 32 24 56t54 24h1517q32 0 55 -24t23 -56q0 -30 -23 -54t-55 -24h-1517q-29 0 -53.5 24.5t-24.5 53.5z" />
<glyph unicode="`" horiz-adv-x="581" d="M381 1769q0 59 49 105q38 35 86 35q52 0 82 -37q28 -35 158 -305q4 -12 4 -19q0 -22 -15.5 -37.5t-39.5 -15.5q-18 0 -29 8l-254 187l-19 14q-22 28 -22 65z" />
<glyph unicode="a" horiz-adv-x="1251" d="M125 408q0 105 41.5 213t112 196.5t175.5 144.5t222 56q195 0 291 -148l14 76q3 31 28 53.5t56 22.5t50.5 -22t19.5 -58l-138 -805q0 -3 3 -6.5t6 -3.5q20 0 47 55l22 43q19 45 66 45q30 0 55 -22.5t25 -52.5q0 -14 -9 -29q-15 -38 -31.5 -67t-41 -59t-58.5 -46.5 t-75 -16.5q-65 0 -114.5 43t-49.5 113q-70 -73 -155.5 -114.5t-176.5 -41.5q-170 0 -277.5 123t-107.5 308zM279 422q0 -126 69.5 -210.5t175.5 -84.5q128 0 243 121.5t138 277.5q8 33 8 68q0 121 -71.5 198.5t-184.5 77.5q-78 0 -149.5 -40.5t-120.5 -104.5t-78.5 -144 t-29.5 -159z" />
<glyph unicode="b" horiz-adv-x="1099" d="M111 66v14l10 53q31 194 98.5 595.5t99.5 596.5h-135q-32 0 -50.5 19t-18.5 49v14q6 30 30 51t54 21h221q29 0 47 -18.5t18 -47.5v-16l-88 -525q146 146 330 146q168 0 275.5 -120.5t107.5 -305.5q0 -83 -25.5 -170t-75.5 -166t-115.5 -142t-152.5 -100t-180 -37 q-96 0 -170 40t-117 114l-10 -59q-6 -32 -30.5 -52t-55.5 -20q-32 0 -49.5 17.5t-17.5 48.5zM328 430q0 -126 72 -214.5t178 -88.5q103 0 192 69.5t137.5 173t48.5 208.5q0 124 -69.5 208t-175.5 84q-128 0 -239 -108.5t-136 -261.5q-8 -33 -8 -70z" />
<glyph unicode="c" horiz-adv-x="1015" d="M154 414q0 112 42.5 218.5t116 189t179.5 136t225 60.5h2q87 0 162.5 -28t124.5 -85t49 -133q0 -70 -44 -127t-116 -57q-54 0 -88.5 33.5t-34.5 85.5q0 44 22 81.5t60 59.5q-44 24 -149 24q-106 0 -199 -65t-146 -167t-53 -210q0 -131 73.5 -217t190.5 -86 q77 0 160.5 48.5t147.5 123.5q26 33 65 33q26 0 41 -10q21 -10 23.5 -47t-13.5 -58q-79 -110 -199.5 -175t-242.5 -65q-173 0 -286 125.5t-113 311.5z" />
<glyph unicode="d" horiz-adv-x="1241" d="M162 408q0 83 25.5 170t75 165.5t115.5 140t153 98t180 36.5q97 0 170.5 -39.5t115.5 -110.5q63 342 80 457h-164q-30 0 -47.5 19t-17.5 49v14q3 29 28 50.5t56 21.5h244q30 0 48.5 -18.5t18.5 -47.5v-16l-209 -1256q-1 -4 -0.5 -7t2 -5t2.5 -2q19 0 47 51l21 47 q10 21 30.5 33t41.5 12q11 0 32 -6q43 -15 43 -69q0 -27 -32 -89q-63 -129 -183 -129q-76 0 -125 52q-34 46 -34 98q-147 -150 -336 -150q-167 0 -274 123t-107 308zM315 422q0 -125 70 -210t176 -85q127 0 240 114.5t139 268.5q6 37 6 72q0 122 -70.5 205t-181.5 83 q-102 0 -191 -68t-138.5 -171t-49.5 -209z" />
<glyph unicode="e" horiz-adv-x="1089" d="M147 412q0 144 68.5 279t195 226t279.5 101h35q174 0 276.5 -83.5t102.5 -213.5q0 -69 -31 -122.5t-89.5 -89t-130.5 -59.5t-168 -37t-186 -18t-200 -6q12 -115 85 -188.5t181 -73.5q81 0 161.5 46.5t141.5 125.5q23 33 68 33q31 0 50.5 -17t19.5 -49q0 -25 -13 -41 q-90 -115 -206.5 -181.5t-235.5 -66.5q-176 0 -290 124.5t-114 310.5zM319 532q120 1 224 10t203.5 29t158 59.5t58.5 94.5q0 64 -71 106.5t-185 42.5h-13q-111 -3 -218 -97.5t-157 -244.5z" />
<glyph unicode="f" horiz-adv-x="1062" d="M-330 -227q0 53 13.5 97t52 77t98.5 33q55 0 90 -34t35 -85q0 -53 -41.5 -95t-97.5 -55q39 -71 174 -71q121 0 188.5 88t98.5 280l143 834h-176q-29 0 -47.5 22.5t-18.5 59.5q5 30 29.5 50.5t56.5 20.5h181l6 37q21 125 63.5 221t94 152.5t117 92.5t124.5 48.5t123 12.5 q192 0 274 -115q52 -65 52 -154q0 -76 -43 -135t-121 -59q-54 0 -88.5 34t-34.5 87q0 48 31.5 87.5t78.5 57.5q-58 49 -165 49q-42 0 -79 -7t-82 -31t-79.5 -64.5t-66 -113.5t-48.5 -171l-4 -29h318q30 0 48.5 -18.5t18.5 -46.5v-17q-5 -27 -30.5 -49t-55.5 -22h-323 l-129 -770l-15 -74q-73 -502 -457 -502q-171 0 -260 113q-47 67 -47 164z" />
<glyph unicode="g" horiz-adv-x="1259" d="M-18 -195q0 79 49 149t125 122q-31 45 -31 110q0 158 156 244q-35 75 -35 152q0 112 68.5 213.5t178.5 162t228 60.5q116 0 201 -53q46 62 112.5 96.5t141.5 34.5q74 0 131 -31t84 -92q11 -29 11 -64q0 -23 -5 -49q-10 -53 -56.5 -91t-99.5 -38t-88 35.5t-35 85.5 q0 60 49 109q-38 -5 -79 -33.5t-62 -67.5q49 -86 49 -172q0 -112 -67.5 -214.5t-177 -164t-228.5 -61.5q-138 0 -235 82q-93 -60 -93 -125q0 -21 11 -36t25 -22t32 -11t25 -4.5t12 -0.5h448q153 0 235.5 -60.5t82.5 -168.5q0 -87 -40.5 -158t-105.5 -115.5t-150.5 -75 t-171.5 -43t-173 -12.5q-129 0 -226 20.5t-152 51.5t-89 74.5t-44.5 81t-10.5 79.5zM135 -180q0 -43 29 -75.5t71.5 -50.5t98.5 -29.5t100.5 -15t87.5 -3.5q50 0 104 5t121.5 21t119.5 41t88 69.5t36 102.5q0 53 -53.5 76t-128.5 23h-399q-108 0 -144 8q-55 -20 -93 -66.5 t-38 -105.5zM401 594q0 -77 54 -131q64 -64 163 -64q71 0 139.5 34.5t115.5 100t47 142.5q0 84 -60.5 140t-154.5 56q-109 0 -206.5 -82.5t-97.5 -195.5z" />
<glyph unicode="h" horiz-adv-x="1341" d="M49 80q5 31 29 52.5t55 21.5h146l200 1171h-141q-29 0 -46.5 23t-17.5 59q5 29 29 50.5t53 21.5h219q31 0 49.5 -18.5t18.5 -47.5v-16l-82 -484q126 105 307 105q165 0 259 -81t94 -222q0 -43 -9 -78l-82 -492q-1 -8 4 -11t13 -3q5 0 14.5 11t14.5 22l22 86q9 27 33.5 46 t50.5 19h2q33 -3 50.5 -22.5t17.5 -46.5q0 -8 -7 -36t-15 -52l-7 -23q-22 -70 -75 -114t-122 -44q-67 0 -118 54q-33 43 -33 98q0 13 2 27l82 497q6 21 6 41q0 85 -55 131.5t-160 46.5q-121 0 -221.5 -77t-114.5 -162l-80 -479h137q30 0 48 -19.5t18 -50.5v-12 q-3 -29 -28 -50.5t-56 -21.5h-436q-31 0 -49.5 21.5t-18.5 58.5z" />
<glyph unicode="i" horiz-adv-x="808" d="M39 924q4 29 29.5 50t56.5 21h305q30 0 48 -22.5t18 -59.5q-44 -289 -93 -551q-20 -117 -20 -143q0 -41 23.5 -64.5t68.5 -23.5q38 0 73 22t50 56q11 20 21.5 48.5t14.5 46.5l5 18q6 27 30.5 47t51.5 20h4q32 -1 50 -19t18 -48q0 -18 -11 -43q-11 -41 -43 -117 q-40 -85 -117 -135t-167 -50q-102 0 -165 62t-63 158q0 19 39 250q36 218 66 395h-226q-31 0 -49 22.5t-18 59.5zM315 1298q0 68 44.5 113t111.5 45q68 0 113 -44.5t45 -113.5q0 -66 -45 -109.5t-113 -43.5q-66 0 -111 43.5t-45 109.5z" />
<glyph unicode="j" horiz-adv-x="696" d="M-313 -254q0 77 41.5 137t121.5 60q53 0 87 -35t34 -88q0 -43 -28.5 -80.5t-77.5 -54.5q24 -18 70.5 -30.5t95.5 -12.5q36 0 72.5 10.5t77 38t75 70t65 112t48.5 158.5l135 811h-260q-33 0 -51.5 22.5t-18.5 59.5q6 30 30 50.5t54 20.5h346q32 0 49 -22t17 -60l-148 -890 q-87 -527 -510 -527q-184 0 -276 96q-49 61 -49 154zM459 1298q0 69 44.5 113.5t112.5 44.5q66 0 111 -45t45 -113q0 -66 -45 -109.5t-111 -43.5q-68 0 -112.5 43.5t-44.5 109.5z" />
<glyph unicode="k" horiz-adv-x="1329" d="M49 66v14q5 31 29 52.5t55 21.5h143l199 1171h-137q-30 0 -49 23t-19 59q6 30 31 51t55 21h217q30 0 48 -18t18 -48v-16l-154 -934q69 63 198 186t206 193h-82q-31 0 -50.5 22.5t-19.5 59.5q6 30 31 50.5t55 20.5h418q30 0 49 -18.5t19 -46.5v-17q-6 -27 -32 -49t-54 -22 h-125l-279 -260l287 -428h154q31 0 50 -19.5t19 -50.5v-12q-6 -32 -30.5 -52t-55.5 -20h-340q-31 0 -48 17.5t-17 48.5v14q3 28 23.5 49t49.5 25l-213 317l-249 -242q-2 -9 -9.5 -33t-9.5 -42h141q30 0 48 -19.5t18 -50.5v-12q-3 -31 -27.5 -51.5t-56.5 -20.5h-436 q-32 0 -50 17.5t-18 48.5z" />
<glyph unicode="l" horiz-adv-x="706" d="M80 1407q3 29 28 50.5t56 21.5h274q32 0 50 -18t18 -48v-16q-18 -110 -176 -1051q-19 -106 -19 -127q0 -42 23.5 -67t66.5 -25q37 0 72.5 24t56.5 62q9 18 18 45.5t14 45.5l5 18q7 28 31.5 47.5t50.5 19.5h4q32 -1 50 -19t18 -48q0 -18 -10 -43q-11 -41 -43 -117 q-40 -84 -117.5 -134.5t-167.5 -50.5q-103 0 -165 65t-62 165q0 35 182 1118h-193q-30 0 -47.5 23t-17.5 59z" />
<glyph unicode="m" horiz-adv-x="1796" d="M53 66v14q6 31 30 52.5t54 21.5h148l114 688h-125q-31 0 -50 22.5t-19 59.5q6 30 30 50.5t54 20.5h207q30 0 48.5 -20t20.5 -51q108 94 234 94q101 0 167.5 -37t92.5 -107q128 144 291 144q139 0 210.5 -68t71.5 -198q0 -44 -6 -78l-76 -451l-14 -78q-1 -8 4.5 -13 t9.5 -5q10 0 18 7t14 24.5t8 25t7 29.5l11 41q6 26 31 44.5t51 18.5h2q32 -1 49.5 -20t17.5 -47q0 -10 -2 -19.5t-6 -22t-6 -20.5q-18 -58 -31 -86.5t-31 -48.5q-58 -76 -149 -76q-69 0 -121 52q-31 47 -31 92l2 33l89 530q4 20 4 55q0 131 -146 131q-94 0 -172 -85.5 t-102 -202.5l-70 -428h103q30 0 48.5 -19.5t18.5 -50.5v-12q-4 -32 -28.5 -52t-55.5 -20h-373q-31 0 -48 17.5t-17 48.5v14q6 31 30 52.5t54 21.5h112l91 530q4 23 4 55q0 131 -144 131q-93 0 -172 -87t-100 -201l-72 -428h105q30 0 47.5 -19.5t17.5 -50.5v-12 q-4 -32 -28.5 -52t-55.5 -20h-401q-31 0 -50.5 18t-19.5 48z" />
<glyph unicode="n" horiz-adv-x="1339" d="M49 66v14q5 31 29 52.5t55 21.5h143l117 688h-137q-30 0 -49 23t-19 59q6 30 31 50.5t55 20.5h218q31 0 50 -22.5t19 -57.5v-12q120 115 320 115q144 0 227.5 -87t83.5 -233q0 -55 -4 -80l-68 -395q-1 -7 -5 -34.5t-7 -45.5q-1 -8 5.5 -10t12.5 -2q18 10 27.5 35t24.5 88 q9 26 32 44.5t50 18.5q33 -1 53 -21q18 -18 18 -43v-5q-1 -14 -5.5 -31t-13 -42t-12.5 -38q-14 -50 -43 -86q-67 -74 -153 -74q-70 0 -117 54q-35 51 -35 96l2 29l80 473q4 25 4 59q0 92 -52 137t-124 45q-60 0 -116.5 -19.5t-108.5 -59t-90 -109.5t-53 -162l-64 -366h127 q31 0 50.5 -19.5t19.5 -50.5v-12q-6 -32 -30 -52t-56 -20h-424q-32 0 -50 17.5t-18 48.5z" />
<glyph unicode="o" horiz-adv-x="1159" d="M158 408q0 153 79.5 294t213.5 227.5t284 86.5q179 0 294.5 -123t115.5 -309q0 -116 -48 -226.5t-127 -193t-185.5 -134t-217.5 -53.5q-179 0 -294 122.5t-115 308.5zM309 428q0 -129 78 -215t199 -86q111 0 206.5 69t147 170.5t51.5 204.5q0 126 -76.5 212t-195.5 87 q-111 -9 -206.5 -74.5t-149.5 -164t-54 -203.5z" />
<glyph unicode="p" horiz-adv-x="1294" d="M-29 -395q6 30 30.5 49.5t53.5 19.5h152l207 1168h-146q-30 0 -49.5 23t-19.5 59q6 29 31.5 50t56.5 21h227q29 0 48.5 -18.5t19.5 -46.5v-17l-9 -43q148 148 332 148q168 0 275.5 -119t107.5 -303q0 -105 -42.5 -214.5t-114 -199.5t-178.5 -147.5t-224 -57.5 q-93 0 -167 41.5t-118 112.5l-82 -457h164q31 0 49.5 -17t18.5 -46v-17q-6 -29 -31 -51t-57 -22h-467q-30 0 -49 19.5t-19 49.5v15zM502 414q0 -121 69 -202t177 -81q102 0 192 68t140 170.5t50 208.5q0 124 -67 209t-174 85q-127 0 -241 -114.5t-142 -268.5q-4 -27 -4 -75z " />
<glyph unicode="q" horiz-adv-x="1218" d="M162 403q0 84 25.5 171.5t75 166.5t115.5 141t153 99t180 37q197 0 290 -154l11 60q3 29 28 50t56 21h145q29 0 48.5 -18.5t19.5 -46.5v-17q-6 -28 -31.5 -49.5t-56.5 -21.5h-70l-195 -1170h60q32 0 50.5 -17.5t18.5 -45.5v-17q-6 -31 -29.5 -51t-54.5 -20h-471 q-31 0 -50 19t-19 48v15q6 30 30.5 49.5t55.5 19.5h254q12 79 35.5 217.5t37.5 235.5q-67 -72 -152 -112t-177 -40q-168 0 -275.5 123t-107.5 307zM315 420q0 -125 70 -209t178 -84q129 0 240 109t137 260q6 44 6 71q0 128 -71.5 216.5t-178.5 88.5q-103 0 -192.5 -69.5 t-139 -173.5t-49.5 -209z" />
<glyph unicode="r" horiz-adv-x="1046" d="M45 66v14q6 31 30.5 52.5t55.5 21.5h145l115 688h-137q-30 0 -49 23t-19 59q6 30 30 50.5t54 20.5h219q32 0 50 -22t18 -58l-4 -30q140 133 321 133q70 0 129 -19.5t100.5 -65.5t41.5 -112q0 -75 -46 -133.5t-124 -58.5q-55 0 -89 30t-34 80q0 36 20 70t50 55 q-34 10 -82 10q-103 0 -205.5 -100t-142.5 -250l-62 -370h156q32 0 50.5 -19.5t18.5 -50.5v-12q-6 -32 -29.5 -52t-54.5 -20h-456q-31 0 -50.5 18t-19.5 48z" />
<glyph unicode="s" horiz-adv-x="1054" d="M123 256q0 63 45.5 113.5t112.5 50.5q53 0 86.5 -35t33.5 -88q0 -72 -65 -123q79 -51 231 -51q43 0 88 11t86 33t67 60.5t26 87.5q0 33 -20.5 57.5t-61 40t-79 24.5t-95.5 18q-128 20 -201 47q-148 63 -148 188q0 76 40 145.5t108 108.5q115 74 317 74q114 0 202.5 -33 t129.5 -94q21 -35 21 -70q0 -63 -47.5 -112.5t-114.5 -49.5q-54 0 -88.5 34.5t-34.5 88.5q0 42 29 86q-47 15 -107 15q-116 0 -201 -43h2q-92 -49 -92 -123q0 -60 58 -82q47 -21 172 -39q180 -23 262 -70q112 -67 112 -188q0 -75 -39 -149.5t-106 -125.5q-123 -86 -291 -86 q-58 0 -113 7t-114.5 26t-103.5 49t-74 81t-33 116z" />
<glyph unicode="t" horiz-adv-x="970" d="M164 924q3 29 28 50t56 21h145q6 33 72 439q6 30 31 50.5t55 20.5q28 0 46.5 -22.5t18.5 -59.5l-71 -428h387q29 0 46 -18.5t17 -46.5v-17q-6 -28 -30 -49.5t-52 -21.5h-391l-82 -492q0 -3 -3 -18t-3 -21q0 -77 54 -130.5t135 -53.5q55 0 110 28t94 74q28 35 66 35 q23 0 41 -14q29 -20 29 -53q0 -27 -21 -54q-66 -78 -156 -122t-182 -44q-141 0 -230 96t-89 242q0 33 2 45l82 482h-140q-30 0 -47.5 22.5t-17.5 59.5z" />
<glyph unicode="u" horiz-adv-x="1345" d="M199 924q6 30 31 50.5t55 20.5h186q32 0 51 -22.5t19 -59.5l-92 -544v2q-7 -40 -7 -62q0 -92 51.5 -137t124.5 -45q59 0 116 20t108.5 60.5t90 109.5t54.5 158l62 367h-109q-30 0 -49 23t-19 59q6 29 32 50t57 21h188q29 0 48.5 -18.5t19.5 -46.5v-17l-130 -768 q0 -14 17 -14q7 0 15 11.5t11 23.5l27 90q8 26 32 44.5t52 18.5q29 0 49.5 -22.5t20.5 -48.5q0 -2 -3 -13t-3 -12l-7 -28q-23 -100 -61 -144q-67 -74 -154 -74q-69 0 -116 54q-25 36 -33 71q-134 -125 -330 -125q-144 0 -229.5 86.5t-85.5 231.5q0 48 8 84l74 463h-105 q-31 0 -49 22.5t-18 59.5z" />
<glyph unicode="v" horiz-adv-x="1226" d="M213 924q5 29 29 50t55 21h387q33 0 52.5 -24.5t13.5 -57.5q-6 -27 -31 -49t-53 -22h-150l-102 -606q-2 -11 -2 -21q0 -30 18 -55q24 -33 64 -33q81 0 158.5 35t137 90.5t108.5 125.5t79.5 138.5t44.5 130.5q0 3 2 12l2 9q18 70 18 102q-60 -31 -90 -31q-56 -1 -90 43 q-28 35 -28 81q0 11 2 22q8 54 51.5 93t101.5 40h10q89 -7 138 -74t49 -178q0 -54 -17 -131q-26 -121 -87.5 -237t-149 -210.5t-207 -152.5t-248.5 -58q-103 0 -167 76q-53 64 -54 148q0 16 2 32q0 2 2 7t2 6l98 596h-81q-34 0 -54 25q-15 19 -15 43q0 7 1 14z" />
<glyph unicode="w" horiz-adv-x="1679" d="M154 924q6 30 30 50.5t54 20.5h370q30 0 49 -18.5t19 -46.5v-17q-5 -27 -29.5 -49t-54.5 -22h-121q-98 -563 -98 -588q0 -127 149 -127q92 0 171 87.5t100 203.5l71 424h-61q-31 0 -49.5 22.5t-18.5 59.5q5 30 29.5 50.5t56.5 20.5h273q30 0 48.5 -18.5t18.5 -46.5v-17 q-5 -27 -29.5 -49t-54.5 -22h-55q-96 -563 -96 -592q0 -123 141 -123q77 0 141.5 39t107 100.5t72.5 139.5t43 155t13 148q0 63 -10 94q-57 -64 -125 -64q-54 0 -88.5 33.5t-34.5 85.5q0 64 44.5 108t115.5 52h4q32 0 61.5 -7t63.5 -28t58.5 -54t41 -91t16.5 -133 q0 -100 -19 -197.5t-61.5 -191t-104.5 -165.5t-154.5 -119t-204.5 -55q-197 0 -256 144q-57 -68 -131 -106t-156 -38q-138 0 -212.5 68t-74.5 193q0 51 8 84q16 91 47 271.5t43 248.5h-96q-30 0 -47.5 22.5t-17.5 59.5z" />
<glyph unicode="x" horiz-adv-x="1220" d="M74 156q0 22 2 32q11 54 53.5 91t97.5 38q50 0 81.5 -35.5t31.5 -84.5q0 -34 -18 -70q15 8 36 28t25 23q22 31 71.5 117.5t88.5 157.5l39 71l-209 318h-88q-31 0 -50.5 22.5t-19.5 59.5q6 30 30 50.5t56 20.5h281q28 0 46.5 -18.5t18.5 -46.5v-17q-6 -28 -30.5 -49.5 t-53.5 -21.5h-2q19 -29 52.5 -79t52.5 -79q81 152 151 240q68 94 201 94q57 0 100 -21q109 -50 109 -149q0 -57 -40 -104.5t-100 -47.5q-51 0 -87.5 34.5t-36.5 86.5q0 27 12 57q-4 -3 -13 -10t-16.5 -13t-11.5 -11q-56 -78 -176 -303l250 -383h82q31 0 50 -19.5t19 -50.5 v-12q-6 -32 -30 -52t-56 -20h-311q-32 0 -50 17.5t-18 48.5v14q5 31 29 52.5t55 21.5h43q-23 38 -74.5 112.5t-76.5 114.5q-112 -211 -168 -287q-98 -117 -232 -117q-52 0 -94 23q-49 23 -75.5 64.5t-26.5 91.5z" />
<glyph unicode="y" horiz-adv-x="1267" d="M-33 -279q0 79 37 140q20 39 58.5 62.5t80.5 23.5q53 0 87 -35.5t34 -87.5q0 -53 -35 -95t-88 -57q31 -28 74 -28q36 0 68 17t47 42q12 14 64 94.5t98 154.5l45 73l-232 817h-90q-29 0 -48.5 24.5t-19.5 59.5q6 28 31.5 48.5t54.5 20.5h385q30 0 48 -18.5t18 -44.5v-17 q-6 -29 -29 -51t-53 -22h-131q139 -493 178 -625q46 77 141.5 230.5t141.5 230.5l100 164h-127q-28 0 -47.5 24.5t-19.5 59.5q5 28 30 48.5t56 20.5h385q30 0 47.5 -18.5t17.5 -44.5v-17q-6 -29 -29.5 -51t-54.5 -22h-88l-82 -135q-23 -38 -117.5 -194t-152.5 -251.5 t-141.5 -232t-147 -236.5t-106.5 -164v2q-40 -61 -110.5 -98t-145.5 -37q-101 0 -166.5 64t-65.5 161z" />
<glyph unicode="z" horiz-adv-x="1073" d="M80 66q0 14 9 32.5t22 28.5l651 655q-81 10 -144 41q-22 8 -48.5 19t-39.5 16t-28 10t-27 6h-20q14 -35 14 -77q-11 -53 -49 -88t-92 -35q-58 0 -94.5 42t-36.5 103q0 51 36 107q66 90 230 90h20q78 -2 195 -60q115 -45 156 -45q56 0 100 41l16 15q23 26 62 26 q29 0 47 -18l4 -2q16 -19 16 -47q0 -32 -26 -58l-650 -645q20 -4 42 -11.5t51.5 -19t38.5 -14.5q128 -53 186 -53q45 0 80 6q-33 33 -33 86q0 64 46.5 105.5t105.5 44.5q52 0 89.5 -46t37.5 -102q0 -18 -5 -43q-22 -81 -110 -142t-211 -61q-86 0 -221 58q-19 5 -41 18 q-80 41 -129 41q-59 0 -121 -65q-29 -25 -62 -25q-23 0 -45 18q-22 12 -22 48z" />
<glyph unicode="{" horiz-adv-x="888" d="M199 629q6 30 31.5 50.5t56.5 20.5h80q49 0 95 40.5t54 88.5q12 72 -22 240q-31 149 -30 201q1 23 5 41q25 112 118.5 199t219.5 87q69 0 142.5 -21.5t115.5 -66.5q20 -20 20 -51q0 -32 -28 -57q-27 -27 -60 -27q-30 0 -51 21q-22 23 -68 36t-90 13q-72 0 -117 -44.5 t-48 -94.5q-4 -44 20 -156q33 -165 33 -256q0 -51 -6 -74q-9 -62 -47 -114.5t-97 -86.5q80 -64 80 -167q0 -29 -10 -70q-11 -44 -36.5 -103.5t-48 -103t-69.5 -129.5q-3 -7 -15.5 -30.5t-18 -36t-11.5 -32.5t-6 -36q0 -45 28 -79t87 -34q107 0 180 51q29 19 49 19 q18 0 36.5 -9t27.5 -24l-2 2q10 -20 10 -39q0 -43 -37 -69q-121 -86 -285 -86q-118 0 -185 72.5t-67 174.5q0 46 27 121q38 88 90 174q101 179 101 250q0 43 -30.5 75t-70.5 32h-84q-67 0 -67 88z" />
<glyph unicode="|" horiz-adv-x="471" d="M186 -264v1771q0 29 24.5 53.5t53.5 24.5q32 0 55 -24t23 -54v-1771q0 -33 -22.5 -54.5t-55.5 -21.5q-31 0 -54.5 21.5t-23.5 54.5z" />
<glyph unicode="}" horiz-adv-x="874" d="M-8 -221q0 31 28 59q23 29 62 29q24 0 45 -21q58 -49 162 -49q71 0 116.5 47t49.5 95q0 28 1 40t-3.5 40t-7 41t-8.5 42t-9 43q-27 103 -27 203q0 51 7 72q18 123 145 203q-82 53 -82 165q0 29 10 70q3 14 7.5 28t11.5 32.5t12.5 32t17.5 39.5t19.5 41.5t25.5 51t28 56 t34.5 68t38.5 75.5v-2q10 30 10 53q0 43 -27.5 77t-85.5 34q-42 0 -94.5 -14t-85.5 -37q-25 -19 -53 -19q-40 0 -59 31q-11 11 -11 39q0 40 37 69q58 40 138.5 62t146.5 22q119 0 185.5 -71.5t66.5 -173.5q0 -17 -2 -34t-8.5 -37t-10.5 -33t-15.5 -37.5t-16.5 -34.5 t-19.5 -39.5t-19.5 -38.5q-95 -172 -119 -260q-6 -17 -6 -35q0 -40 30.5 -71.5t69.5 -31.5h84q68 0 68 -86q-6 -31 -31 -52t-57 -21h-82q-46 0 -92 -38.5t-60 -88.5q0 -3 -1 -22t-1 -32q0 -49 39 -256q2 -11 8 -39t9 -46.5t3 -36.5q0 -129 -103 -234.5t-241 -105.5 q-165 0 -258 90q-20 17 -20 47z" />
<glyph unicode="~" horiz-adv-x="839" d="M156 444q0 16 6 31q25 60 76.5 103t113.5 57q32 4 47 4q113 0 172 -92q9 -17 35 -17t50 14t32 40q12 25 34.5 40t45.5 15q28 0 49 -19t21 -49q0 -6 -3 -17t-4 -13q-25 -59 -78.5 -103t-119.5 -59q-42 -6 -45 -6q-50 0 -93 25t-71 71q-14 14 -43 14q-51 0 -80 -53 q-9 -25 -30 -41t-46 -16q-12 0 -20 4q-49 16 -49 67z" />
<glyph unicode="&#xa1;" horiz-adv-x="485" d="M143 96q0 15 4 35l252 1020h93l-72 -1045q-7 -54 -54 -91.5t-104 -37.5q-54 0 -86.5 33t-32.5 86zM365 1401q0 44 32 76t78 32t79.5 -32t33.5 -76q0 -46 -33.5 -79.5t-79.5 -33.5q-45 0 -77.5 33.5t-32.5 79.5z" />
<glyph unicode="&#xa2;" horiz-adv-x="1089" d="M158 410q0 20 10 102q33 178 167 321.5t298 190.5l45 266q6 28 32.5 50t57.5 22t51.5 -25.5t14.5 -56.5l-41 -248q84 -10 152.5 -48.5t106 -105.5t23.5 -147q-12 -54 -59.5 -93.5t-102.5 -39.5q-61 0 -95 42t-25 101q12 75 81 117q-54 24 -106 27q-87 -469 -135 -752 q69 14 137.5 58t120.5 110q22 27 54.5 34.5t66.5 -9.5q20 -21 21.5 -50t-19.5 -59q-84 -106 -189.5 -168.5t-218.5 -71.5l-43 -245q-6 -29 -32.5 -50.5t-55.5 -21.5q-35 0 -54 24t-13 58q7 41 22.5 121.5t22.5 128.5q-132 37 -213.5 151.5t-81.5 266.5zM315 430 q0 -96 44.5 -171t119.5 -107q20 124 63.5 355t63.5 355q-102 -41 -182.5 -140t-101.5 -218q-7 -44 -7 -74z" />
<glyph unicode="&#xa3;" horiz-adv-x="1302" d="M94 84q5 30 29.5 52t54.5 22l127 -4q10 12 25 34.5t46.5 97.5t45.5 156q16 85 16 162q0 26 -3.5 60.5t-4.5 46.5h-143q-32 0 -52 24t-16 58q6 31 31.5 53t56.5 22h103q0 1 -3.5 46.5t-3.5 70.5q0 59 11 123q43 214 205 354t364 140q57 0 110.5 -12.5t99.5 -38t78 -61 t45.5 -84.5t2.5 -106q-12 -55 -59 -94t-103 -39q-60 0 -95 42.5t-26 101.5q12 72 84 116q-62 27 -155 27q-141 0 -255 -100t-143 -256q-4 -25 -4 -92q0 -70 8 -138h342q36 0 54.5 -24.5t15.5 -61.5q-6 -30 -31.5 -50.5t-56.5 -20.5h-301q4 -70 4 -125q0 -95 -12 -154 q-11 -52 -37.5 -120.5t-46.5 -111.5l-21 -42h582q8 46 23.5 135t23.5 135q6 31 31.5 51.5t56.5 20.5q34 0 54 -23.5t16 -58.5l-62 -344q-6 -30 -32 -52t-56 -22h-954q-36 0 -56 25t-14 59z" />
<glyph unicode="&#xa5;" horiz-adv-x="1390" d="M258 1407q6 29 29.5 50.5t54.5 21.5h385q34 0 54.5 -24t15.5 -58q-6 -29 -32 -51.5t-56 -22.5h-123q37 -107 110 -310.5t111 -316.5l432 627h-111q-31 0 -51 26t-14 58q5 28 29.5 50t54.5 22h383q34 0 56 -24.5t16 -57.5q-5 -28 -32 -51t-57 -23h-98l-360 -522h164 q33 0 52 -25t13 -59q-5 -31 -28.5 -51.5t-55.5 -20.5h-248l-41 -51h269q34 0 53 -24.5t16 -59.5q-6 -29 -30 -50.5t-54 -21.5h-323l-45 -282h207q33 0 52 -25.5t13 -58.5q-5 -28 -29.5 -50t-54.5 -22h-586q-35 0 -55 24.5t-14 57.5q6 30 30.5 52t57.5 22h219q7 42 21.5 134 t25.5 148h-305q-35 0 -55.5 25.5t-14.5 56.5q8 29 33 51.5t55 22.5h271l-15 51h-235q-37 0 -56.5 23.5t-13.5 58.5q6 31 30 52.5t56 21.5h164q-25 80 -54 165t-67 193.5t-57 163.5h-94q-35 0 -54.5 25.5t-13.5 58.5z" />
<glyph unicode="&#xa8;" horiz-adv-x="870" d="M377 1722q0 56 41 99t96 43q59 0 100 -42.5t41 -99.5q0 -60 -40.5 -100.5t-100.5 -40.5q-56 0 -96.5 41t-40.5 100zM786 1722q0 56 41 99t99 43q57 0 99 -43t42 -99q0 -59 -41.5 -100t-99.5 -41q-59 0 -99.5 40.5t-40.5 100.5z" />
<glyph unicode="&#xa9;" horiz-adv-x="751" />
<glyph unicode="&#xad;" horiz-adv-x="919" d="M172 504q0 34 23 56t53 22h583q33 0 56.5 -22t23.5 -56q0 -31 -24 -55.5t-56 -24.5h-583q-29 0 -52.5 24.5t-23.5 55.5z" />
<glyph unicode="&#xae;" horiz-adv-x="780" />
<glyph unicode="&#xb4;" horiz-adv-x="573" d="M325 1540q1 19 13 31l240 287l20 18q42 35 91 33.5t77 -35.5q31 -37 20.5 -86.5t-51.5 -87.5q-2 -1 -15 -9t-98 -59.5t-223 -132.5l2 4q-13 -11 -34 -9.5t-31 15.5q-12 12 -11 31z" />
<glyph unicode="&#xb7;" horiz-adv-x="432" d="M137 510q14 64 66.5 110t115.5 46q68 0 109 -48t31 -118q-14 -65 -68.5 -109.5t-120.5 -44.5q-64 0 -103 48t-30 116z" />
<glyph unicode="&#xb8;" horiz-adv-x="2131" d="M645.5 -325q7.5 32 32.5 51q27 18 57.5 16t50.5 -25q18 -22 45 -22q29 0 54 23t30 51q3 27 -11 46t-40 19q-14 0 -22 -4q-34 -8 -63 17t-23 63l14 98q6 27 33 49.5t57 22.5q35 0 53.5 -25t12.5 -57l-1 -6q0 2 0 -1q-1 -1 -1 -3q73 -21 116.5 -86t28.5 -144 q-15 -88 -90.5 -152.5t-165.5 -64.5q-48 0 -90 19.5t-68 54.5q-17 28 -9.5 60z" />
<glyph unicode="&#xbc;" horiz-adv-x="3035" />
<glyph unicode="&#xbd;" horiz-adv-x="2994" />
<glyph unicode="&#xbe;" horiz-adv-x="3172" />
<glyph unicode="&#xbf;" horiz-adv-x="1044" d="M156 358q0 133 70 246t181.5 183.5t247.5 97.5l31 200q5 30 29.5 52t54.5 22q34 0 54 -20t16 -49q-39 -256 -39 -273q-5 -29 -28 -51t-54 -25q-97 -5 -189 -51t-154.5 -130.5t-62.5 -186.5q0 -112 78 -182t211 -70q120 0 229 84q-67 38 -67 112q0 1 1 8t1 11 q11 56 57.5 95.5t104.5 39.5q52 0 88.5 -37.5t36.5 -97.5q0 -108 -82 -203q-62 -73 -166 -114.5t-219 -41.5q-194 0 -312 105.5t-118 275.5zM702 1374q0 44 33.5 76.5t79.5 32.5q45 0 77 -32t32 -77q0 -46 -32 -79t-77 -33q-46 0 -79.5 33t-33.5 79z" />
<glyph unicode="&#xc0;" horiz-adv-x="1513" d="M2 66v16q6 30 32 52t56 22h117q126 235 362.5 671.5t339.5 628.5q25 49 78 49q27 0 47 -15t23 -42q201 -967 266 -1292h109q30 0 48.5 -20t18.5 -50v-14q-4 -30 -29.5 -51t-56.5 -21h-442q-30 0 -50 19t-20 47v16q6 30 30.5 52t55.5 22h170q-11 53 -35.5 164.5 t-36.5 171.5h-522q-82 -146 -184 -336h153q30 0 50 -20t20 -50v-14q-6 -31 -31 -51.5t-57 -20.5h-442q-30 0 -50 19t-20 47zM643 647h412q-18 88 -53 262.5t-60 290.5zM844 1769q0 59 49 105q38 35 86 35q52 0 82 -37q28 -35 158 -305q4 -12 4 -19q0 -22 -16 -37.5 t-40 -15.5q-17 0 -28 8l-254 187l-19 14q-22 28 -22 65z" />
<glyph unicode="&#xc1;" horiz-adv-x="1513" d="M2 66v16q6 30 32 52t56 22h117q126 235 362.5 671.5t339.5 628.5q25 49 78 49q27 0 47 -15t23 -42q201 -967 266 -1292h109q30 0 48.5 -20t18.5 -50v-14q-4 -30 -29.5 -51t-56.5 -21h-442q-30 0 -50 19t-20 47v16q6 30 30.5 52t55.5 22h170q-11 53 -35.5 164.5 t-36.5 171.5h-522q-82 -146 -184 -336h153q30 0 50 -20t20 -50v-14q-6 -31 -31 -51.5t-57 -20.5h-442q-30 0 -50 19t-20 47zM643 647h412q-18 88 -53 262.5t-60 290.5zM806 1540q1 19 13 31l240 287l20 18q42 35 91 33.5t77 -35.5q31 -37 21 -86.5t-51 -87.5q-2 -1 -15 -9 t-98 -59.5t-223 -132.5l2 4q-13 -11 -34.5 -9.5t-31.5 15.5q-12 12 -11 31z" />
<glyph unicode="&#xc2;" horiz-adv-x="1513" d="M2 66v16q6 30 32 52t56 22h117q126 235 362.5 671.5t339.5 628.5q25 49 78 49q27 0 47 -15t23 -42q201 -967 266 -1292h109q30 0 48.5 -20t18.5 -50v-14q-4 -30 -29.5 -51t-56.5 -21h-442q-30 0 -50 19t-20 47v16q6 30 30.5 52t55.5 22h170q-11 53 -35.5 164.5 t-36.5 171.5h-522q-82 -146 -184 -336h153q30 0 50 -20t20 -50v-14q-6 -31 -31 -51.5t-57 -20.5h-442q-30 0 -50 19t-20 47zM643 647h412q-18 88 -53 262.5t-60 290.5zM709 1513q0 21 12 33l233 279q40 34 62.5 45.5t50.5 11.5q27 0 53.5 -14.5t40.5 -42.5l142 -289 q10 -21 -9 -45.5t-43 -24.5q-6 0 -16.5 4.5t-13.5 8.5l-185 190l-250 -192q-27 -11 -32 -11q-16 0 -30.5 14t-14.5 33z" />
<glyph unicode="&#xc3;" horiz-adv-x="1513" d="M2 66v16q6 30 32 52t56 22h117q126 235 362.5 671.5t339.5 628.5q25 49 78 49q27 0 47 -15t23 -42q201 -967 266 -1292h109q30 0 48.5 -20t18.5 -50v-14q-4 -30 -29.5 -51t-56.5 -21h-442q-30 0 -50 19t-20 47v16q6 30 30.5 52t55.5 22h170q-11 53 -35.5 164.5 t-36.5 171.5h-522q-82 -146 -184 -336h153q30 0 50 -20t20 -50v-14q-6 -31 -31 -51.5t-57 -20.5h-442q-30 0 -50 19t-20 47zM643 647h412q-18 88 -53 262.5t-60 290.5zM709 1628q-12 30 2 64q25 61 76.5 104t115.5 57q66 11 124.5 -12t88.5 -76q16 -26 62 -16q19 3 37.5 17 t25.5 34q10 32 37 46.5t59 8.5q30 -9 43 -40.5t2 -65.5q-27 -59 -80 -100.5t-120 -53.5q-18 -6 -41 -6q-99 0 -168 92q-20 26 -55 19q-46 -9 -64 -53q-14 -31 -43 -47t-59 -9q-31 7 -43 37z" />
<glyph unicode="&#xc4;" horiz-adv-x="1513" d="M2 66v16q6 30 32 52t56 22h117q126 235 362.5 671.5t339.5 628.5q25 49 78 49q27 0 47 -15t23 -42q201 -967 266 -1292h109q30 0 48.5 -20t18.5 -50v-14q-4 -30 -29.5 -51t-56.5 -21h-442q-30 0 -50 19t-20 47v16q6 30 30.5 52t55.5 22h170q-11 53 -35.5 164.5 t-36.5 171.5h-522q-82 -146 -184 -336h153q30 0 50 -20t20 -50v-14q-6 -31 -31 -51.5t-57 -20.5h-442q-30 0 -50 19t-20 47zM643 647h412q-18 88 -53 262.5t-60 290.5zM705 1722q0 56 41 99t96 43q59 0 100 -42.5t41 -99.5q0 -60 -40.5 -100.5t-100.5 -40.5q-56 0 -96.5 41 t-40.5 100zM1114 1722q0 56 40.5 99t98.5 43q57 0 99.5 -43t42.5 -99q0 -59 -42 -100t-100 -41q-59 0 -99 40.5t-40 100.5z" />
<glyph unicode="&#xc5;" horiz-adv-x="1513" d="M2 66v16q6 30 32 52t56 22h117q126 235 362.5 671.5t339.5 628.5q25 49 78 49q27 0 47 -15t23 -42q201 -967 266 -1292h109q30 0 48.5 -20t18.5 -50v-14q-4 -30 -29.5 -51t-56.5 -21h-442q-30 0 -50 19t-20 47v16q6 30 30.5 52t55.5 22h170q-11 53 -35.5 164.5 t-36.5 171.5h-522q-82 -146 -184 -336h153q30 0 50 -20t20 -50v-14q-6 -31 -31 -51.5t-57 -20.5h-442q-30 0 -50 19t-20 47zM643 647h412q-18 88 -53 262.5t-60 290.5zM852 1757q0 81 59.5 141t139.5 60q83 0 142.5 -59.5t59.5 -141.5t-59.5 -140t-142.5 -58 q-80 0 -139.5 58.5t-59.5 139.5zM977 1757q0 -31 21.5 -52.5t52.5 -21.5t53 21.5t22 52.5q0 30 -22.5 53t-52.5 23t-52 -23t-22 -53z" />
<glyph unicode="&#xc6;" horiz-adv-x="1953" d="M8 82q5 30 29.5 52t56.5 22h115l694 1282q37 41 74 41h921q31 0 49.5 -21.5t18.5 -56.5l-41 -254q-4 -30 -30.5 -52t-53.5 -22q-33 0 -51 18.5t-18 49.5v14l24 168h-549q-14 -86 -40 -239.5t-40 -239.5h316l16 112q6 30 32 51t56 21q32 0 51 -18t19 -47v-17l-62 -362 q-6 -30 -31.5 -52t-56.5 -22q-29 0 -47 20t-18 48v14l16 98h-319l-86 -534h608l41 227q6 32 30.5 55t57.5 23q30 0 49 -20t19 -50v-14l-54 -305v2q-2 -2 -2 -11q-9 -26 -33 -44.5t-49 -18.5h-770q-30 0 -48.5 19t-18.5 47v16l69 410h-389q-61 -117 -182 -336h156 q30 0 49.5 -20t19.5 -50v-14q-6 -29 -31 -50.5t-55 -21.5h-444q-32 0 -50 22.5t-18 59.5zM647 647h330l113 676h-82z" />
<glyph unicode="&#xc7;" horiz-adv-x="1341" d="M207 571q0 117 29.5 244t91.5 250.5t146.5 221t206 158t259.5 60.5q92 0 174.5 -41t136.5 -112l9 53q3 30 28 52t55 22q32 0 51 -18t19 -48v-16l-49 -283q-3 -23 -18 -43t-37 -27q-19 -8 -31 -8q-24 0 -43 14t-25 37v-2q-34 131 -107.5 201t-180.5 70 q-104 0 -195.5 -47.5t-156 -126t-111.5 -178t-69.5 -205.5t-22.5 -207q0 -205 99 -335t259 -130q71 0 135 23t112.5 62.5t84 81t63.5 89.5h-2q12 18 33.5 29.5t40.5 11.5q5 0 16 -2.5t15 -3.5h4q35 -14 35 -62q0 -22 -15 -51q-88 -141 -210 -224.5t-265 -100.5 q62 -17 97.5 -66.5t35.5 -116.5q0 -99 -77.5 -177.5t-180.5 -78.5q-47 0 -88.5 20t-66.5 54q-17 24 -17 47q0 37 41 70q17 12 47 12q42 0 60 -29l-5 2q17 -20 48 -20q29 0 53.5 24t30.5 58q-2 23 -17 39t-37 16q-16 0 -22 -4q-6 -2 -19 -2q-31 0 -51.5 26t-15.5 58l8 76 q-179 38 -284 195.5t-105 387.5z" />
<glyph unicode="&#xc8;" horiz-adv-x="1323" d="M55 82q6 30 31.5 52t56.5 22h138l194 1167h-127q-31 0 -50 22.5t-19 59.5q6 30 30.5 52t57.5 22h917q33 0 52.5 -19.5t19.5 -48.5v-14l-43 -250q-6 -32 -30 -53t-56 -21q-30 0 -49 19t-19 49v14l29 168h-555q-55 -340 -80 -479h317l21 112q6 31 30.5 51.5t55.5 20.5 t50.5 -18t19.5 -47v-17l-62 -362q-6 -30 -31 -52t-55 -22q-33 0 -51.5 19.5t-18.5 48.5v16l15 94h-314l-90 -532h613l37 227q6 32 31.5 55t56.5 23q30 0 47.5 -20t17.5 -50v-12l-47 -305q0 -1 -2 -5.5t-2 -5.5q-11 -26 -35 -44.5t-49 -18.5h-983q-31 0 -50.5 22.5 t-19.5 59.5zM719 1804q0 59 49 105q38 35 86 35q52 0 82 -37q28 -35 158 -305q4 -12 4 -19q0 -22 -16 -37.5t-40 -15.5q-17 0 -28 8l-254 186l-19 15q-22 28 -22 65z" />
<glyph unicode="&#xc9;" horiz-adv-x="1323" d="M55 82q6 30 31.5 52t56.5 22h138l194 1167h-127q-31 0 -50 22.5t-19 59.5q6 30 30.5 52t57.5 22h917q33 0 52.5 -19.5t19.5 -48.5v-14l-43 -250q-6 -32 -30 -53t-56 -21q-30 0 -49 19t-19 49v14l29 168h-555q-55 -340 -80 -479h317l21 112q6 31 30.5 51.5t55.5 20.5 t50.5 -18t19.5 -47v-17l-62 -362q-6 -30 -31 -52t-55 -22q-33 0 -51.5 19.5t-18.5 48.5v16l15 94h-314l-90 -532h613l37 227q6 32 31.5 55t56.5 23q30 0 47.5 -20t17.5 -50v-12l-47 -305q0 -1 -2 -5.5t-2 -5.5q-11 -26 -35 -44.5t-49 -18.5h-983q-31 0 -50.5 22.5 t-19.5 59.5zM677 1575q1 19 13 31l240 286l20 19q42 35 91 33.5t77 -35.5q31 -37 20.5 -86.5t-51.5 -87.5q-2 -1 -12 -7q-91 -57 -323 -194l2 4q-13 -11 -34.5 -9.5t-31.5 15.5q-12 12 -11 31z" />
<glyph unicode="&#xca;" horiz-adv-x="1323" d="M55 82q6 30 31.5 52t56.5 22h138l194 1167h-127q-31 0 -50 22.5t-19 59.5q6 30 30.5 52t57.5 22h917q33 0 52.5 -19.5t19.5 -48.5v-14l-43 -250q-6 -32 -30 -53t-56 -21q-30 0 -49 19t-19 49v14l29 168h-555q-55 -340 -80 -479h317l21 112q6 31 30.5 51.5t55.5 20.5 t50.5 -18t19.5 -47v-17l-62 -362q-6 -30 -31 -52t-55 -22q-33 0 -51.5 19.5t-18.5 48.5v16l15 94h-314l-90 -532h613l37 227q6 32 31.5 55t56.5 23q30 0 47.5 -20t17.5 -50v-12l-47 -305q0 -1 -2 -5.5t-2 -5.5q-11 -26 -35 -44.5t-49 -18.5h-983q-31 0 -50.5 22.5 t-19.5 59.5zM590 1583q0 21 12 33l234 278q41 34 62.5 46t49.5 12q27 0 53.5 -15t40.5 -43l142 -288q10 -21 -8.5 -45.5t-42.5 -24.5q-7 0 -17.5 4t-13.5 8l-184 191l-250 -193q-25 -10 -33 -10q-16 0 -30.5 14t-14.5 33z" />
<glyph unicode="&#xcb;" horiz-adv-x="1323" d="M55 82q6 30 31.5 52t56.5 22h138l194 1167h-127q-31 0 -50 22.5t-19 59.5q6 30 30.5 52t57.5 22h917q33 0 52.5 -19.5t19.5 -48.5v-14l-43 -250q-6 -32 -30 -53t-56 -21q-30 0 -49 19t-19 49v14l29 168h-555q-55 -340 -80 -479h317l21 112q6 31 30.5 51.5t55.5 20.5 t50.5 -18t19.5 -47v-17l-62 -362q-6 -30 -31 -52t-55 -22q-33 0 -51.5 19.5t-18.5 48.5v16l15 94h-314l-90 -532h613l37 227q6 32 31.5 55t56.5 23q30 0 47.5 -20t17.5 -50v-12l-47 -305q0 -1 -2 -5.5t-2 -5.5q-11 -26 -35 -44.5t-49 -18.5h-983q-31 0 -50.5 22.5 t-19.5 59.5zM573 1757q0 56 41.5 98.5t96.5 42.5q59 0 100 -42t41 -99q0 -60 -40.5 -100.5t-100.5 -40.5q-56 0 -97 41t-41 100zM983 1757q0 56 40.5 98.5t98.5 42.5q57 0 99.5 -42.5t42.5 -98.5q0 -59 -42 -100t-100 -41q-59 0 -99 40.5t-40 100.5z" />
<glyph unicode="&#xcc;" horiz-adv-x="802" d="M53 66v14q5 31 29.5 53.5t54.5 22.5h205l199 1167h-199q-30 0 -49 20t-19 50v14q5 29 30 50.5t56 21.5h566q33 0 51 -22t18 -60q-6 -29 -30.5 -51.5t-55.5 -22.5h-213l-194 -1167h203q31 0 49 -20t18 -50v-14q-5 -31 -29.5 -51.5t-56.5 -20.5h-565q-29 0 -48.5 19 t-19.5 47zM504 1804q0 59 49 105q38 35 86 35q52 0 82 -37q28 -35 158 -305q4 -12 4 -19q0 -22 -16 -37.5t-40 -15.5q-17 0 -28 8l-254 186l-19 15q-22 28 -22 65z" />
<glyph unicode="&#xcd;" horiz-adv-x="802" d="M53 66v14q5 31 29.5 53.5t54.5 22.5h205l199 1167h-199q-30 0 -49 20t-19 50v14q5 29 30 50.5t56 21.5h566q33 0 51 -22t18 -60q-6 -29 -30.5 -51.5t-55.5 -22.5h-213l-194 -1167h203q31 0 49 -20t18 -50v-14q-5 -31 -29.5 -51.5t-56.5 -20.5h-565q-29 0 -48.5 19 t-19.5 47zM462 1575q1 19 13 31l240 286l20 19q42 35 91 33.5t77 -35.5q31 -37 20.5 -86.5t-51.5 -87.5q-2 -1 -12 -7q-91 -57 -323 -194l2 4q-13 -11 -34.5 -9.5t-31.5 15.5q-12 12 -11 31z" />
<glyph unicode="&#xce;" horiz-adv-x="802" d="M53 66v14q5 31 29.5 53.5t54.5 22.5h205l199 1167h-199q-30 0 -49 20t-19 50v14q5 29 30 50.5t56 21.5h566q33 0 51 -22t18 -60q-6 -29 -30.5 -51.5t-55.5 -22.5h-213l-194 -1167h203q31 0 49 -20t18 -50v-14q-5 -31 -29.5 -51.5t-56.5 -20.5h-565q-29 0 -48.5 19 t-19.5 47zM375 1583q0 21 12 33l234 278q41 34 62.5 46t49.5 12q27 0 53.5 -15t40.5 -43l142 -288q10 -21 -8.5 -45.5t-42.5 -24.5q-7 0 -17.5 4t-13.5 8l-185 191l-249 -193q-25 -10 -33 -10q-16 0 -30.5 14t-14.5 33z" />
<glyph unicode="&#xcf;" horiz-adv-x="802" d="M53 66v14q5 31 29.5 53.5t54.5 22.5h205l199 1167h-199q-30 0 -49 20t-19 50v14q5 29 30 50.5t56 21.5h566q33 0 51 -22t18 -60q-6 -29 -30.5 -51.5t-55.5 -22.5h-213l-194 -1167h203q31 0 49 -20t18 -50v-14q-5 -31 -29.5 -51.5t-56.5 -20.5h-565q-29 0 -48.5 19 t-19.5 47zM360 1757q0 56 41.5 98.5t96.5 42.5q59 0 100 -42t41 -99q0 -60 -40.5 -100.5t-100.5 -40.5q-56 0 -97 41t-41 100zM770 1757q0 56 40.5 98.5t98.5 42.5q57 0 99.5 -42.5t42.5 -98.5q0 -59 -42 -100t-100 -41q-59 0 -99 40.5t-40 100.5z" />
<glyph unicode="&#xd0;" horiz-adv-x="1384" d="M55 82q6 29 32.5 51.5t55.5 22.5h121l125 698h-113q-31 0 -53 26.5t-16 59.5q6 28 32.5 50t55.5 22h117q9 53 29.5 155.5t29.5 155.5h-109q-33 0 -52 25.5t-13 58.5q6 29 29.5 50.5t54.5 21.5h428q293 0 449.5 -143t156.5 -412q0 -108 -18 -189q-70 -340 -291 -537.5 t-549 -197.5h-432q-31 0 -52.5 25t-17.5 57zM420 156h155q78 0 155.5 18t159 62t148.5 109.5t122 168.5t83 231q19 105 19 164q0 202 -120.5 308t-350.5 106h-162q-8 -50 -29 -152t-29 -159h228q36 0 55 -24.5t14 -57.5q-6 -30 -31.5 -53t-56.5 -23h-233z" />
<glyph unicode="&#xd1;" horiz-adv-x="1548" d="M74 66v16q6 30 31 52t55 22h129l196 1167h-106q-31 0 -50.5 22.5t-19.5 59.5q6 30 30.5 52t55.5 22h271q41 0 57 -43q71 -176 212.5 -523t223.5 -551l158 961h-139q-30 0 -50 20t-20 50v14q6 29 31 50.5t55 21.5h451q31 0 50 -22.5t19 -59.5q-6 -29 -30.5 -51.5 t-55.5 -22.5h-151l-213 -1257q-6 -28 -30.5 -50t-55.5 -22q-20 0 -45 18q-3 2 -23 29l-481 1198l-183 -1083h164q30 0 50 -20t20 -50v-14q-6 -31 -30.5 -51.5t-55.5 -20.5h-451q-30 0 -49.5 19t-19.5 47zM735 1628q-12 30 2 64q24 61 76.5 104t116.5 57q66 11 124.5 -12 t88.5 -76q16 -26 61 -16q20 3 38.5 17t25.5 34q10 32 37 46.5t59 8.5q30 -9 43 -40.5t2 -65.5q-27 -59 -80.5 -100.5t-120.5 -53.5q-18 -6 -41 -6q-99 0 -168 92q-20 26 -55 19q-45 -9 -63 -53q-14 -31 -43 -47t-60 -9t-43 37z" />
<glyph unicode="&#xd2;" d="M207 561q0 -206 80 -348q62 -108 170.5 -172t236.5 -64q134 3 253.5 59.5t206.5 150t151 213t95.5 250.5t31.5 261q0 87 -18.5 171t-58 161t-95.5 135t-138.5 92.5t-179.5 34.5q-112 0 -214.5 -40.5t-182 -111t-144.5 -163t-107 -198t-64.5 -215.5t-22.5 -216zM360 578 q0 100 22 203.5t68.5 203.5t112 179.5t161 131.5t206.5 60q86 -1 153.5 -43t107.5 -110t60.5 -147t20.5 -163q0 -160 -52.5 -315t-156.5 -273q-149 -178 -352 -178q-161 0 -256 124t-95 327zM799 1804q0 59 49 105q38 35 86 35q52 0 82 -37q28 -35 158 -305q4 -12 4 -19 q0 -22 -16 -37.5t-40 -15.5q-17 0 -28 8l-254 186l-19 15q-22 28 -22 65z" />
<glyph unicode="&#xd3;" d="M207 561q0 -206 80 -348q62 -108 170.5 -172t236.5 -64q134 3 253.5 59.5t206.5 150t151 213t95.5 250.5t31.5 261q0 87 -18.5 171t-58 161t-95.5 135t-138.5 92.5t-179.5 34.5q-112 0 -214.5 -40.5t-182 -111t-144.5 -163t-107 -198t-64.5 -215.5t-22.5 -216zM360 578 q0 100 22 203.5t68.5 203.5t112 179.5t161 131.5t206.5 60q86 -1 153.5 -43t107.5 -110t60.5 -147t20.5 -163q0 -160 -52.5 -315t-156.5 -273q-149 -178 -352 -178q-161 0 -256 124t-95 327zM757 1575q1 19 13 31l240 286l20 19q42 35 91 33.5t77 -35.5q31 -37 20.5 -86.5 t-51.5 -87.5q-2 -1 -15 -9t-98 -59.5t-223 -132.5l3 4q-13 -11 -34.5 -9.5t-31.5 15.5q-12 12 -11 31z" />
<glyph unicode="&#xd4;" d="M207 561q0 -206 80 -348q62 -108 170.5 -172t236.5 -64q134 3 253.5 59.5t206.5 150t151 213t95.5 250.5t31.5 261q0 87 -18.5 171t-58 161t-95.5 135t-138.5 92.5t-179.5 34.5q-112 0 -214.5 -40.5t-182 -111t-144.5 -163t-107 -198t-64.5 -215.5t-22.5 -216zM360 578 q0 100 22 203.5t68.5 203.5t112 179.5t161 131.5t206.5 60q86 -1 153.5 -43t107.5 -110t60.5 -147t20.5 -163q0 -160 -52.5 -315t-156.5 -273q-149 -178 -352 -178q-161 0 -256 124t-95 327zM668 1583q0 21 12 33l233 278q40 34 62.5 46t50.5 12q27 0 53.5 -15t40.5 -43 l142 -288q10 -21 -9 -45.5t-43 -24.5q-6 0 -16.5 4t-13.5 8l-185 191l-250 -193q-25 -10 -32 -10q-16 0 -30.5 14t-14.5 33z" />
<glyph unicode="&#xd5;" d="M207 561q0 -206 80 -348q62 -108 170.5 -172t236.5 -64q134 3 253.5 59.5t206.5 150t151 213t95.5 250.5t31.5 261q0 87 -18.5 171t-58 161t-95.5 135t-138.5 92.5t-179.5 34.5q-112 0 -214.5 -40.5t-182 -111t-144.5 -163t-107 -198t-64.5 -215.5t-22.5 -216zM360 578 q0 100 22 203.5t68.5 203.5t112 179.5t161 131.5t206.5 60q86 -1 153.5 -43t107.5 -110t60.5 -147t20.5 -163q0 -160 -52.5 -315t-156.5 -273q-149 -178 -352 -178q-161 0 -256 124t-95 327zM657 1628q-12 30 2 64q24 61 76.5 104t116.5 57q66 11 124.5 -12t88.5 -76 q16 -26 61 -16q20 3 38.5 17t25.5 34q10 32 37 46.5t59 8.5q30 -9 43 -40.5t2 -65.5q-27 -59 -80.5 -100.5t-120.5 -53.5q-18 -6 -40 -6q-99 0 -168 92q-20 26 -56 19q-45 -9 -63 -53q-14 -31 -43 -47t-60 -9t-43 37z" />
<glyph unicode="&#xd6;" d="M207 561q0 -206 80 -348q62 -108 170.5 -172t236.5 -64q134 3 253.5 59.5t206.5 150t151 213t95.5 250.5t31.5 261q0 87 -18.5 171t-58 161t-95.5 135t-138.5 92.5t-179.5 34.5q-112 0 -214.5 -40.5t-182 -111t-144.5 -163t-107 -198t-64.5 -215.5t-22.5 -216zM360 578 q0 100 22 203.5t68.5 203.5t112 179.5t161 131.5t206.5 60q86 -1 153.5 -43t107.5 -110t60.5 -147t20.5 -163q0 -160 -52.5 -315t-156.5 -273q-149 -178 -352 -178q-161 0 -256 124t-95 327zM655 1757q0 56 41.5 98.5t96.5 42.5q59 0 100 -42t41 -99q0 -60 -40.5 -100.5 t-100.5 -40.5q-56 0 -97 41t-41 100zM1065 1757q0 56 40.5 98.5t98.5 42.5q57 0 99.5 -42.5t42.5 -98.5q0 -59 -42 -100t-100 -41q-59 0 -99 40.5t-40 100.5z" />
<glyph unicode="&#xd7;" horiz-adv-x="868" d="M98.5 232q5.5 33 36.5 55h-2l260 223l-180 219q-19 26 -14.5 56.5t28.5 54.5q29 22 60 21.5t53 -23.5l180 -222q44 37 131 113t131 113q29 22 60.5 20t50.5 -28v4q21 -25 15.5 -56t-29.5 -57l-265 -225l183 -219v4q17 -22 12.5 -54.5t-29.5 -54.5q-29 -25 -60.5 -24 t-53.5 26q-32 41 -92.5 110.5t-88.5 104.5l-260 -219v2q-24 -26 -56 -26t-54 24q-22 25 -16.5 58z" />
<glyph unicode="&#xd8;" d="M205 555q0 80 18 190q29 163 98 304t165 241.5t216.5 157.5t249.5 57q177 0 295 -104l56 76q14 18 34 23t39 -5q20 -12 24 -35t-9 -43l-70 -92q14 -19 31 -57v2q82 -146 82 -346q0 -99 -19 -189q-30 -162 -99 -302t-163.5 -240.5t-214.5 -158t-248 -57.5q-170 0 -293 99 l-57 -74q-29 -29 -49 -29q-3 0 -31 11q-15 11 -17 33t11 42l68 95q-11 16 -37 59q-80 137 -80 342zM362 567q0 -173 62 -272l723 975q-90 86 -213 86q-127 0 -243.5 -81t-198.5 -223t-113 -317q-17 -100 -17 -168zM492 207q83 -80 217 -80q97 0 188.5 46.5t165.5 131.5 q154 170 201 440q14 93 14 156q0 167 -66 281h-2z" />
<glyph unicode="&#xd9;" horiz-adv-x="1310" d="M197 1405q6 29 31 51.5t53 22.5h378q30 0 49 -20t19 -48v-16q-6 -28 -30.5 -50t-53.5 -22h-117q-143 -872 -143 -893q0 -129 81 -216t206 -87q144 0 265.5 112t149.5 265q56 340 138 819h-99q-29 0 -47 20t-18 48v14q6 31 30 52.5t56 21.5h364q29 0 48.5 -20t19.5 -48 v-16q-6 -27 -31.5 -49.5t-52.5 -22.5h-113l-141 -829q-28 -136 -115.5 -254.5t-213 -190.5t-257.5 -72q-187 0 -307.5 124.5t-120.5 312.5q0 41 146 909h-105q-31 0 -50 22.5t-19 59.5zM760 1804q0 59 49 105q38 35 86 35q52 0 82 -37q28 -35 158 -305q4 -12 4 -19 q0 -22 -16 -37.5t-40 -15.5q-17 0 -28 8l-254 186l-19 15q-22 28 -22 65z" />
<glyph unicode="&#xda;" horiz-adv-x="1310" d="M197 1405q6 29 31 51.5t53 22.5h378q30 0 49 -20t19 -48v-16q-6 -28 -30.5 -50t-53.5 -22h-117q-143 -872 -143 -893q0 -129 81 -216t206 -87q144 0 265.5 112t149.5 265q56 340 138 819h-99q-29 0 -47 20t-18 48v14q6 31 30 52.5t56 21.5h364q29 0 48.5 -20t19.5 -48 v-16q-6 -27 -31.5 -49.5t-52.5 -22.5h-113l-141 -829q-28 -136 -115.5 -254.5t-213 -190.5t-257.5 -72q-187 0 -307.5 124.5t-120.5 312.5q0 41 146 909h-105q-31 0 -50 22.5t-19 59.5zM718 1575q1 19 13 31l240 286l20 19q42 35 91 33.5t77 -35.5q31 -37 20.5 -86.5 t-51.5 -87.5q-2 -1 -12 -7q-91 -57 -323 -194l2 4q-13 -11 -34.5 -9.5t-31.5 15.5q-12 12 -11 31z" />
<glyph unicode="&#xdb;" horiz-adv-x="1310" d="M197 1405q6 29 31 51.5t53 22.5h378q30 0 49 -20t19 -48v-16q-6 -28 -30.5 -50t-53.5 -22h-117q-143 -872 -143 -893q0 -129 81 -216t206 -87q144 0 265.5 112t149.5 265q56 340 138 819h-99q-29 0 -47 20t-18 48v14q6 31 30 52.5t56 21.5h364q29 0 48.5 -20t19.5 -48 v-16q-6 -27 -31.5 -49.5t-52.5 -22.5h-113l-141 -829q-28 -136 -115.5 -254.5t-213 -190.5t-257.5 -72q-187 0 -307.5 124.5t-120.5 312.5q0 41 146 909h-105q-31 0 -50 22.5t-19 59.5zM627 1583q0 21 12 33l233 278q40 34 62.5 46t50.5 12q27 0 53.5 -15t40.5 -43l142 -288 q10 -21 -9 -45.5t-43 -24.5q-7 0 -17 4t-13 8l-185 191l-249 -193q-25 -10 -33 -10q-16 0 -30.5 14t-14.5 33z" />
<glyph unicode="&#xdc;" horiz-adv-x="1310" d="M197 1405q6 29 31 51.5t53 22.5h378q30 0 49 -20t19 -48v-16q-6 -28 -30.5 -50t-53.5 -22h-117q-143 -872 -143 -893q0 -129 81 -216t206 -87q144 0 265.5 112t149.5 265q56 340 138 819h-99q-29 0 -47 20t-18 48v14q6 31 30 52.5t56 21.5h364q29 0 48.5 -20t19.5 -48 v-16q-6 -27 -31.5 -49.5t-52.5 -22.5h-113l-141 -829q-28 -136 -115.5 -254.5t-213 -190.5t-257.5 -72q-187 0 -307.5 124.5t-120.5 312.5q0 41 146 909h-105q-31 0 -50 22.5t-19 59.5zM604 1722q0 56 41 99t96 43q59 0 100.5 -42.5t41.5 -99.5q0 -60 -41 -100.5t-101 -40.5 q-56 0 -96.5 41t-40.5 100zM1014 1722q0 56 40.5 99t98.5 43q57 0 99 -43t42 -99q0 -59 -41.5 -100t-99.5 -41q-59 0 -99 40.5t-40 100.5z" />
<glyph unicode="&#xdd;" horiz-adv-x="1304" d="M215 1405q6 30 31 52t55 22h385q31 0 50.5 -23.5t19.5 -60.5q-6 -27 -32 -49.5t-56 -22.5h-121q37 -105 110.5 -307t114.5 -320q391 572 428 627h-113q-31 0 -50 22.5t-19 59.5q6 30 32 52t56 22h383q30 0 50 -20t20 -48v-16q-6 -28 -30.5 -50t-55.5 -22h-99l-553 -813 q-10 -59 -30.5 -174t-30.5 -180h213q30 0 49.5 -20t19.5 -50v-14q-6 -31 -31 -51.5t-57 -20.5h-585q-30 0 -50 19t-20 47v16q6 30 30.5 52t57.5 22h217q60 343 62 358q-50 137 -143.5 404.5t-143.5 404.5h-94q-31 0 -50.5 22.5t-19.5 59.5zM714 1575q1 19 13 31l240 286 l20 19q42 35 91 33.5t77 -35.5q31 -37 20.5 -86.5t-51.5 -87.5q-2 -1 -15 -9t-98 -59.5t-223 -132.5l3 4q-13 -11 -34.5 -9.5t-31.5 15.5q-12 12 -11 31z" />
<glyph unicode="&#xde;" horiz-adv-x="1277" d="M55 82q6 30 32 52t56 22h156q126 716 207 1167h-148q-31 0 -51.5 26t-15.5 58q6 30 31 51t55 21h575q34 0 56 -23.5t16 -58.5q-6 -29 -32.5 -51.5t-57.5 -22.5h-268q-4 -19 -13.5 -60.5t-13.5 -66.5h307q179 0 284 -93.5t105 -248.5q0 -44 -6 -78q-37 -176 -185.5 -296 t-334.5 -120h-315l-35 -204h260q35 0 55 -25.5t14 -58.5q-6 -31 -30.5 -51.5t-57.5 -20.5h-575q-33 0 -53.5 23.5t-16.5 58.5zM522 516h307q126 0 224.5 76.5t117.5 189.5q22 116 -44.5 186t-196.5 70h-316z" />
<glyph unicode="&#xe0;" horiz-adv-x="1251" d="M125 408q0 105 41.5 213t112 196.5t175.5 144.5t222 56q195 0 291 -148l14 76q3 31 28 53.5t56 22.5t50.5 -22t19.5 -58l-138 -805q0 -3 3 -6.5t6 -3.5q20 0 47 55l22 43q19 45 66 45q30 0 55 -22.5t25 -52.5q0 -14 -9 -29q-15 -38 -31.5 -67t-41 -59t-58.5 -46.5 t-75 -16.5q-65 0 -114.5 43t-49.5 113q-70 -73 -155.5 -114.5t-176.5 -41.5q-170 0 -277.5 123t-107.5 308zM279 422q0 -126 69.5 -210.5t175.5 -84.5q128 0 243 121.5t138 277.5q8 33 8 68q0 121 -71.5 198.5t-184.5 77.5q-78 0 -149.5 -40.5t-120.5 -104.5t-78.5 -144 t-29.5 -159zM563 1399q0 58 49 104q38 35 86 35q52 0 82 -37q28 -35 158 -305q4 -12 4 -18q0 -22 -15.5 -38t-39.5 -16q-17 0 -29 9l-254 186l-18 14q-23 30 -23 66z" />
<glyph unicode="&#xe1;" horiz-adv-x="1251" d="M125 408q0 105 41.5 213t112 196.5t175.5 144.5t222 56q195 0 291 -148l14 76q3 31 28 53.5t56 22.5t50.5 -22t19.5 -58l-138 -805q0 -3 3 -6.5t6 -3.5q20 0 47 55l22 43q19 45 66 45q30 0 55 -22.5t25 -52.5q0 -14 -9 -29q-15 -38 -31.5 -67t-41 -59t-58.5 -46.5 t-75 -16.5q-65 0 -114.5 43t-49.5 113q-70 -73 -155.5 -114.5t-176.5 -41.5q-170 0 -277.5 123t-107.5 308zM279 422q0 -126 69.5 -210.5t175.5 -84.5q128 0 243 121.5t138 277.5q8 33 8 68q0 121 -71.5 198.5t-184.5 77.5q-78 0 -149.5 -40.5t-120.5 -104.5t-78.5 -144 t-29.5 -159zM478.5 1171.5q1.5 18.5 13.5 30.5l239 287l21 18q42 35 91 33.5t77 -35.5q31 -37 20.5 -86.5t-51.5 -87.5q-2 -1 -15 -9t-98 -59.5t-223 -132.5l2 5q-13 -11 -34.5 -9.5t-31.5 15.5q-12 12 -10.5 30.5z" />
<glyph unicode="&#xe2;" horiz-adv-x="1251" d="M125 408q0 105 41.5 213t112 196.5t175.5 144.5t222 56q195 0 291 -148l14 76q3 31 28 53.5t56 22.5t50.5 -22t19.5 -58l-138 -805q0 -3 3 -6.5t6 -3.5q20 0 47 55l22 43q19 45 66 45q30 0 55 -22.5t25 -52.5q0 -14 -9 -29q-15 -38 -31.5 -67t-41 -59t-58.5 -46.5 t-75 -16.5q-65 0 -114.5 43t-49.5 113q-70 -73 -155.5 -114.5t-176.5 -41.5q-170 0 -277.5 123t-107.5 308zM279 422q0 -126 69.5 -210.5t175.5 -84.5q128 0 243 121.5t138 277.5q8 33 8 68q0 121 -71.5 198.5t-184.5 77.5q-78 0 -149.5 -40.5t-120.5 -104.5t-78.5 -144 t-29.5 -159zM410 1174q0 20 12 32l233 279q40 34 62.5 45.5t50.5 11.5q27 0 53.5 -14.5t40.5 -42.5l142 -289q10 -21 -9 -45.5t-43 -24.5q-6 0 -16.5 4.5t-13.5 8.5l-185 190l-250 -192q-28 -11 -32 -11q-16 0 -30.5 14.5t-14.5 33.5z" />
<glyph unicode="&#xe3;" horiz-adv-x="1251" d="M125 408q0 105 41.5 213t112 196.5t175.5 144.5t222 56q195 0 291 -148l14 76q3 31 28 53.5t56 22.5t50.5 -22t19.5 -58l-138 -805q0 -3 3 -6.5t6 -3.5q20 0 47 55l22 43q19 45 66 45q30 0 55 -22.5t25 -52.5q0 -14 -9 -29q-15 -38 -31.5 -67t-41 -59t-58.5 -46.5 t-75 -16.5q-65 0 -114.5 43t-49.5 113q-70 -73 -155.5 -114.5t-176.5 -41.5q-170 0 -277.5 123t-107.5 308zM279 422q0 -126 69.5 -210.5t175.5 -84.5q128 0 243 121.5t138 277.5q8 33 8 68q0 121 -71.5 198.5t-184.5 77.5q-78 0 -149.5 -40.5t-120.5 -104.5t-78.5 -144 t-29.5 -159zM383 1210.5q-12 29.5 2 63.5q25 61 77 104.5t116 57.5q66 11 124.5 -12t88.5 -76q17 -27 61 -17q19 3 37.5 17t25.5 34q10 32 37.5 47t59.5 9q30 -9 43 -41t2 -66q-27 -58 -80 -99.5t-121 -53.5q-21 -7 -41 -7q-99 0 -168 93q-20 25 -55 18q-46 -9 -64 -53 q-14 -31 -42.5 -46.5t-59.5 -8.5t-43 36.5z" />
<glyph unicode="&#xe4;" horiz-adv-x="1251" d="M125 408q0 105 41.5 213t112 196.5t175.5 144.5t222 56q195 0 291 -148l14 76q3 31 28 53.5t56 22.5t50.5 -22t19.5 -58l-138 -805q0 -3 3 -6.5t6 -3.5q20 0 47 55l22 43q19 45 66 45q30 0 55 -22.5t25 -52.5q0 -14 -9 -29q-15 -38 -31.5 -67t-41 -59t-58.5 -46.5 t-75 -16.5q-65 0 -114.5 43t-49.5 113q-70 -73 -155.5 -114.5t-176.5 -41.5q-170 0 -277.5 123t-107.5 308zM279 422q0 -126 69.5 -210.5t175.5 -84.5q128 0 243 121.5t138 277.5q8 33 8 68q0 121 -71.5 198.5t-184.5 77.5q-78 0 -149.5 -40.5t-120.5 -104.5t-78.5 -144 t-29.5 -159zM381 1307q0 56 41 98.5t96 42.5q59 0 100 -42t41 -99q0 -60 -40.5 -101t-100.5 -41q-56 0 -96.5 41.5t-40.5 100.5zM791 1307q0 56 40.5 98.5t98.5 42.5q57 0 99 -42.5t42 -98.5q0 -59 -41.5 -100.5t-99.5 -41.5q-59 0 -99 41t-40 101z" />
<glyph unicode="&#xe5;" horiz-adv-x="1251" d="M125 408q0 105 41.5 213t112 196.5t175.5 144.5t222 56q195 0 291 -148l14 76q3 31 28 53.5t56 22.5t50.5 -22t19.5 -58l-138 -805q0 -3 3 -6.5t6 -3.5q20 0 47 55l22 43q19 45 66 45q30 0 55 -22.5t25 -52.5q0 -14 -9 -29q-15 -38 -31.5 -67t-41 -59t-58.5 -46.5 t-75 -16.5q-65 0 -114.5 43t-49.5 113q-70 -73 -155.5 -114.5t-176.5 -41.5q-170 0 -277.5 123t-107.5 308zM279 422q0 -126 69.5 -210.5t175.5 -84.5q128 0 243 121.5t138 277.5q8 33 8 68q0 121 -71.5 198.5t-184.5 77.5q-78 0 -149.5 -40.5t-120.5 -104.5t-78.5 -144 t-29.5 -159zM543 1327q0 82 59 141.5t139 59.5q83 0 143 -59.5t60 -141.5t-60 -140.5t-143 -58.5q-80 0 -139 59t-59 140zM668 1327q0 -31 21 -52.5t52 -21.5t53.5 21.5t22.5 52.5q0 30 -23 53t-53 23t-51.5 -23t-21.5 -53z" />
<glyph unicode="&#xe6;" horiz-adv-x="1794" d="M117 238q0 63 18 115.5t48.5 89.5t75 65.5t93 46t107 29t112 16t113.5 4.5h158l6 23q6 44 6 80q0 83 -43.5 120t-136.5 37q-28 0 -56.5 -3t-51 -7.5t-47.5 -11.5t-41.5 -13t-37 -14.5t-29.5 -13t-24 -11.5t-16 -8q-20 -14 -49 -14q-35 0 -54 23q-12 27 -12 43q0 45 39 67 q6 5 24 15.5t56.5 29t83.5 34t107.5 27t123.5 11.5q247 0 303 -187q79 88 183 137.5t215 49.5q168 0 271 -117.5t103 -304.5q0 -32 -4 -72q-6 -31 -29.5 -51t-54.5 -20h-704v-25q0 -129 75 -215t191 -86q82 0 162.5 46t138.5 124q26 33 70 33q25 0 41 -11l-2 3 q30 -16 30 -56q0 -30 -18 -51q-85 -113 -201.5 -177.5t-236.5 -64.5q-115 0 -205 56t-144 155q-20 -29 -55 -59q-78 -75 -179.5 -113.5t-197.5 -38.5q-22 0 -96 11q-107 26 -168 94t-61 160zM274 254q0 -28 13.5 -50.5t34.5 -36.5t38 -21t33 -11q36 -8 66 -8q103 0 202.5 49 t135.5 135l-4 -4l24 154h-153q-390 0 -390 -207zM1014 604h596q-9 117 -73.5 192.5t-162.5 75.5q-109 0 -209.5 -75.5t-150.5 -192.5z" />
<glyph unicode="&#xe7;" horiz-adv-x="1015" d="M147 410q0 108 43 216.5t116 195.5t181 141.5t228 54.5q86 0 161 -28.5t124 -86.5t49 -133q0 -71 -43 -127.5t-115 -56.5q-54 0 -88.5 34t-34.5 85q0 43 23 81t61 58q-61 28 -154 28q-79 0 -153 -39t-127 -101.5t-85 -143t-32 -160.5q0 -129 74 -215t190 -86q79 0 161 47 t146 123q30 33 68 33q22 0 41 -11l-4 3q31 -21 31 -58q0 -26 -15 -49q-75 -98 -176 -159t-209 -76q64 -15 103 -65t39 -116q0 -97 -76.5 -174.5t-179.5 -77.5q-95 0 -156 74q-10 15 -10 41q0 47 32 66q23 18 52 18q36 0 49 -18q20 -27 51 -27q33 0 58.5 24.5t25.5 59.5 q0 23 -15 37t-40 14q-7 0 -15 -2q-9 -6 -24 -6q-29 0 -48.5 16.5t-19.5 46.5v21l15 76q-137 34 -219.5 148.5t-82.5 273.5z" />
<glyph unicode="&#xe8;" horiz-adv-x="1089" d="M147 412q0 144 68.5 279t195 226t279.5 101h35q174 0 276.5 -83.5t102.5 -213.5q0 -69 -31 -122.5t-89.5 -89t-130.5 -59.5t-168 -37t-186 -18t-200 -6q12 -115 85 -188.5t181 -73.5q81 0 161.5 46.5t141.5 125.5q23 33 68 33q31 0 50.5 -17t19.5 -49q0 -25 -13 -41 q-90 -115 -206.5 -181.5t-235.5 -66.5q-176 0 -290 124.5t-114 310.5zM319 532q120 1 224 10t203.5 29t158 59.5t58.5 94.5q0 64 -71 106.5t-185 42.5h-13q-111 -3 -218 -97.5t-157 -244.5zM569 1399q0 58 49 104q38 35 87 35q51 0 81 -37q28 -35 158 -305q4 -12 4 -18 q0 -22 -15.5 -38t-39.5 -16q-17 0 -29 9l-254 186l-18 14q-23 30 -23 66z" />
<glyph unicode="&#xe9;" horiz-adv-x="1089" d="M147 412q0 144 68.5 279t195 226t279.5 101h35q174 0 276.5 -83.5t102.5 -213.5q0 -69 -31 -122.5t-89.5 -89t-130.5 -59.5t-168 -37t-186 -18t-200 -6q12 -115 85 -188.5t181 -73.5q81 0 161.5 46.5t141.5 125.5q23 33 68 33q31 0 50.5 -17t19.5 -49q0 -25 -13 -41 q-90 -115 -206.5 -181.5t-235.5 -66.5q-176 0 -290 124.5t-114 310.5zM319 532q120 1 224 10t203.5 29t158 59.5t58.5 94.5q0 64 -71 106.5t-185 42.5h-13q-111 -3 -218 -97.5t-157 -244.5zM528 1171.5q1 18.5 13 30.5l239 287l21 18q42 35 91 33.5t77 -35.5 q31 -37 20.5 -86.5t-51.5 -87.5q-2 -1 -15 -9t-98 -59.5t-223 -132.5l2 5q-13 -11 -34 -9.5t-31 15.5q-12 12 -11 30.5z" />
<glyph unicode="&#xea;" horiz-adv-x="1089" d="M147 412q0 144 68.5 279t195 226t279.5 101h35q174 0 276.5 -83.5t102.5 -213.5q0 -69 -31 -122.5t-89.5 -89t-130.5 -59.5t-168 -37t-186 -18t-200 -6q12 -115 85 -188.5t181 -73.5q81 0 161.5 46.5t141.5 125.5q23 33 68 33q31 0 50.5 -17t19.5 -49q0 -25 -13 -41 q-90 -115 -206.5 -181.5t-235.5 -66.5q-176 0 -290 124.5t-114 310.5zM319 532q120 1 224 10t203.5 29t158 59.5t58.5 94.5q0 64 -71 106.5t-185 42.5h-13q-111 -3 -218 -97.5t-157 -244.5zM438 1174q0 19 13 32l233 279q40 34 62.5 45.5t50.5 11.5q27 0 53.5 -14.5 t40.5 -42.5l141 -289q10 -21 -8.5 -45.5t-42.5 -24.5q-6 0 -17 4.5t-14 8.5l-184 190l-250 -192q-27 -11 -33 -11q-16 0 -30.5 14.5t-14.5 33.5z" />
<glyph unicode="&#xeb;" horiz-adv-x="1089" d="M147 412q0 144 68.5 279t195 226t279.5 101h35q174 0 276.5 -83.5t102.5 -213.5q0 -69 -31 -122.5t-89.5 -89t-130.5 -59.5t-168 -37t-186 -18t-200 -6q12 -115 85 -188.5t181 -73.5q81 0 161.5 46.5t141.5 125.5q23 33 68 33q31 0 50.5 -17t19.5 -49q0 -25 -13 -41 q-90 -115 -206.5 -181.5t-235.5 -66.5q-176 0 -290 124.5t-114 310.5zM319 532q120 1 224 10t203.5 29t158 59.5t58.5 94.5q0 64 -71 106.5t-185 42.5h-13q-111 -3 -218 -97.5t-157 -244.5zM416 1307q0 56 41 98.5t96 42.5q59 0 100 -42t41 -99q0 -60 -40.5 -101t-100.5 -41 q-56 0 -96.5 41.5t-40.5 100.5zM825 1307q0 56 41 98.5t99 42.5q57 0 99 -42.5t42 -98.5q0 -59 -41.5 -100.5t-99.5 -41.5q-59 0 -99.5 41t-40.5 101z" />
<glyph unicode="&#xec;" horiz-adv-x="833" d="M35 909q0 2 2 7.5t2 7.5q5 28 30.5 49.5t55.5 21.5h305q30 0 48 -22.5t18 -59.5q-52 -340 -103 -606q-10 -61 -10 -88q0 -41 23.5 -64.5t68.5 -23.5q38 0 73 22t50 56q11 20 24 53.5t20 56.5l7 23q10 47 72 47q36 -2 56.5 -22.5t13.5 -49.5q-22 -89 -54 -155 q-38 -84 -115 -134.5t-167 -50.5q-102 0 -165 62t-63 158q0 19 39 250q36 218 66 395h-226q-28 0 -49.5 19t-21.5 48zM250 1399q0 58 49 104q38 35 86 35q52 0 82 -37q28 -35 158 -305q4 -12 4 -18q0 -22 -16 -38t-40 -16q-16 0 -28 9l-254 186l-19 14q-22 28 -22 66z" />
<glyph unicode="&#xed;" horiz-adv-x="833" d="M35 909q0 2 2 7.5t2 7.5q5 28 30.5 49.5t55.5 21.5h305q30 0 48 -22.5t18 -59.5q-52 -340 -103 -606q-10 -61 -10 -88q0 -41 23.5 -64.5t68.5 -23.5q38 0 73 22t50 56q11 20 24 53.5t20 56.5l7 23q10 47 72 47q36 -2 56.5 -22.5t13.5 -49.5q-22 -89 -54 -155 q-38 -84 -115 -134.5t-167 -50.5q-102 0 -165 62t-63 158q0 19 39 250q36 218 66 395h-226q-28 0 -49.5 19t-21.5 48zM204 1171.5q1 18.5 13 30.5l240 287l20 18q42 35 91 33.5t77 -35.5q31 -37 20.5 -86.5t-51.5 -87.5q-2 -1 -12 -7q-91 -57 -323 -194l2 5 q-13 -11 -34.5 -9.5t-31.5 15.5q-12 12 -11 30.5z" />
<glyph unicode="&#xee;" horiz-adv-x="833" d="M35 909q0 2 2 7.5t2 7.5q5 28 30.5 49.5t55.5 21.5h305q30 0 48 -22.5t18 -59.5q-52 -340 -103 -606q-10 -61 -10 -88q0 -41 23.5 -64.5t68.5 -23.5q38 0 73 22t50 56q11 20 24 53.5t20 56.5l7 23q10 47 72 47q36 -2 56.5 -22.5t13.5 -49.5q-22 -89 -54 -155 q-38 -84 -115 -134.5t-167 -50.5q-102 0 -165 62t-63 158q0 19 39 250q36 218 66 395h-226q-28 0 -49.5 19t-21.5 48zM123 1174q0 20 12 32l234 279q40 34 62 45.5t50 11.5q27 0 53.5 -14.5t40.5 -42.5l142 -289q10 -21 -8.5 -45.5t-42.5 -24.5q-6 0 -17 4.5t-14 8.5 l-184 190l-250 -192q-27 -11 -33 -11q-16 0 -30.5 14.5t-14.5 33.5z" />
<glyph unicode="&#xef;" horiz-adv-x="833" d="M35 909q0 2 2 7.5t2 7.5q5 28 30.5 49.5t55.5 21.5h305q30 0 48 -22.5t18 -59.5q-52 -340 -103 -606q-10 -61 -10 -88q0 -41 23.5 -64.5t68.5 -23.5q38 0 73 22t50 56q11 20 24 53.5t20 56.5l7 23q10 47 72 47q36 -2 56.5 -22.5t13.5 -49.5q-22 -89 -54 -155 q-38 -84 -115 -134.5t-167 -50.5q-102 0 -165 62t-63 158q0 19 39 250q36 218 66 395h-226q-28 0 -49.5 19t-21.5 48zM100 1307q0 56 41.5 98.5t96.5 42.5q59 0 100 -42t41 -99q0 -60 -40.5 -101t-100.5 -41q-56 0 -97 41.5t-41 100.5zM510 1307q0 56 40.5 98.5t98.5 42.5 q57 0 99.5 -42.5t42.5 -98.5q0 -59 -42 -100.5t-100 -41.5q-59 0 -99 41t-40 101z" />
<glyph unicode="&#xf0;" horiz-adv-x="1056" />
<glyph unicode="&#xf1;" horiz-adv-x="1302" d="M49 66v14q5 31 29 52.5t55 21.5h143l117 688h-137q-30 0 -49 23t-19 59q6 30 31 50.5t55 20.5h218q31 0 50 -22.5t19 -57.5v-12q120 115 320 115q144 0 227.5 -87t83.5 -233q0 -55 -4 -80l-68 -395q-1 -7 -5 -34.5t-7 -45.5q-1 -8 5.5 -10t12.5 -2q18 10 27.5 35t24.5 88 q9 26 32 44.5t50 18.5q33 -1 53 -21t18 -48q-1 -14 -5.5 -31t-13 -42t-12.5 -38q-14 -50 -43 -86q-67 -74 -153 -74q-70 0 -117 54q-35 51 -35 96l2 29l80 473q4 25 4 59q0 92 -52 137t-124 45q-60 0 -116.5 -19.5t-108.5 -59t-90 -109.5t-53 -162l-64 -366h127 q31 0 50.5 -19.5t19.5 -50.5v-12q-6 -32 -30 -52t-56 -20h-424q-32 0 -50 17.5t-18 48.5zM557 1210.5q-12 29.5 2 63.5q25 61 77 104.5t116 57.5q66 11 124.5 -12t88.5 -76q17 -27 61 -17q20 3 38.5 17t25.5 34q10 32 37.5 47t58.5 9q30 -9 43 -41t2 -66q-27 -58 -80 -99.5 t-121 -53.5q-21 -7 -41 -7q-99 0 -168 93q-20 25 -55 18q-46 -9 -64 -53q-14 -31 -42.5 -46.5t-59.5 -8.5t-43 36.5z" />
<glyph unicode="&#xf2;" horiz-adv-x="1159" d="M158 408q0 -186 115 -308.5t294 -122.5q111 2 217.5 53.5t185.5 134t127 193t48 226.5q0 186 -115.5 309t-294.5 123q-150 0 -284 -86.5t-213.5 -227.5t-79.5 -294zM309 428q0 105 54 203.5t149.5 164t206.5 74.5q119 -1 195.5 -87t76.5 -212q0 -103 -51.5 -204.5 t-147 -170.5t-206.5 -69q-121 0 -199 86t-78 215zM604 1399q0 58 49 104q38 35 86 35q52 0 82 -37q28 -35 158 -305q4 -12 4 -18q0 -22 -15.5 -38t-39.5 -16q-17 0 -29 9l-254 186l-18 14q-23 30 -23 66z" />
<glyph unicode="&#xf3;" horiz-adv-x="1159" d="M158 408q0 -186 115 -308.5t294 -122.5q111 2 217.5 53.5t185.5 134t127 193t48 226.5q0 186 -115.5 309t-294.5 123q-150 0 -284 -86.5t-213.5 -227.5t-79.5 -294zM309 428q0 105 54 203.5t149.5 164t206.5 74.5q119 -1 195.5 -87t76.5 -212q0 -103 -51.5 -204.5 t-147 -170.5t-206.5 -69q-121 0 -199 86t-78 215zM560 1171.5q1 18.5 13 30.5l240 287l21 18q42 35 90.5 33.5t76.5 -35.5q31 -37 21 -86.5t-51 -87.5q-2 -1 -15 -9t-98 -59.5t-223 -132.5l2 5q-13 -11 -34.5 -9.5t-31.5 15.5q-12 12 -11 30.5z" />
<glyph unicode="&#xf4;" horiz-adv-x="1159" d="M158 408q0 -186 115 -308.5t294 -122.5q111 2 217.5 53.5t185.5 134t127 193t48 226.5q0 186 -115.5 309t-294.5 123q-150 0 -284 -86.5t-213.5 -227.5t-79.5 -294zM309 428q0 105 54 203.5t149.5 164t206.5 74.5q119 -1 195.5 -87t76.5 -212q0 -103 -51.5 -204.5 t-147 -170.5t-206.5 -69q-121 0 -199 86t-78 215zM473 1174q0 20 12 32l234 279q40 34 62 45.5t50 11.5q27 0 54 -14.5t41 -42.5l141 -289q10 -21 -8.5 -45.5t-42.5 -24.5q-6 0 -17 4.5t-14 8.5l-184 190l-250 -192q-27 -11 -33 -11q-16 0 -30.5 14.5t-14.5 33.5z" />
<glyph unicode="&#xf5;" horiz-adv-x="1159" d="M158 408q0 -186 115 -308.5t294 -122.5q111 2 217.5 53.5t185.5 134t127 193t48 226.5q0 186 -115.5 309t-294.5 123q-150 0 -284 -86.5t-213.5 -227.5t-79.5 -294zM309 428q0 105 54 203.5t149.5 164t206.5 74.5q119 -1 195.5 -87t76.5 -212q0 -103 -51.5 -204.5 t-147 -170.5t-206.5 -69q-121 0 -199 86t-78 215zM455 1210.5q-12 29.5 2 63.5q25 61 77 104.5t115 57.5q66 11 124.5 -12t88.5 -76q17 -27 62 -17q19 3 37.5 17t25.5 34q10 32 37.5 47t58.5 9q30 -9 43 -41t2 -66q-27 -58 -80 -99.5t-120 -53.5q-21 -7 -41 -7 q-99 0 -168 93q-20 25 -55 18q-46 -9 -64 -53q-14 -31 -42.5 -46.5t-59.5 -8.5t-43 36.5z" />
<glyph unicode="&#xf6;" horiz-adv-x="1159" d="M158 408q0 -186 115 -308.5t294 -122.5q111 2 217.5 53.5t185.5 134t127 193t48 226.5q0 186 -115.5 309t-294.5 123q-150 0 -284 -86.5t-213.5 -227.5t-79.5 -294zM309 428q0 105 54 203.5t149.5 164t206.5 74.5q119 -1 195.5 -87t76.5 -212q0 -103 -51.5 -204.5 t-147 -170.5t-206.5 -69q-121 0 -199 86t-78 215zM449 1307q0 56 41 98.5t96 42.5q59 0 100 -42t41 -99q0 -60 -40.5 -101t-100.5 -41q-56 0 -96.5 41.5t-40.5 100.5zM858 1307q0 56 40.5 98.5t98.5 42.5q57 0 99.5 -42.5t42.5 -98.5q0 -59 -42 -100.5t-100 -41.5 q-59 0 -99 41t-40 101z" />
<glyph unicode="&#xf7;" horiz-adv-x="1124" d="M217 504q0 -13 8.5 -21t20.5 -8h782q12 0 20.5 8t8.5 21q0 12 -8.5 20t-20.5 8h-782q-12 0 -20.5 -8t-8.5 -20zM438 156q9 54 56.5 93.5t101.5 39.5q59 0 95 -42.5t28 -101.5q-9 -54 -56 -94.5t-102 -40.5q-61 0 -96 42t-27 104zM555 844q9 55 56 96t104 41 q58 0 91.5 -43t24.5 -104q-11 -55 -56.5 -94.5t-100.5 -39.5q-58 0 -92.5 43t-26.5 101z" />
<glyph unicode="&#xf8;" horiz-adv-x="1159" d="M127 25q0 23 18 41l88 88q-75 120 -75 256q0 85 28.5 173t81.5 165.5t122.5 138t159.5 96t185 35.5q155 0 271 -98l79 77q16 19 39 19q22 0 37 -15q15 -12 15 -34q0 -20 -17 -37l-86 -90q72 -119 72 -254q0 -86 -28.5 -174.5t-82 -166.5t-123.5 -139.5t-160.5 -97 t-185.5 -35.5q-148 0 -266 103l-82 -82q-17 -21 -41 -21q-16 0 -33 17q-16 16 -16 35zM311 424q0 -83 39 -156l543 539q-71 65 -176 65t-200 -66t-150.5 -170t-55.5 -212zM412 186q74 -59 172 -59q106 0 201 64t150.5 167t55.5 213q0 78 -39 154z" />
<glyph unicode="&#xf9;" horiz-adv-x="1345" d="M199 924q6 30 31 50.5t55 20.5h186q32 0 51 -22.5t19 -59.5l-92 -544v2q-7 -40 -7 -62q0 -92 51.5 -137t124.5 -45q59 0 116 20t108.5 60.5t90 109.5t54.5 158l62 367h-109q-30 0 -49 23t-19 59q6 29 32 50t57 21h188q29 0 48.5 -18.5t19.5 -46.5v-17l-130 -768 q0 -14 17 -14q7 0 15 11.5t11 23.5l27 90q8 26 32 44.5t52 18.5q29 0 49.5 -22.5t20.5 -48.5q0 -2 -3 -13t-3 -12l-7 -28q-23 -100 -61 -144q-67 -74 -154 -74q-69 0 -116 54q-25 36 -33 71q-134 -125 -330 -125q-144 0 -229.5 86.5t-85.5 231.5q0 48 8 84l74 463h-105 q-31 0 -49 22.5t-18 59.5zM676 1399q0 58 49 104q38 35 86 35q52 0 82 -37q28 -35 158 -305q4 -12 4 -18q0 -22 -16 -38t-40 -16q-16 0 -28 9l-254 186l-19 14q-22 28 -22 66z" />
<glyph unicode="&#xfa;" horiz-adv-x="1345" d="M199 924q6 30 31 50.5t55 20.5h186q32 0 51 -22.5t19 -59.5l-92 -544v2q-7 -40 -7 -62q0 -92 51.5 -137t124.5 -45q59 0 116 20t108.5 60.5t90 109.5t54.5 158l62 367h-109q-30 0 -49 23t-19 59q6 29 32 50t57 21h188q29 0 48.5 -18.5t19.5 -46.5v-17l-130 -768 q0 -14 17 -14q7 0 15 11.5t11 23.5l27 90q8 26 32 44.5t52 18.5q29 0 49.5 -22.5t20.5 -48.5q0 -2 -3 -13t-3 -12l-7 -28q-23 -100 -61 -144q-67 -74 -154 -74q-69 0 -116 54q-25 36 -33 71q-134 -125 -330 -125q-144 0 -229.5 86.5t-85.5 231.5q0 48 8 84l74 463h-105 q-31 0 -49 22.5t-18 59.5zM632 1171.5q1 18.5 13 30.5l240 287l20 18q42 35 91 33.5t77 -35.5q31 -37 20.5 -86.5t-51.5 -87.5q-2 -1 -12 -7q-91 -57 -323 -194l2 5q-13 -11 -34.5 -9.5t-31.5 15.5q-12 12 -11 30.5z" />
<glyph unicode="&#xfb;" horiz-adv-x="1345" d="M199 924q6 30 31 50.5t55 20.5h186q32 0 51 -22.5t19 -59.5l-92 -544v2q-7 -40 -7 -62q0 -92 51.5 -137t124.5 -45q59 0 116 20t108.5 60.5t90 109.5t54.5 158l62 367h-109q-30 0 -49 23t-19 59q6 29 32 50t57 21h188q29 0 48.5 -18.5t19.5 -46.5v-17l-130 -768 q0 -14 17 -14q7 0 15 11.5t11 23.5l27 90q8 26 32 44.5t52 18.5q29 0 49.5 -22.5t20.5 -48.5q0 -2 -3 -13t-3 -12l-7 -28q-23 -100 -61 -144q-67 -74 -154 -74q-69 0 -116 54q-25 36 -33 71q-134 -125 -330 -125q-144 0 -229.5 86.5t-85.5 231.5q0 48 8 84l74 463h-105 q-31 0 -49 22.5t-18 59.5zM543 1174q0 20 12 32l233 279q40 34 62.5 45.5t50.5 11.5q27 0 53.5 -14.5t40.5 -42.5l142 -289q10 -21 -9 -45.5t-43 -24.5q-6 0 -16.5 4.5t-13.5 8.5l-185 190l-249 -192q-27 -11 -33 -11q-16 0 -30.5 14.5t-14.5 33.5z" />
<glyph unicode="&#xfc;" horiz-adv-x="1345" d="M199 924q6 30 31 50.5t55 20.5h186q32 0 51 -22.5t19 -59.5l-92 -544v2q-7 -40 -7 -62q0 -92 51.5 -137t124.5 -45q59 0 116 20t108.5 60.5t90 109.5t54.5 158l62 367h-109q-30 0 -49 23t-19 59q6 29 32 50t57 21h188q29 0 48.5 -18.5t19.5 -46.5v-17l-130 -768 q0 -14 17 -14q7 0 15 11.5t11 23.5l27 90q8 26 32 44.5t52 18.5q29 0 49.5 -22.5t20.5 -48.5q0 -2 -3 -13t-3 -12l-7 -28q-23 -100 -61 -144q-67 -74 -154 -74q-69 0 -116 54q-25 36 -33 71q-134 -125 -330 -125q-144 0 -229.5 86.5t-85.5 231.5q0 48 8 84l74 463h-105 q-31 0 -49 22.5t-18 59.5zM520 1307q0 56 41 98.5t96 42.5q59 0 100.5 -42.5t41.5 -98.5q0 -60 -41 -101t-101 -41q-56 0 -96.5 41.5t-40.5 100.5zM930 1307q0 56 40.5 98.5t98.5 42.5q57 0 99 -42.5t42 -98.5q0 -59 -41.5 -100.5t-99.5 -41.5q-59 0 -99 41t-40 101z" />
<glyph unicode="&#xfd;" horiz-adv-x="1243" d="M-33 -279q0 79 37 140q20 39 58.5 62.5t80.5 23.5q53 0 87 -35.5t34 -87.5q0 -53 -35 -95t-88 -57q31 -28 74 -28q36 0 68 17t47 42q12 14 64 94.5t98 154.5l45 73l-232 817h-90q-29 0 -48.5 24.5t-19.5 59.5q6 28 31.5 48.5t54.5 20.5h385q30 0 48 -18.5t18 -44.5v-17 q-6 -29 -29 -51t-53 -22h-131q139 -493 178 -625q46 77 141.5 230.5t141.5 230.5l100 164h-127q-28 0 -47.5 24.5t-19.5 59.5q5 28 30 48.5t56 20.5h385q30 0 47.5 -18.5t17.5 -44.5v-17q-6 -29 -29.5 -51t-54.5 -22h-88l-82 -135q-23 -38 -117.5 -194t-152.5 -251.5 t-141.5 -232t-147 -236.5t-106.5 -164v2q-40 -61 -110.5 -98t-145.5 -37q-101 0 -166.5 64t-65.5 161zM624 1171.5q1 18.5 13 30.5l240 287l20 18q42 35 91 33.5t77 -35.5q31 -37 20.5 -86.5t-51.5 -87.5q-2 -1 -15 -9t-98 -59.5t-223 -132.5l2 5q-13 -11 -34 -9.5t-31 15.5 q-12 12 -11 30.5z" />
<glyph unicode="&#xfe;" horiz-adv-x="1294" d="M-33 -395q4 30 29 49.5t55 19.5h152q17 101 289 1629h-150q-31 0 -50 25t-13 56q6 30 29 51t52 21h232q31 0 51 -25t14 -57l-90 -504q69 69 155.5 108.5t178.5 39.5q168 0 274.5 -119t106.5 -303q0 -40 -10 -102q-25 -140 -107.5 -259t-199.5 -188.5t-240 -69.5 q-94 0 -168.5 41.5t-116.5 112.5l-82 -457h164q34 0 53 -22.5t13 -57.5q-5 -29 -30 -51t-56 -22h-469q-32 0 -52 26t-14 58zM496 414q0 -121 69.5 -202t175.5 -81q128 0 239.5 109.5t137.5 263.5q8 39 8 74q0 124 -68 209t-175 85q-126 0 -240.5 -114.5t-140.5 -268.5 q-6 -27 -6 -75z" />
<glyph unicode="&#xff;" horiz-adv-x="1243" d="M-33 -279q0 79 37 140q20 39 58.5 62.5t80.5 23.5q53 0 87 -35.5t34 -87.5q0 -53 -35 -95t-88 -57q31 -28 74 -28q36 0 68 17t47 42q12 14 64 94.5t98 154.5l45 73l-232 817h-90q-29 0 -48.5 24.5t-19.5 59.5q6 28 31.5 48.5t54.5 20.5h385q30 0 48 -18.5t18 -44.5v-17 q-6 -29 -29 -51t-53 -22h-131q139 -493 178 -625q46 77 141.5 230.5t141.5 230.5l100 164h-127q-28 0 -47.5 24.5t-19.5 59.5q5 28 30 48.5t56 20.5h385q30 0 47.5 -18.5t17.5 -44.5v-17q-6 -29 -29.5 -51t-54.5 -22h-88l-82 -135q-23 -38 -117.5 -194t-152.5 -251.5 t-141.5 -232t-147 -236.5t-106.5 -164v2q-40 -61 -110.5 -98t-145.5 -37q-101 0 -166.5 64t-65.5 161zM489 1307q0 56 41.5 98.5t96.5 42.5q59 0 100 -42t41 -99q0 -60 -40.5 -101t-100.5 -41q-56 0 -97 41.5t-41 100.5zM899 1307q0 56 40.5 98.5t98.5 42.5q57 0 99.5 -42.5 t42.5 -98.5q0 -59 -42 -100.5t-100 -41.5q-59 0 -99 41t-40 101z" />
<glyph unicode="&#x152;" horiz-adv-x="2232" d="M213 555q0 98 22.5 205t64 213t107 202t145.5 169.5t184.5 117t219.5 43.5q134 0 238.5 -60.5t165.5 -174.5h2q27 131 29 145q4 27 29 45.5t48 18.5h715q31 0 50.5 -22.5t19.5 -59.5l-43 -250q-6 -32 -31.5 -53t-56.5 -21q-32 0 -49 18.5t-17 49.5v14l27 168h-549 q-14 -80 -43.5 -236t-44.5 -243h315q9 40 21 112q6 30 32 51t54 21q33 0 51 -17.5t18 -47.5v-17l-63 -362q-6 -31 -30.5 -51.5t-57.5 -20.5q-30 0 -49 19t-19 47v16l17 96h-314l-96 -534h612l41 231q6 29 31 51.5t57 22.5q30 0 49 -20t19 -50v-14l-55 -303q0 -11 -8 -21 q-7 -23 -29 -38t-47 -15h-772q-31 0 -49.5 22.5t-18.5 59.5l23 121q-101 -107 -224.5 -166.5t-257.5 -59.5q-136 0 -240.5 61t-164.5 175q-78 138 -78 342zM367 571q0 -201 94 -322.5t254 -121.5q96 0 188 46.5t166 131.5q74 80 125.5 193.5t73.5 246.5q14 74 14 156 q0 161 -63 281q-91 174 -279 174q-104 0 -198 -50t-161 -131.5t-116 -184.5t-73.5 -211t-24.5 -208z" />
<glyph unicode="&#x153;" horiz-adv-x="1959" d="M168 408q0 72 20 145.5t55.5 141t88.5 127t115.5 103t139.5 68.5t158 25q130 0 227.5 -63t143.5 -177q85 111 200 175.5t240 64.5q168 0 272.5 -117.5t104.5 -304.5q0 -12 -6 -72q-6 -31 -30 -51t-56 -20q-672 -2 -700 16q-2 -16 -2 -41q0 -129 75.5 -215t190.5 -86 q81 0 162.5 45.5t140.5 122.5q24 35 68 35q21 0 39 -11q13 -8 20.5 -25t7.5 -30q0 -27 -16 -49q-85 -113 -202.5 -177.5t-238.5 -64.5q-125 0 -220.5 64.5t-141.5 179.5q-84 -111 -203.5 -177.5t-245.5 -66.5q-177 0 -292 124.5t-115 310.5zM322 424q0 -126 76.5 -211.5 t195.5 -85.5q106 0 201 64t150.5 167t55.5 213q0 128 -77 214.5t-197 86.5q-105 0 -200 -66t-150 -170t-55 -212zM1176 604h600q-9 117 -74 192.5t-164 75.5q-108 0 -209.5 -76t-152.5 -192z" />
<glyph unicode="&#x178;" horiz-adv-x="1304" d="M215 1405q6 30 31 52t55 22h385q31 0 50.5 -23.5t19.5 -60.5q-6 -27 -32 -49.5t-56 -22.5h-121q37 -105 110.5 -307t114.5 -320q391 572 428 627h-113q-31 0 -50 22.5t-19 59.5q6 30 32 52t56 22h383q30 0 50 -20t20 -48v-16q-6 -28 -30.5 -50t-55.5 -22h-99l-553 -813 q-10 -59 -30.5 -174t-30.5 -180h213q30 0 49.5 -20t19.5 -50v-14q-6 -31 -31 -51.5t-57 -20.5h-585q-30 0 -50 19t-20 47v16q6 30 30.5 52t57.5 22h217q60 343 62 358q-50 137 -143.5 404.5t-143.5 404.5h-94q-31 0 -50.5 22.5t-19.5 59.5zM606 1722q0 56 41 99t96 43 q59 0 100.5 -42.5t41.5 -99.5q0 -60 -41 -100.5t-101 -40.5q-56 0 -96.5 41t-40.5 100zM1016 1722q0 56 40.5 99t98.5 43q57 0 99 -43t42 -99q0 -59 -41.5 -100t-99.5 -41q-59 0 -99 40.5t-40 100.5z" />
<glyph unicode="&#x2c6;" horiz-adv-x="768" d="M336 1513q0 21 12 33l234 279q40 34 62 45.5t50 11.5q27 0 53.5 -14.5t40.5 -42.5l142 -289q10 -21 -8.5 -45.5t-42.5 -24.5q-6 0 -17 4.5t-14 8.5l-184 190l-250 -192q-28 -11 -33 -11q-16 0 -30.5 14t-14.5 33z" />
<glyph unicode="&#x2dc;" horiz-adv-x="839" d="M369 1628q-12 30 2 64q25 61 76.5 104t115.5 57q66 11 124.5 -12t88.5 -76q16 -26 62 -16q19 3 37.5 17t25.5 34q10 32 37 46.5t59 8.5q30 -9 43 -40.5t2 -65.5q-27 -59 -80 -100.5t-120 -53.5q-18 -6 -41 -6q-99 0 -168 92q-20 26 -55 19q-46 -9 -64 -53 q-14 -31 -43 -47t-59 -9q-31 7 -43 37z" />
<glyph unicode="&#x2000;" horiz-adv-x="979" />
<glyph unicode="&#x2001;" horiz-adv-x="1958" />
<glyph unicode="&#x2002;" horiz-adv-x="979" />
<glyph unicode="&#x2003;" horiz-adv-x="1958" />
<glyph unicode="&#x2004;" horiz-adv-x="652" />
<glyph unicode="&#x2005;" horiz-adv-x="489" />
<glyph unicode="&#x2006;" horiz-adv-x="326" />
<glyph unicode="&#x2007;" horiz-adv-x="326" />
<glyph unicode="&#x2008;" horiz-adv-x="244" />
<glyph unicode="&#x2009;" horiz-adv-x="391" />
<glyph unicode="&#x200a;" horiz-adv-x="108" />
<glyph unicode="&#x2010;" horiz-adv-x="919" d="M172 504q0 34 23 56t53 22h583q33 0 56.5 -22t23.5 -56q0 -31 -24 -55.5t-56 -24.5h-583q-29 0 -52.5 24.5t-23.5 55.5z" />
<glyph unicode="&#x2011;" horiz-adv-x="919" d="M172 504q0 34 23 56t53 22h583q33 0 56.5 -22t23.5 -56q0 -31 -24 -55.5t-56 -24.5h-583q-29 0 -52.5 24.5t-23.5 55.5z" />
<glyph unicode="&#x2012;" horiz-adv-x="919" d="M172 504q0 34 23 56t53 22h583q33 0 56.5 -22t23.5 -56q0 -31 -24 -55.5t-56 -24.5h-583q-29 0 -52.5 24.5t-23.5 55.5z" />
<glyph unicode="&#x2013;" horiz-adv-x="1468" d="M172 504q0 34 23 56t55 22h1116q34 0 56 -21.5t22 -56.5q0 -32 -22.5 -56t-55.5 -24h-1116q-31 0 -54.5 24.5t-23.5 55.5z" />
<glyph unicode="&#x2014;" horiz-adv-x="1882" d="M178 504q0 35 21.5 56.5t56.5 21.5h1516q33 0 54 -21.5t21 -56.5q0 -32 -22 -56t-53 -24h-1516q-34 0 -56 24t-22 56z" />
<glyph unicode="&#x2018;" horiz-adv-x="444" d="M258 1210q0 45 27 84l176 297l76 -20l-66 -217q44 -19 70 -58t26 -86q0 -64 -44.5 -109.5t-110.5 -45.5q-64 0 -109 46t-45 109z" />
<glyph unicode="&#x2019;" horiz-adv-x="448" d="M258 1434q0 62 45 108.5t109 46.5q63 0 109 -46.5t46 -108.5q0 -42 -24 -88l-174 -297l-78 24l67 217q-45 15 -72.5 54.5t-27.5 89.5z" />
<glyph unicode="&#x201a;" horiz-adv-x="401" d="M45 133q0 65 44.5 109.5t109.5 44.5q66 0 111.5 -44.5t45.5 -109.5q0 -41 -18 -78l-184 -309l-78 27l65 215q-44 18 -70 56.5t-26 88.5z" />
<glyph unicode="&#x201c;" horiz-adv-x="782" d="M264 1210q0 46 23 84l176 297l78 -20l-66 -217q43 -19 69.5 -58t26.5 -86q0 -64 -45 -109.5t-112 -45.5q-63 0 -106.5 46t-43.5 109zM606 1210q0 42 27 84l174 297l76 -20l-64 -217q42 -19 69 -58.5t27 -85.5q0 -64 -44 -109.5t-109 -45.5q-63 0 -109.5 46t-46.5 109z " />
<glyph unicode="&#x201d;" horiz-adv-x="755" d="M264 1434q0 62 44 108.5t106 46.5q64 0 110.5 -46.5t46.5 -108.5q0 -44 -26 -88l-174 -297l-76 24l65 217q-44 15 -70 54t-26 90zM606 1434q0 62 45.5 108.5t110.5 46.5t109 -46t44 -109q0 -38 -24 -88l-176 -297l-78 24l70 217q-46 15 -73.5 54t-27.5 90z" />
<glyph unicode="&#x201e;" horiz-adv-x="759" d="M49 133q0 65 44 109.5t110 44.5t110.5 -44.5t44.5 -109.5q0 -45 -18 -78l-184 -309l-76 27l65 215q-45 17 -70.5 55.5t-25.5 89.5zM391 133q0 64 46 109t110 45q66 0 109.5 -44.5t43.5 -109.5q0 -44 -12 -63l-10 -25q-4 -8 -24 -41t-62 -104t-90 -154l-78 27l65 215 q-44 18 -71 56.5t-27 88.5z" />
<glyph unicode="&#x2022;" horiz-adv-x="567" d="M90 494q0 84 57.5 143t141.5 59q83 0 141.5 -59.5t58.5 -142.5q0 -80 -59 -139.5t-141 -59.5q-84 0 -141.5 59t-57.5 140z" />
<glyph unicode="&#x2026;" horiz-adv-x="1298" d="M74 135q0 68 47.5 115t114.5 47q65 0 113 -47t48 -115q0 -67 -48 -112.5t-113 -45.5q-67 0 -114.5 45.5t-47.5 112.5zM494 135q0 68 47 115t114 47q64 0 111 -47t47 -115q0 -66 -47 -112t-111 -46q-67 0 -114 45.5t-47 112.5zM911 135q0 68 47.5 115t114.5 47 q65 0 112.5 -47t47.5 -115q0 -67 -47.5 -112.5t-112.5 -45.5q-67 0 -114.5 45.5t-47.5 112.5z" />
<glyph unicode="&#x202f;" horiz-adv-x="391" />
<glyph unicode="&#x2030;" horiz-adv-x="2011" d="M100 45q0 32 25 61l1237 1229q10 12 28.5 20.5t32.5 8.5q24 0 45 -21q21 -18 21 -49q0 -36 -25 -61l-1235 -1229q-31 -27 -61 -27q-27 0 -47 17q-21 29 -21 51zM229 995q0 125 103.5 230.5t234.5 105.5q109 0 180.5 -71.5t71.5 -176.5q0 -130 -100 -227.5t-236 -105.5h-2 q-109 0 -180.5 69t-71.5 176zM389 1012q0 -46 31 -78.5t76 -32.5q62 0 115 49.5t53 116.5q0 48 -32 81.5t-79 33.5q-61 0 -112.5 -51t-51.5 -119zM758 219q0 133 100.5 231.5t237.5 104.5h2q109 0 180.5 -70t71.5 -176q0 -83 -47 -161t-127 -126.5t-168 -48.5 q-109 0 -179.5 70.5t-70.5 175.5zM915 238q0 -45 32 -78t79 -33q60 0 112 50t52 114q0 50 -31 83.5t-80 33.5q-60 0 -112 -51.5t-52 -118.5zM1372 219q0 133 99.5 231.5t238.5 104.5h2q109 0 180.5 -70t71.5 -176q0 -83 -47 -161t-127 -126.5t-168 -48.5q-109 0 -179.5 70.5 t-70.5 175.5zM1528 238q0 -45 32.5 -78t79.5 -33q60 0 112 50t52 114q0 49 -32 83t-78 34q-63 0 -114.5 -51t-51.5 -119z" />
<glyph unicode="&#x2039;" horiz-adv-x="2131" />
<glyph unicode="&#x205f;" horiz-adv-x="489" />
<glyph unicode="&#x20ac;" horiz-adv-x="1390" d="M143 596v16q6 29 30.5 51.5t55.5 22.5h72l27 152h-64q-31 0 -49 17t-18 48v17q6 29 31 51t57 22h96q94 248 272 391.5t396 143.5q96 0 179 -40t136 -114l8 53q6 31 31 54.5t55 23.5t50 -19.5t20 -49.5v-15l-51 -293q-1 -22 -16 -39.5t-36 -25.5q-20 -8 -32 -8 q-25 0 -45 14t-27 37q-36 128 -110 199t-179 71q-84 0 -161 -30.5t-137.5 -85t-107.5 -121.5t-83 -146h524q31 0 49.5 -19.5t18.5 -49.5v-15q-4 -33 -29 -52t-57 -19h-560q-15 -51 -28 -152h553q30 0 47.5 -20t17.5 -50v-14q-5 -30 -29.5 -51t-56.5 -21h-538 q14 -183 111.5 -293t250.5 -110q70 0 135 23.5t114.5 63.5t86.5 82.5t66 90.5q13 19 34.5 31t40.5 12q30 0 51 -17.5t21 -50.5q0 -29 -12 -43q-102 -163 -248 -254.5t-307 -91.5q-221 0 -358 151.5t-146 405.5h-86q-31 0 -48.5 19t-17.5 47z" />
<glyph unicode="&#x2122;" horiz-adv-x="1486" />
<glyph unicode="&#x25fc;" horiz-adv-x="1013" d="M0 0v1014h1014v-1014h-1014z" />
</font>
</defs>
</svg>
